<?xml version="1.0" encoding="utf-8" standalone="no"?>
<!DOCTYPE svg PUBLIC "-//W3C//DTD SVG 1.1//EN"
  "http://www.w3.org/Graphics/SVG/1.1/DTD/svg11.dtd">
<svg xmlns:xlink="http://www.w3.org/1999/xlink" width="1152pt" height="288pt" viewBox="0 0 1152 288" xmlns="http://www.w3.org/2000/svg" version="1.1">
 <metadata>
  <rdf:RDF xmlns:dc="http://purl.org/dc/elements/1.1/" xmlns:cc="http://creativecommons.org/ns#" xmlns:rdf="http://www.w3.org/1999/02/22-rdf-syntax-ns#">
   <cc:Work>
    <dc:type rdf:resource="http://purl.org/dc/dcmitype/StillImage"/>
    <dc:date>2025-04-29T13:48:12.945049</dc:date>
    <dc:format>image/svg+xml</dc:format>
    <dc:creator>
     <cc:Agent>
      <dc:title>Matplotlib v3.10.0, https://matplotlib.org/</dc:title>
     </cc:Agent>
    </dc:creator>
   </cc:Work>
  </rdf:RDF>
 </metadata>
 <defs>
  <style type="text/css">*{stroke-linejoin: round; stroke-linecap: butt}</style>
 </defs>
 <g id="figure_1">
  <g id="patch_1">
   <path d="M 0 288 
L 1152 288 
L 1152 0 
L 0 0 
z
" style="fill: #ffffff"/>
  </g>
  <g id="axes_1">
   <g id="patch_2">
    <path d="M 44.66 246.04 
L 1141.2 246.04 
L 1141.2 26.16 
L 44.66 26.16 
z
" style="fill: #ffffff"/>
   </g>
   <g id="FillBetweenPolyCollection_1"/>
   <g id="FillBetweenPolyCollection_2"/>
   <g id="FillBetweenPolyCollection_3"/>
   <g id="FillBetweenPolyCollection_4"/>
   <g id="FillBetweenPolyCollection_5"/>
   <g id="FillBetweenPolyCollection_6"/>
   <g id="matplotlib.axis_1">
    <g id="xtick_1">
     <g id="line2d_1">
      <path d="M 94.351333 246.04 
L 94.351333 26.16 
" clip-path="url(#pc19ddff204)" style="fill: none; stroke: #000000; stroke-opacity: 0.1; stroke-width: 0.8; stroke-linecap: square"/>
     </g>
     <g id="line2d_2">
      <defs>
       <path id="ma1c5b568ad" d="M 0 0 
L 0 3.5 
" style="stroke: #000000; stroke-width: 0.8"/>
      </defs>
      <g>
       <use xlink:href="#ma1c5b568ad" x="94.351333" y="246.04" style="stroke: #000000; stroke-width: 0.8"/>
      </g>
     </g>
     <g id="text_1">
      <!-- 0 -->
      <g transform="translate(91.170083 260.638438) scale(0.1 -0.1)">
       <defs>
        <path id="DejaVuSans-30" d="M 2034 4250 
Q 1547 4250 1301 3770 
Q 1056 3291 1056 2328 
Q 1056 1369 1301 889 
Q 1547 409 2034 409 
Q 2525 409 2770 889 
Q 3016 1369 3016 2328 
Q 3016 3291 2770 3770 
Q 2525 4250 2034 4250 
z
M 2034 4750 
Q 2819 4750 3233 4129 
Q 3647 3509 3647 2328 
Q 3647 1150 3233 529 
Q 2819 -91 2034 -91 
Q 1250 -91 836 529 
Q 422 1150 422 2328 
Q 422 3509 836 4129 
Q 1250 4750 2034 4750 
z
" transform="scale(0.015625)"/>
       </defs>
       <use xlink:href="#DejaVuSans-30"/>
      </g>
     </g>
    </g>
    <g id="xtick_2">
     <g id="line2d_3">
      <path d="M 293.752521 246.04 
L 293.752521 26.16 
" clip-path="url(#pc19ddff204)" style="fill: none; stroke: #000000; stroke-opacity: 0.1; stroke-width: 0.8; stroke-linecap: square"/>
     </g>
     <g id="line2d_4">
      <g>
       <use xlink:href="#ma1c5b568ad" x="293.752521" y="246.04" style="stroke: #000000; stroke-width: 0.8"/>
      </g>
     </g>
     <g id="text_2">
      <!-- 20 -->
      <g transform="translate(287.390021 260.638438) scale(0.1 -0.1)">
       <defs>
        <path id="DejaVuSans-32" d="M 1228 531 
L 3431 531 
L 3431 0 
L 469 0 
L 469 531 
Q 828 903 1448 1529 
Q 2069 2156 2228 2338 
Q 2531 2678 2651 2914 
Q 2772 3150 2772 3378 
Q 2772 3750 2511 3984 
Q 2250 4219 1831 4219 
Q 1534 4219 1204 4116 
Q 875 4013 500 3803 
L 500 4441 
Q 881 4594 1212 4672 
Q 1544 4750 1819 4750 
Q 2544 4750 2975 4387 
Q 3406 4025 3406 3419 
Q 3406 3131 3298 2873 
Q 3191 2616 2906 2266 
Q 2828 2175 2409 1742 
Q 1991 1309 1228 531 
z
" transform="scale(0.015625)"/>
       </defs>
       <use xlink:href="#DejaVuSans-32"/>
       <use xlink:href="#DejaVuSans-30" transform="translate(63.623047 0)"/>
      </g>
     </g>
    </g>
    <g id="xtick_3">
     <g id="line2d_5">
      <path d="M 493.153709 246.04 
L 493.153709 26.16 
" clip-path="url(#pc19ddff204)" style="fill: none; stroke: #000000; stroke-opacity: 0.1; stroke-width: 0.8; stroke-linecap: square"/>
     </g>
     <g id="line2d_6">
      <g>
       <use xlink:href="#ma1c5b568ad" x="493.153709" y="246.04" style="stroke: #000000; stroke-width: 0.8"/>
      </g>
     </g>
     <g id="text_3">
      <!-- 40 -->
      <g transform="translate(486.791209 260.638438) scale(0.1 -0.1)">
       <defs>
        <path id="DejaVuSans-34" d="M 2419 4116 
L 825 1625 
L 2419 1625 
L 2419 4116 
z
M 2253 4666 
L 3047 4666 
L 3047 1625 
L 3713 1625 
L 3713 1100 
L 3047 1100 
L 3047 0 
L 2419 0 
L 2419 1100 
L 313 1100 
L 313 1709 
L 2253 4666 
z
" transform="scale(0.015625)"/>
       </defs>
       <use xlink:href="#DejaVuSans-34"/>
       <use xlink:href="#DejaVuSans-30" transform="translate(63.623047 0)"/>
      </g>
     </g>
    </g>
    <g id="xtick_4">
     <g id="line2d_7">
      <path d="M 692.554897 246.04 
L 692.554897 26.16 
" clip-path="url(#pc19ddff204)" style="fill: none; stroke: #000000; stroke-opacity: 0.1; stroke-width: 0.8; stroke-linecap: square"/>
     </g>
     <g id="line2d_8">
      <g>
       <use xlink:href="#ma1c5b568ad" x="692.554897" y="246.04" style="stroke: #000000; stroke-width: 0.8"/>
      </g>
     </g>
     <g id="text_4">
      <!-- 60 -->
      <g transform="translate(686.192397 260.638438) scale(0.1 -0.1)">
       <defs>
        <path id="DejaVuSans-36" d="M 2113 2584 
Q 1688 2584 1439 2293 
Q 1191 2003 1191 1497 
Q 1191 994 1439 701 
Q 1688 409 2113 409 
Q 2538 409 2786 701 
Q 3034 994 3034 1497 
Q 3034 2003 2786 2293 
Q 2538 2584 2113 2584 
z
M 3366 4563 
L 3366 3988 
Q 3128 4100 2886 4159 
Q 2644 4219 2406 4219 
Q 1781 4219 1451 3797 
Q 1122 3375 1075 2522 
Q 1259 2794 1537 2939 
Q 1816 3084 2150 3084 
Q 2853 3084 3261 2657 
Q 3669 2231 3669 1497 
Q 3669 778 3244 343 
Q 2819 -91 2113 -91 
Q 1303 -91 875 529 
Q 447 1150 447 2328 
Q 447 3434 972 4092 
Q 1497 4750 2381 4750 
Q 2619 4750 2861 4703 
Q 3103 4656 3366 4563 
z
" transform="scale(0.015625)"/>
       </defs>
       <use xlink:href="#DejaVuSans-36"/>
       <use xlink:href="#DejaVuSans-30" transform="translate(63.623047 0)"/>
      </g>
     </g>
    </g>
    <g id="xtick_5">
     <g id="line2d_9">
      <path d="M 891.956085 246.04 
L 891.956085 26.16 
" clip-path="url(#pc19ddff204)" style="fill: none; stroke: #000000; stroke-opacity: 0.1; stroke-width: 0.8; stroke-linecap: square"/>
     </g>
     <g id="line2d_10">
      <g>
       <use xlink:href="#ma1c5b568ad" x="891.956085" y="246.04" style="stroke: #000000; stroke-width: 0.8"/>
      </g>
     </g>
     <g id="text_5">
      <!-- 80 -->
      <g transform="translate(885.593585 260.638438) scale(0.1 -0.1)">
       <defs>
        <path id="DejaVuSans-38" d="M 2034 2216 
Q 1584 2216 1326 1975 
Q 1069 1734 1069 1313 
Q 1069 891 1326 650 
Q 1584 409 2034 409 
Q 2484 409 2743 651 
Q 3003 894 3003 1313 
Q 3003 1734 2745 1975 
Q 2488 2216 2034 2216 
z
M 1403 2484 
Q 997 2584 770 2862 
Q 544 3141 544 3541 
Q 544 4100 942 4425 
Q 1341 4750 2034 4750 
Q 2731 4750 3128 4425 
Q 3525 4100 3525 3541 
Q 3525 3141 3298 2862 
Q 3072 2584 2669 2484 
Q 3125 2378 3379 2068 
Q 3634 1759 3634 1313 
Q 3634 634 3220 271 
Q 2806 -91 2034 -91 
Q 1263 -91 848 271 
Q 434 634 434 1313 
Q 434 1759 690 2068 
Q 947 2378 1403 2484 
z
M 1172 3481 
Q 1172 3119 1398 2916 
Q 1625 2713 2034 2713 
Q 2441 2713 2670 2916 
Q 2900 3119 2900 3481 
Q 2900 3844 2670 4047 
Q 2441 4250 2034 4250 
Q 1625 4250 1398 4047 
Q 1172 3844 1172 3481 
z
" transform="scale(0.015625)"/>
       </defs>
       <use xlink:href="#DejaVuSans-38"/>
       <use xlink:href="#DejaVuSans-30" transform="translate(63.623047 0)"/>
      </g>
     </g>
    </g>
    <g id="xtick_6">
     <g id="line2d_11">
      <path d="M 1091.357273 246.04 
L 1091.357273 26.16 
" clip-path="url(#pc19ddff204)" style="fill: none; stroke: #000000; stroke-opacity: 0.1; stroke-width: 0.8; stroke-linecap: square"/>
     </g>
     <g id="line2d_12">
      <g>
       <use xlink:href="#ma1c5b568ad" x="1091.357273" y="246.04" style="stroke: #000000; stroke-width: 0.8"/>
      </g>
     </g>
     <g id="text_6">
      <!-- 100 -->
      <g transform="translate(1081.813523 260.638438) scale(0.1 -0.1)">
       <defs>
        <path id="DejaVuSans-31" d="M 794 531 
L 1825 531 
L 1825 4091 
L 703 3866 
L 703 4441 
L 1819 4666 
L 2450 4666 
L 2450 531 
L 3481 531 
L 3481 0 
L 794 0 
L 794 531 
z
" transform="scale(0.015625)"/>
       </defs>
       <use xlink:href="#DejaVuSans-31"/>
       <use xlink:href="#DejaVuSans-30" transform="translate(63.623047 0)"/>
       <use xlink:href="#DejaVuSans-30" transform="translate(127.246094 0)"/>
      </g>
     </g>
    </g>
    <g id="text_7">
     <!-- Percentage of Runtime -->
     <g transform="translate(535.926875 274.316562) scale(0.1 -0.1)">
      <defs>
       <path id="DejaVuSans-50" d="M 1259 4147 
L 1259 2394 
L 2053 2394 
Q 2494 2394 2734 2622 
Q 2975 2850 2975 3272 
Q 2975 3691 2734 3919 
Q 2494 4147 2053 4147 
L 1259 4147 
z
M 628 4666 
L 2053 4666 
Q 2838 4666 3239 4311 
Q 3641 3956 3641 3272 
Q 3641 2581 3239 2228 
Q 2838 1875 2053 1875 
L 1259 1875 
L 1259 0 
L 628 0 
L 628 4666 
z
" transform="scale(0.015625)"/>
       <path id="DejaVuSans-65" d="M 3597 1894 
L 3597 1613 
L 953 1613 
Q 991 1019 1311 708 
Q 1631 397 2203 397 
Q 2534 397 2845 478 
Q 3156 559 3463 722 
L 3463 178 
Q 3153 47 2828 -22 
Q 2503 -91 2169 -91 
Q 1331 -91 842 396 
Q 353 884 353 1716 
Q 353 2575 817 3079 
Q 1281 3584 2069 3584 
Q 2775 3584 3186 3129 
Q 3597 2675 3597 1894 
z
M 3022 2063 
Q 3016 2534 2758 2815 
Q 2500 3097 2075 3097 
Q 1594 3097 1305 2825 
Q 1016 2553 972 2059 
L 3022 2063 
z
" transform="scale(0.015625)"/>
       <path id="DejaVuSans-72" d="M 2631 2963 
Q 2534 3019 2420 3045 
Q 2306 3072 2169 3072 
Q 1681 3072 1420 2755 
Q 1159 2438 1159 1844 
L 1159 0 
L 581 0 
L 581 3500 
L 1159 3500 
L 1159 2956 
Q 1341 3275 1631 3429 
Q 1922 3584 2338 3584 
Q 2397 3584 2469 3576 
Q 2541 3569 2628 3553 
L 2631 2963 
z
" transform="scale(0.015625)"/>
       <path id="DejaVuSans-63" d="M 3122 3366 
L 3122 2828 
Q 2878 2963 2633 3030 
Q 2388 3097 2138 3097 
Q 1578 3097 1268 2742 
Q 959 2388 959 1747 
Q 959 1106 1268 751 
Q 1578 397 2138 397 
Q 2388 397 2633 464 
Q 2878 531 3122 666 
L 3122 134 
Q 2881 22 2623 -34 
Q 2366 -91 2075 -91 
Q 1284 -91 818 406 
Q 353 903 353 1747 
Q 353 2603 823 3093 
Q 1294 3584 2113 3584 
Q 2378 3584 2631 3529 
Q 2884 3475 3122 3366 
z
" transform="scale(0.015625)"/>
       <path id="DejaVuSans-6e" d="M 3513 2113 
L 3513 0 
L 2938 0 
L 2938 2094 
Q 2938 2591 2744 2837 
Q 2550 3084 2163 3084 
Q 1697 3084 1428 2787 
Q 1159 2491 1159 1978 
L 1159 0 
L 581 0 
L 581 3500 
L 1159 3500 
L 1159 2956 
Q 1366 3272 1645 3428 
Q 1925 3584 2291 3584 
Q 2894 3584 3203 3211 
Q 3513 2838 3513 2113 
z
" transform="scale(0.015625)"/>
       <path id="DejaVuSans-74" d="M 1172 4494 
L 1172 3500 
L 2356 3500 
L 2356 3053 
L 1172 3053 
L 1172 1153 
Q 1172 725 1289 603 
Q 1406 481 1766 481 
L 2356 481 
L 2356 0 
L 1766 0 
Q 1100 0 847 248 
Q 594 497 594 1153 
L 594 3053 
L 172 3053 
L 172 3500 
L 594 3500 
L 594 4494 
L 1172 4494 
z
" transform="scale(0.015625)"/>
       <path id="DejaVuSans-61" d="M 2194 1759 
Q 1497 1759 1228 1600 
Q 959 1441 959 1056 
Q 959 750 1161 570 
Q 1363 391 1709 391 
Q 2188 391 2477 730 
Q 2766 1069 2766 1631 
L 2766 1759 
L 2194 1759 
z
M 3341 1997 
L 3341 0 
L 2766 0 
L 2766 531 
Q 2569 213 2275 61 
Q 1981 -91 1556 -91 
Q 1019 -91 701 211 
Q 384 513 384 1019 
Q 384 1609 779 1909 
Q 1175 2209 1959 2209 
L 2766 2209 
L 2766 2266 
Q 2766 2663 2505 2880 
Q 2244 3097 1772 3097 
Q 1472 3097 1187 3025 
Q 903 2953 641 2809 
L 641 3341 
Q 956 3463 1253 3523 
Q 1550 3584 1831 3584 
Q 2591 3584 2966 3190 
Q 3341 2797 3341 1997 
z
" transform="scale(0.015625)"/>
       <path id="DejaVuSans-67" d="M 2906 1791 
Q 2906 2416 2648 2759 
Q 2391 3103 1925 3103 
Q 1463 3103 1205 2759 
Q 947 2416 947 1791 
Q 947 1169 1205 825 
Q 1463 481 1925 481 
Q 2391 481 2648 825 
Q 2906 1169 2906 1791 
z
M 3481 434 
Q 3481 -459 3084 -895 
Q 2688 -1331 1869 -1331 
Q 1566 -1331 1297 -1286 
Q 1028 -1241 775 -1147 
L 775 -588 
Q 1028 -725 1275 -790 
Q 1522 -856 1778 -856 
Q 2344 -856 2625 -561 
Q 2906 -266 2906 331 
L 2906 616 
Q 2728 306 2450 153 
Q 2172 0 1784 0 
Q 1141 0 747 490 
Q 353 981 353 1791 
Q 353 2603 747 3093 
Q 1141 3584 1784 3584 
Q 2172 3584 2450 3431 
Q 2728 3278 2906 2969 
L 2906 3500 
L 3481 3500 
L 3481 434 
z
" transform="scale(0.015625)"/>
       <path id="DejaVuSans-20" transform="scale(0.015625)"/>
       <path id="DejaVuSans-6f" d="M 1959 3097 
Q 1497 3097 1228 2736 
Q 959 2375 959 1747 
Q 959 1119 1226 758 
Q 1494 397 1959 397 
Q 2419 397 2687 759 
Q 2956 1122 2956 1747 
Q 2956 2369 2687 2733 
Q 2419 3097 1959 3097 
z
M 1959 3584 
Q 2709 3584 3137 3096 
Q 3566 2609 3566 1747 
Q 3566 888 3137 398 
Q 2709 -91 1959 -91 
Q 1206 -91 779 398 
Q 353 888 353 1747 
Q 353 2609 779 3096 
Q 1206 3584 1959 3584 
z
" transform="scale(0.015625)"/>
       <path id="DejaVuSans-66" d="M 2375 4863 
L 2375 4384 
L 1825 4384 
Q 1516 4384 1395 4259 
Q 1275 4134 1275 3809 
L 1275 3500 
L 2222 3500 
L 2222 3053 
L 1275 3053 
L 1275 0 
L 697 0 
L 697 3053 
L 147 3053 
L 147 3500 
L 697 3500 
L 697 3744 
Q 697 4328 969 4595 
Q 1241 4863 1831 4863 
L 2375 4863 
z
" transform="scale(0.015625)"/>
       <path id="DejaVuSans-52" d="M 2841 2188 
Q 3044 2119 3236 1894 
Q 3428 1669 3622 1275 
L 4263 0 
L 3584 0 
L 2988 1197 
Q 2756 1666 2539 1819 
Q 2322 1972 1947 1972 
L 1259 1972 
L 1259 0 
L 628 0 
L 628 4666 
L 2053 4666 
Q 2853 4666 3247 4331 
Q 3641 3997 3641 3322 
Q 3641 2881 3436 2590 
Q 3231 2300 2841 2188 
z
M 1259 4147 
L 1259 2491 
L 2053 2491 
Q 2509 2491 2742 2702 
Q 2975 2913 2975 3322 
Q 2975 3731 2742 3939 
Q 2509 4147 2053 4147 
L 1259 4147 
z
" transform="scale(0.015625)"/>
       <path id="DejaVuSans-75" d="M 544 1381 
L 544 3500 
L 1119 3500 
L 1119 1403 
Q 1119 906 1312 657 
Q 1506 409 1894 409 
Q 2359 409 2629 706 
Q 2900 1003 2900 1516 
L 2900 3500 
L 3475 3500 
L 3475 0 
L 2900 0 
L 2900 538 
Q 2691 219 2414 64 
Q 2138 -91 1772 -91 
Q 1169 -91 856 284 
Q 544 659 544 1381 
z
M 1991 3584 
L 1991 3584 
z
" transform="scale(0.015625)"/>
       <path id="DejaVuSans-69" d="M 603 3500 
L 1178 3500 
L 1178 0 
L 603 0 
L 603 3500 
z
M 603 4863 
L 1178 4863 
L 1178 4134 
L 603 4134 
L 603 4863 
z
" transform="scale(0.015625)"/>
       <path id="DejaVuSans-6d" d="M 3328 2828 
Q 3544 3216 3844 3400 
Q 4144 3584 4550 3584 
Q 5097 3584 5394 3201 
Q 5691 2819 5691 2113 
L 5691 0 
L 5113 0 
L 5113 2094 
Q 5113 2597 4934 2840 
Q 4756 3084 4391 3084 
Q 3944 3084 3684 2787 
Q 3425 2491 3425 1978 
L 3425 0 
L 2847 0 
L 2847 2094 
Q 2847 2600 2669 2842 
Q 2491 3084 2119 3084 
Q 1678 3084 1418 2786 
Q 1159 2488 1159 1978 
L 1159 0 
L 581 0 
L 581 3500 
L 1159 3500 
L 1159 2956 
Q 1356 3278 1631 3431 
Q 1906 3584 2284 3584 
Q 2666 3584 2933 3390 
Q 3200 3197 3328 2828 
z
" transform="scale(0.015625)"/>
      </defs>
      <use xlink:href="#DejaVuSans-50"/>
      <use xlink:href="#DejaVuSans-65" transform="translate(56.677734 0)"/>
      <use xlink:href="#DejaVuSans-72" transform="translate(118.201172 0)"/>
      <use xlink:href="#DejaVuSans-63" transform="translate(157.064453 0)"/>
      <use xlink:href="#DejaVuSans-65" transform="translate(212.044922 0)"/>
      <use xlink:href="#DejaVuSans-6e" transform="translate(273.568359 0)"/>
      <use xlink:href="#DejaVuSans-74" transform="translate(336.947266 0)"/>
      <use xlink:href="#DejaVuSans-61" transform="translate(376.15625 0)"/>
      <use xlink:href="#DejaVuSans-67" transform="translate(437.435547 0)"/>
      <use xlink:href="#DejaVuSans-65" transform="translate(500.912109 0)"/>
      <use xlink:href="#DejaVuSans-20" transform="translate(562.435547 0)"/>
      <use xlink:href="#DejaVuSans-6f" transform="translate(594.222656 0)"/>
      <use xlink:href="#DejaVuSans-66" transform="translate(655.404297 0)"/>
      <use xlink:href="#DejaVuSans-20" transform="translate(690.609375 0)"/>
      <use xlink:href="#DejaVuSans-52" transform="translate(722.396484 0)"/>
      <use xlink:href="#DejaVuSans-75" transform="translate(787.378906 0)"/>
      <use xlink:href="#DejaVuSans-6e" transform="translate(850.757812 0)"/>
      <use xlink:href="#DejaVuSans-74" transform="translate(914.136719 0)"/>
      <use xlink:href="#DejaVuSans-69" transform="translate(953.345703 0)"/>
      <use xlink:href="#DejaVuSans-6d" transform="translate(981.128906 0)"/>
      <use xlink:href="#DejaVuSans-65" transform="translate(1078.541016 0)"/>
     </g>
    </g>
   </g>
   <g id="matplotlib.axis_2">
    <g id="ytick_1">
     <g id="line2d_13">
      <path d="M 44.66 236.045455 
L 1141.2 236.045455 
" clip-path="url(#pc19ddff204)" style="fill: none; stroke: #000000; stroke-opacity: 0.1; stroke-width: 0.8; stroke-linecap: square"/>
     </g>
     <g id="line2d_14">
      <defs>
       <path id="m688f9ea0b5" d="M 0 0 
L -3.5 0 
" style="stroke: #000000; stroke-width: 0.8"/>
      </defs>
      <g>
       <use xlink:href="#m688f9ea0b5" x="44.66" y="236.045455" style="stroke: #000000; stroke-width: 0.8"/>
      </g>
     </g>
     <g id="text_8">
      <!-- 0 -->
      <g transform="translate(31.2975 239.844673) scale(0.1 -0.1)">
       <use xlink:href="#DejaVuSans-30"/>
      </g>
     </g>
    </g>
    <g id="ytick_2">
     <g id="line2d_15">
      <path d="M 44.66 199.78022 
L 1141.2 199.78022 
" clip-path="url(#pc19ddff204)" style="fill: none; stroke: #000000; stroke-opacity: 0.1; stroke-width: 0.8; stroke-linecap: square"/>
     </g>
     <g id="line2d_16">
      <g>
       <use xlink:href="#m688f9ea0b5" x="44.66" y="199.78022" style="stroke: #000000; stroke-width: 0.8"/>
      </g>
     </g>
     <g id="text_9">
      <!-- 10 -->
      <g transform="translate(24.935 203.579439) scale(0.1 -0.1)">
       <use xlink:href="#DejaVuSans-31"/>
       <use xlink:href="#DejaVuSans-30" transform="translate(63.623047 0)"/>
      </g>
     </g>
    </g>
    <g id="ytick_3">
     <g id="line2d_17">
      <path d="M 44.66 163.514986 
L 1141.2 163.514986 
" clip-path="url(#pc19ddff204)" style="fill: none; stroke: #000000; stroke-opacity: 0.1; stroke-width: 0.8; stroke-linecap: square"/>
     </g>
     <g id="line2d_18">
      <g>
       <use xlink:href="#m688f9ea0b5" x="44.66" y="163.514986" style="stroke: #000000; stroke-width: 0.8"/>
      </g>
     </g>
     <g id="text_10">
      <!-- 20 -->
      <g transform="translate(24.935 167.314205) scale(0.1 -0.1)">
       <use xlink:href="#DejaVuSans-32"/>
       <use xlink:href="#DejaVuSans-30" transform="translate(63.623047 0)"/>
      </g>
     </g>
    </g>
    <g id="ytick_4">
     <g id="line2d_19">
      <path d="M 44.66 127.249752 
L 1141.2 127.249752 
" clip-path="url(#pc19ddff204)" style="fill: none; stroke: #000000; stroke-opacity: 0.1; stroke-width: 0.8; stroke-linecap: square"/>
     </g>
     <g id="line2d_20">
      <g>
       <use xlink:href="#m688f9ea0b5" x="44.66" y="127.249752" style="stroke: #000000; stroke-width: 0.8"/>
      </g>
     </g>
     <g id="text_11">
      <!-- 30 -->
      <g transform="translate(24.935 131.048971) scale(0.1 -0.1)">
       <defs>
        <path id="DejaVuSans-33" d="M 2597 2516 
Q 3050 2419 3304 2112 
Q 3559 1806 3559 1356 
Q 3559 666 3084 287 
Q 2609 -91 1734 -91 
Q 1441 -91 1130 -33 
Q 819 25 488 141 
L 488 750 
Q 750 597 1062 519 
Q 1375 441 1716 441 
Q 2309 441 2620 675 
Q 2931 909 2931 1356 
Q 2931 1769 2642 2001 
Q 2353 2234 1838 2234 
L 1294 2234 
L 1294 2753 
L 1863 2753 
Q 2328 2753 2575 2939 
Q 2822 3125 2822 3475 
Q 2822 3834 2567 4026 
Q 2313 4219 1838 4219 
Q 1578 4219 1281 4162 
Q 984 4106 628 3988 
L 628 4550 
Q 988 4650 1302 4700 
Q 1616 4750 1894 4750 
Q 2613 4750 3031 4423 
Q 3450 4097 3450 3541 
Q 3450 3153 3228 2886 
Q 3006 2619 2597 2516 
z
" transform="scale(0.015625)"/>
       </defs>
       <use xlink:href="#DejaVuSans-33"/>
       <use xlink:href="#DejaVuSans-30" transform="translate(63.623047 0)"/>
      </g>
     </g>
    </g>
    <g id="ytick_5">
     <g id="line2d_21">
      <path d="M 44.66 90.984518 
L 1141.2 90.984518 
" clip-path="url(#pc19ddff204)" style="fill: none; stroke: #000000; stroke-opacity: 0.1; stroke-width: 0.8; stroke-linecap: square"/>
     </g>
     <g id="line2d_22">
      <g>
       <use xlink:href="#m688f9ea0b5" x="44.66" y="90.984518" style="stroke: #000000; stroke-width: 0.8"/>
      </g>
     </g>
     <g id="text_12">
      <!-- 40 -->
      <g transform="translate(24.935 94.783737) scale(0.1 -0.1)">
       <use xlink:href="#DejaVuSans-34"/>
       <use xlink:href="#DejaVuSans-30" transform="translate(63.623047 0)"/>
      </g>
     </g>
    </g>
    <g id="ytick_6">
     <g id="line2d_23">
      <path d="M 44.66 54.719284 
L 1141.2 54.719284 
" clip-path="url(#pc19ddff204)" style="fill: none; stroke: #000000; stroke-opacity: 0.1; stroke-width: 0.8; stroke-linecap: square"/>
     </g>
     <g id="line2d_24">
      <g>
       <use xlink:href="#m688f9ea0b5" x="44.66" y="54.719284" style="stroke: #000000; stroke-width: 0.8"/>
      </g>
     </g>
     <g id="text_13">
      <!-- 50 -->
      <g transform="translate(24.935 58.518503) scale(0.1 -0.1)">
       <defs>
        <path id="DejaVuSans-35" d="M 691 4666 
L 3169 4666 
L 3169 4134 
L 1269 4134 
L 1269 2991 
Q 1406 3038 1543 3061 
Q 1681 3084 1819 3084 
Q 2600 3084 3056 2656 
Q 3513 2228 3513 1497 
Q 3513 744 3044 326 
Q 2575 -91 1722 -91 
Q 1428 -91 1123 -41 
Q 819 9 494 109 
L 494 744 
Q 775 591 1075 516 
Q 1375 441 1709 441 
Q 2250 441 2565 725 
Q 2881 1009 2881 1497 
Q 2881 1984 2565 2268 
Q 2250 2553 1709 2553 
Q 1456 2553 1204 2497 
Q 953 2441 691 2322 
L 691 4666 
z
" transform="scale(0.015625)"/>
       </defs>
       <use xlink:href="#DejaVuSans-35"/>
       <use xlink:href="#DejaVuSans-30" transform="translate(63.623047 0)"/>
      </g>
     </g>
    </g>
    <g id="text_14">
     <!-- Disk Usage [ GB ] -->
     <g transform="translate(18.855312 179.980469) rotate(-90) scale(0.1 -0.1)">
      <defs>
       <path id="DejaVuSans-44" d="M 1259 4147 
L 1259 519 
L 2022 519 
Q 2988 519 3436 956 
Q 3884 1394 3884 2338 
Q 3884 3275 3436 3711 
Q 2988 4147 2022 4147 
L 1259 4147 
z
M 628 4666 
L 1925 4666 
Q 3281 4666 3915 4102 
Q 4550 3538 4550 2338 
Q 4550 1131 3912 565 
Q 3275 0 1925 0 
L 628 0 
L 628 4666 
z
" transform="scale(0.015625)"/>
       <path id="DejaVuSans-73" d="M 2834 3397 
L 2834 2853 
Q 2591 2978 2328 3040 
Q 2066 3103 1784 3103 
Q 1356 3103 1142 2972 
Q 928 2841 928 2578 
Q 928 2378 1081 2264 
Q 1234 2150 1697 2047 
L 1894 2003 
Q 2506 1872 2764 1633 
Q 3022 1394 3022 966 
Q 3022 478 2636 193 
Q 2250 -91 1575 -91 
Q 1294 -91 989 -36 
Q 684 19 347 128 
L 347 722 
Q 666 556 975 473 
Q 1284 391 1588 391 
Q 1994 391 2212 530 
Q 2431 669 2431 922 
Q 2431 1156 2273 1281 
Q 2116 1406 1581 1522 
L 1381 1569 
Q 847 1681 609 1914 
Q 372 2147 372 2553 
Q 372 3047 722 3315 
Q 1072 3584 1716 3584 
Q 2034 3584 2315 3537 
Q 2597 3491 2834 3397 
z
" transform="scale(0.015625)"/>
       <path id="DejaVuSans-6b" d="M 581 4863 
L 1159 4863 
L 1159 1991 
L 2875 3500 
L 3609 3500 
L 1753 1863 
L 3688 0 
L 2938 0 
L 1159 1709 
L 1159 0 
L 581 0 
L 581 4863 
z
" transform="scale(0.015625)"/>
       <path id="DejaVuSans-55" d="M 556 4666 
L 1191 4666 
L 1191 1831 
Q 1191 1081 1462 751 
Q 1734 422 2344 422 
Q 2950 422 3222 751 
Q 3494 1081 3494 1831 
L 3494 4666 
L 4128 4666 
L 4128 1753 
Q 4128 841 3676 375 
Q 3225 -91 2344 -91 
Q 1459 -91 1007 375 
Q 556 841 556 1753 
L 556 4666 
z
" transform="scale(0.015625)"/>
       <path id="DejaVuSans-5b" d="M 550 4863 
L 1875 4863 
L 1875 4416 
L 1125 4416 
L 1125 -397 
L 1875 -397 
L 1875 -844 
L 550 -844 
L 550 4863 
z
" transform="scale(0.015625)"/>
       <path id="DejaVuSans-47" d="M 3809 666 
L 3809 1919 
L 2778 1919 
L 2778 2438 
L 4434 2438 
L 4434 434 
Q 4069 175 3628 42 
Q 3188 -91 2688 -91 
Q 1594 -91 976 548 
Q 359 1188 359 2328 
Q 359 3472 976 4111 
Q 1594 4750 2688 4750 
Q 3144 4750 3555 4637 
Q 3966 4525 4313 4306 
L 4313 3634 
Q 3963 3931 3569 4081 
Q 3175 4231 2741 4231 
Q 1884 4231 1454 3753 
Q 1025 3275 1025 2328 
Q 1025 1384 1454 906 
Q 1884 428 2741 428 
Q 3075 428 3337 486 
Q 3600 544 3809 666 
z
" transform="scale(0.015625)"/>
       <path id="DejaVuSans-42" d="M 1259 2228 
L 1259 519 
L 2272 519 
Q 2781 519 3026 730 
Q 3272 941 3272 1375 
Q 3272 1813 3026 2020 
Q 2781 2228 2272 2228 
L 1259 2228 
z
M 1259 4147 
L 1259 2741 
L 2194 2741 
Q 2656 2741 2882 2914 
Q 3109 3088 3109 3444 
Q 3109 3797 2882 3972 
Q 2656 4147 2194 4147 
L 1259 4147 
z
M 628 4666 
L 2241 4666 
Q 2963 4666 3353 4366 
Q 3744 4066 3744 3513 
Q 3744 3084 3544 2831 
Q 3344 2578 2956 2516 
Q 3422 2416 3680 2098 
Q 3938 1781 3938 1306 
Q 3938 681 3513 340 
Q 3088 0 2303 0 
L 628 0 
L 628 4666 
z
" transform="scale(0.015625)"/>
       <path id="DejaVuSans-5d" d="M 1947 4863 
L 1947 -844 
L 622 -844 
L 622 -397 
L 1369 -397 
L 1369 4416 
L 622 4416 
L 622 4863 
L 1947 4863 
z
" transform="scale(0.015625)"/>
      </defs>
      <use xlink:href="#DejaVuSans-44"/>
      <use xlink:href="#DejaVuSans-69" transform="translate(77.001953 0)"/>
      <use xlink:href="#DejaVuSans-73" transform="translate(104.785156 0)"/>
      <use xlink:href="#DejaVuSans-6b" transform="translate(156.884766 0)"/>
      <use xlink:href="#DejaVuSans-20" transform="translate(214.794922 0)"/>
      <use xlink:href="#DejaVuSans-55" transform="translate(246.582031 0)"/>
      <use xlink:href="#DejaVuSans-73" transform="translate(319.775391 0)"/>
      <use xlink:href="#DejaVuSans-61" transform="translate(371.875 0)"/>
      <use xlink:href="#DejaVuSans-67" transform="translate(433.154297 0)"/>
      <use xlink:href="#DejaVuSans-65" transform="translate(496.630859 0)"/>
      <use xlink:href="#DejaVuSans-20" transform="translate(558.154297 0)"/>
      <use xlink:href="#DejaVuSans-5b" transform="translate(589.941406 0)"/>
      <use xlink:href="#DejaVuSans-20" transform="translate(628.955078 0)"/>
      <use xlink:href="#DejaVuSans-47" transform="translate(660.742188 0)"/>
      <use xlink:href="#DejaVuSans-42" transform="translate(738.232422 0)"/>
      <use xlink:href="#DejaVuSans-20" transform="translate(806.835938 0)"/>
      <use xlink:href="#DejaVuSans-5d" transform="translate(838.623047 0)"/>
     </g>
    </g>
   </g>
   <g id="line2d_25">
    <path d="M 94.502727 236.045455 
L 98.590368 236.045427 
L 102.753707 235.294623 
L 111.042534 231.781429 
L 119.936938 228.140739 
L 128.263615 224.549631 
L 136.62814 221.057686 
L 140.829326 218.394457 
L 145.10621 217.048677 
L 149.269548 214.357117 
L 153.58428 212.324281 
L 157.97471 210.093119 
L 162.251593 208.21611 
L 166.414932 207.181984 
L 174.968699 202.875487 
L 179.510522 201.288883 
L 184.241589 199.362293 
L 188.518472 197.435702 
L 192.833204 195.62244 
L 197.223634 194.375823 
L 201.538366 191.995917 
L 205.663856 190.522642 
L 209.978588 188.822709 
L 218.343113 185.082857 
L 222.544299 183.72291 
L 226.707638 181.682991 
L 230.946673 180.096387 
L 235.450648 178.283125 
L 239.651834 176.80985 
L 243.89087 174.543273 
L 248.167753 173.069998 
L 252.482486 171.256736 
L 256.683672 169.103488 
L 260.84701 167.630213 
L 265.010348 165.703622 
L 273.412722 162.303757 
L 277.500363 160.263837 
L 281.852944 158.677233 
L 290.747348 154.597394 
L 294.910686 153.350777 
L 299.414661 151.0842 
L 304.07003 148.930951 
L 308.346914 147.571005 
L 312.623797 145.191099 
L 317.052075 143.377838 
L 321.253262 142.017891 
L 325.492297 139.751314 
L 329.731332 138.16471 
L 338.058009 134.651516 
L 342.069953 133.064912 
L 346.308988 131.25165 
L 350.35878 129.325059 
L 354.673513 127.625126 
L 363.378674 123.885274 
L 367.579861 121.958684 
L 385.141578 114.932295 
L 389.494159 112.665717 
L 397.782987 109.492509 
L 402.097719 107.679248 
L 406.298906 105.639328 
L 410.802881 103.599409 
L 415.004067 102.126134 
L 419.280951 99.859557 
L 423.860623 98.046295 
L 428.440295 96.799677 
L 432.641482 94.5331 
L 436.956214 92.493181 
L 441.460189 90.793248 
L 445.623527 88.866658 
L 449.749016 87.166725 
L 454.063749 85.126805 
L 458.15139 83.65353 
L 462.239031 81.953597 
L 466.402369 80.027007 
L 470.603556 78.327074 
L 475.145379 75.947168 
L 479.23302 74.813879 
L 483.396358 73.113946 
L 487.824636 70.73404 
L 491.912277 69.487423 
L 496.113464 67.334175 
L 500.314651 65.974228 
L 508.641327 61.781061 
L 512.804665 60.534443 
L 517.0437 58.494524 
L 521.055644 57.021249 
L 525.067588 55.774631 
L 529.193078 53.734712 
L 533.280719 52.828081 
L 537.330512 51.808121 
L 541.758789 51.468135 
L 549.896223 50.334846 
L 553.946016 49.99486 
L 558.71493 47.614954 
L 570.750762 43.535115 
L 578.888196 40.928551 
L 582.975837 43.202211 
L 587.02563 41.728936 
L 591.226816 44.909227 
L 603.603285 41.056046 
L 613.898085 46.332921 
L 617.985726 47.473293 
L 622.035518 46.113346 
L 626.12316 44.526742 
L 630.172952 43.166796 
L 634.676927 41.80685 
L 640.543449 45.667114 
L 644.63109 43.287208 
L 648.680883 45.447539 
L 676.5374 36.154545 
L 683.387983 42.607207 
L 687.513473 50.214407 
L 691.563265 47.834501 
L 699.700699 45.114608 
L 703.750492 43.641333 
L 707.91383 42.394716 
L 712.001471 41.034769 
L 716.013415 43.30843 
L 720.063207 41.835154 
L 724.37794 40.475208 
L 732.666767 43.655499 
L 737.473531 40.935607 
L 741.561172 39.57566 
L 745.535267 45.546674 
L 749.660757 45.546674 
L 753.748398 46.573717 
L 761.620892 44.193811 
L 765.670684 42.947194 
L 772.521268 46.467471 
L 776.571061 44.200894 
L 780.620853 42.954277 
L 784.670646 45.114608 
L 808.931553 36.954931 
L 813.776164 43.96007 
L 827.363786 50.660639 
L 831.451427 48.394062 
L 835.50122 46.807458 
L 843.600805 44.087565 
L 855.788031 39.894398 
L 859.837823 42.281387 
L 863.887616 40.808112 
L 869.148561 44.895034 
L 873.198354 42.515128 
L 877.702329 41.155181 
L 885.726217 38.32196 
L 891.214254 45.171273 
L 895.264046 46.424973 
L 903.363631 43.705081 
L 908.813819 47.792002 
L 912.901461 45.298768 
L 921.417379 42.465546 
L 925.467172 44.625877 
L 937.61655 40.546039 
L 941.817736 43.613001 
L 946.246014 43.613001 
L 950.295807 49.010288 
L 954.345599 47.423684 
L 966.343583 43.343845 
L 970.393375 46.524136 
L 987.046728 40.857693 
L 992.875401 47.381185 
L 996.925194 49.541517 
L 1005.024779 46.934953 
L 1013.124364 44.21506 
L 1017.212005 50.951044 
L 1023.078527 48.684467 
L 1031.594446 45.851246 
L 1035.454996 44.377971 
L 1039.504789 50.908546 
L 1045.522705 48.641969 
L 1057.634234 44.56213 
L 1061.684026 50.98646 
L 1068.118276 48.606554 
L 1076.217861 45.99999 
L 1080.419048 44.640044 
L 1084.468841 51.028958 
L 1091.357273 51.028958 
L 1091.357273 51.028958 
" clip-path="url(#pc19ddff204)" style="fill: none; stroke: #1f77b4; stroke-width: 1.5; stroke-linecap: square"/>
   </g>
   <g id="line2d_26">
    <path d="M 94.589487 236.045455 
L 104.972981 235.982482 
L 186.230965 234.260414 
L 191.327451 234.224999 
L 196.471567 233.977092 
L 201.568053 233.85668 
L 206.712169 233.85668 
L 227.145742 233.375033 
L 232.194597 233.375033 
L 257.581763 232.780056 
L 262.725879 232.772973 
L 267.631842 232.539232 
L 272.537805 232.539232 
L 282.730776 232.298409 
L 287.874892 232.291326 
L 298.115494 231.944256 
L 303.164349 231.937173 
L 308.117942 231.816761 
L 313.214428 231.809678 
L 323.455029 231.462608 
L 328.360992 231.455525 
L 348.604042 230.980961 
L 358.654121 230.860549 
L 363.798237 230.626808 
L 368.894723 230.619725 
L 389.280665 230.14516 
L 399.330744 230.024748 
L 419.526164 229.543101 
L 424.67028 229.543101 
L 434.767989 229.188948 
L 450.009815 229.061453 
L 454.868147 228.827712 
L 459.964633 228.7073 
L 465.061119 228.7073 
L 485.589953 228.225653 
L 490.543546 228.225653 
L 495.640032 228.105241 
L 500.736517 227.8715 
L 510.786596 227.751088 
L 515.883082 227.630676 
L 520.979567 227.623593 
L 526.123684 227.389852 
L 531.220169 227.389852 
L 581.803979 226.249481 
L 586.948095 226.249481 
L 592.092212 226.136152 
L 597.188697 225.909494 
L 602.189921 225.909494 
L 622.718756 225.456179 
L 627.815241 225.456179 
L 678.589574 224.32289 
L 683.686059 224.32289 
L 688.782545 224.096233 
L 693.879031 223.982904 
L 698.975516 223.982904 
L 790.28358 222.056313 
L 795.380065 222.056313 
L 815.861269 221.602998 
L 820.957754 221.602998 
L 826.006609 221.489641 
L 831.103095 221.262983 
L 836.437734 221.262983 
L 841.58185 221.149655 
L 846.630705 221.149655 
L 851.774821 220.922997 
L 912.646864 219.676379 
L 917.79098 219.676379 
L 922.935096 219.449722 
L 927.93632 219.449722 
L 938.176922 219.223064 
L 943.130515 219.223064 
L 948.17937 218.996406 
L 953.323487 218.883077 
L 958.419972 218.883077 
L 963.564088 218.769749 
L 968.708205 218.429762 
L 973.80469 218.429762 
L 978.948806 218.316433 
L 984.045292 218.316433 
L 989.141777 218.203104 
L 994.238263 217.976447 
L 999.382379 217.976447 
L 1019.720691 217.523131 
L 1024.817176 217.523131 
L 1091.357273 216.163185 
L 1091.357273 216.163185 
" clip-path="url(#pc19ddff204)" style="fill: none; stroke: #ff7f0e; stroke-width: 1.5; stroke-linecap: square"/>
   </g>
   <g id="line2d_27">
    <path d="M 95.185997 236.045455 
L 118.347918 236.045427 
L 141.092507 234.375154 
L 163.628431 232.456283 
L 185.538356 230.599361 
L 207.239616 228.755332 
L 229.566873 226.863853 
L 252.311462 224.97929 
L 275.056051 223.067308 
L 297.174643 221.210165 
L 320.336564 219.041007 
L 343.081153 217.227746 
L 365.825742 215.527813 
L 387.735668 213.601222 
L 410.271591 211.787961 
L 433.01618 209.86137 
L 455.134772 208.048108 
L 477.879361 206.121518 
L 500.415284 204.194927 
L 522.32521 202.381666 
L 544.652467 200.568404 
L 566.771058 198.641813 
L 589.93298 196.715223 
L 612.468903 194.788632 
L 635.422158 192.97537 
L 658.166747 191.162109 
L 681.537334 189.122189 
L 704.281924 187.195599 
L 727.026513 185.495666 
L 749.771102 183.455747 
L 772.515691 181.529156 
L 794.842949 179.602565 
L 817.796204 177.789304 
L 840.123461 175.976042 
L 862.659385 174.16278 
L 886.447304 172.462847 
L 908.565895 170.649586 
L 931.310484 168.609666 
L 954.055073 166.683076 
L 977.008329 165.096472 
L 999.752918 163.169881 
L 1023.332171 161.243291 
L 1045.868094 159.3167 
L 1069.030015 157.276781 
L 1091.357273 156.596808 
" clip-path="url(#pc19ddff204)" style="fill: none; stroke: #2ca02c; stroke-width: 1.5; stroke-linecap: square"/>
   </g>
   <g id="line2d_28">
    <path d="M 94.698964 236.045455 
L 105.736251 236.045427 
L 115.035382 236.031454 
L 124.595237 235.857532 
L 133.807461 235.676195 
L 143.541131 235.495384 
L 152.840262 235.321461 
L 162.313209 235.140096 
L 171.612341 234.965842 
L 181.172196 234.770892 
L 190.905866 234.545203 
L 200.118089 234.37521 
L 209.591036 234.106054 
L 218.977076 233.985642 
L 228.450023 233.751901 
L 237.401523 233.511077 
L 246.787562 233.397748 
L 256.434325 233.156924 
L 265.820364 233.036513 
L 275.293311 232.923184 
L 284.940073 232.68236 
L 294.239205 232.561948 
L 303.712152 232.328207 
L 313.098191 232.207795 
L 322.397322 231.974055 
L 331.783361 231.740314 
L 341.082493 231.619902 
L 350.468532 231.386161 
L 359.854571 231.265749 
L 369.327518 231.145337 
L 378.887373 230.911596 
L 387.925781 230.791185 
L 397.224912 230.557444 
L 406.524044 230.437032 
L 415.823175 230.31662 
L 425.556845 229.96955 
L 434.855977 229.849138 
L 444.502739 229.615398 
L 453.801871 229.494986 
L 463.448633 229.374574 
L 472.92158 229.140833 
L 482.307619 229.013338 
L 491.606751 228.78668 
L 501.340421 228.666269 
L 510.987183 228.319199 
L 520.46013 228.198787 
L 529.933077 228.078375 
L 538.79767 227.844634 
L 548.183709 227.724222 
L 557.48284 227.60381 
L 567.390326 227.37007 
L 576.60255 227.249658 
L 585.901681 227.015917 
L 595.200813 226.895505 
L 604.67376 226.775093 
L 613.712168 226.541352 
L 623.011299 226.420941 
L 632.571154 226.1872 
L 642.044101 226.066788 
L 651.517048 225.946376 
L 661.16381 225.599306 
L 670.549849 225.478894 
L 680.631151 225.245154 
L 689.930282 225.124742 
L 699.316321 225.00433 
L 708.615453 224.770589 
L 717.914584 224.650177 
L 727.0399 224.310191 
L 736.339032 224.083533 
L 745.811978 223.856875 
L 755.11111 223.743546 
L 764.236426 223.630217 
L 773.79628 223.40356 
L 783.356135 223.290231 
L 792.742174 223.063573 
L 802.128214 222.950244 
L 811.427345 222.836915 
L 820.900292 222.496929 
L 830.286331 222.3836 
L 839.585462 222.156942 
L 848.797686 222.043613 
L 857.836094 221.930285 
L 867.135226 221.703627 
L 876.521265 221.590298 
L 885.820396 221.250311 
L 895.119528 221.136983 
L 904.331751 221.023654 
L 913.630883 220.796996 
L 922.930014 220.683667 
L 932.316053 220.457009 
L 941.789 220.343681 
L 950.914316 220.230352 
L 960.213448 220.003694 
L 969.86021 219.777036 
L 978.898618 219.550379 
L 988.19775 219.43705 
L 997.670696 219.323721 
L 1007.143643 219.097063 
L 1016.442775 218.983734 
L 1025.828814 218.757077 
L 1035.127945 218.530419 
L 1044.600892 218.303761 
L 1053.986932 218.077103 
L 1063.459878 217.963775 
L 1072.75901 217.737117 
L 1082.058141 217.623788 
L 1091.357273 217.623788 
" clip-path="url(#pc19ddff204)" style="fill: none; stroke: #d62728; stroke-width: 1.5; stroke-linecap: square"/>
   </g>
   <g id="line2d_29">
    <path d="M 95.315322 236.045455 
L 121.584031 236.045427 
L 148.575732 235.919509 
L 174.84444 235.618203 
L 201.595143 235.308042 
L 228.827841 234.992348 
L 256.060539 234.684402 
L 283.293237 234.377285 
L 311.248927 234.061037 
L 337.758633 233.765265 
L 365.232328 233.40995 
L 392.706023 233.069963 
L 419.697724 232.729977 
L 446.448427 232.503319 
L 473.19913 232.163333 
L 500.190831 231.823346 
L 526.45954 231.596688 
L 553.45124 231.256702 
L 580.924935 230.916715 
L 607.916636 230.576729 
L 635.631328 230.350071 
L 662.382032 230.010084 
L 689.373732 229.670098 
L 716.124435 229.44344 
L 742.634141 229.103453 
L 770.589831 228.763467 
L 797.340534 228.42348 
L 824.332235 228.196823 
L 851.564933 227.856836 
L 878.556633 227.516849 
L 905.548334 227.176863 
L 932.05804 226.950205 
L 958.085751 226.610219 
L 986.041441 226.270232 
L 1013.274139 226.043574 
L 1040.747834 225.703588 
L 1065.570559 225.47693 
L 1091.357273 225.47693 
" clip-path="url(#pc19ddff204)" style="fill: none; stroke: #9467bd; stroke-width: 1.5; stroke-linecap: square"/>
   </g>
   <g id="line2d_30">
    <path d="M 94.783968 236.045455 
L 106.89773 236.045427 
L 118.4707 235.90775 
L 130.151828 235.730591 
L 141.832957 235.543886 
L 153.189609 235.367335 
L 164.762579 235.186579 
L 176.443708 235.006016 
L 188.124836 234.824984 
L 199.697806 234.641129 
L 211.378934 234.351332 
L 222.627428 234.238003 
L 233.875922 234.011345 
L 245.016258 233.898017 
L 256.697386 233.671359 
L 268.270356 233.55803 
L 279.951484 233.331372 
L 291.632613 233.104715 
L 302.772948 232.991386 
L 314.345918 232.764728 
L 326.027046 232.651399 
L 337.27554 232.424741 
L 348.956669 232.311413 
L 360.637797 232.084755 
L 372.210767 231.858097 
L 383.891895 231.744768 
L 395.573024 231.518111 
L 406.929676 231.404782 
L 418.718963 231.178124 
L 430.400091 230.951466 
L 442.08122 230.838137 
L 453.221555 230.61148 
L 464.902684 230.498151 
L 476.367495 230.271493 
L 488.156782 230.158164 
L 499.729752 229.931507 
L 511.519039 229.818178 
L 523.416484 229.59152 
L 535.097613 229.364862 
L 546.778741 229.251533 
L 558.459869 229.024876 
L 570.140998 228.911547 
L 581.713968 228.684889 
L 593.178779 228.57156 
L 604.968066 228.344903 
L 616.324718 228.231574 
L 628.005847 228.004916 
L 639.578816 227.778258 
L 650.935469 227.664929 
L 662.616597 227.551601 
L 674.189567 227.324943 
L 685.654378 227.098285 
L 697.227348 226.984956 
L 708.908477 226.758299 
L 720.481446 226.64497 
L 732.162575 226.418312 
L 743.735545 226.304983 
L 755.416673 226.078325 
L 767.097801 225.964997 
L 778.77893 225.738339 
L 790.460058 225.511681 
L 802.357504 225.398352 
L 813.930474 225.171695 
L 825.611602 225.058366 
L 837.184572 224.831708 
L 848.649383 224.718379 
L 859.897877 224.491721 
L 871.470847 224.378393 
L 883.043816 224.151735 
L 894.724945 223.925077 
L 906.406073 223.811748 
L 917.979043 223.585091 
L 929.660171 223.471762 
L 941.3413 223.245104 
L 953.022428 223.131775 
L 964.270922 222.905118 
L 975.843892 222.791789 
L 987.200545 222.565131 
L 998.665356 222.451802 
L 1010.238326 222.225144 
L 1021.919454 222.111816 
L 1033.492424 221.885158 
L 1045.173552 221.6585 
L 1056.854681 221.545171 
L 1068.211333 221.318514 
L 1079.784303 221.205185 
L 1091.357273 221.091856 
" clip-path="url(#pc19ddff204)" style="fill: none; stroke: #8c564b; stroke-width: 1.5; stroke-linecap: square"/>
   </g>
   <g id="line2d_31"/>
   <g id="line2d_32"/>
   <g id="line2d_33"/>
   <g id="line2d_34"/>
   <g id="line2d_35"/>
   <g id="line2d_36"/>
   <g id="patch_3">
    <path d="M 44.66 246.04 
L 44.66 26.16 
" style="fill: none; stroke: #000000; stroke-width: 0.8; stroke-linejoin: miter; stroke-linecap: square"/>
   </g>
   <g id="patch_4">
    <path d="M 1141.2 246.04 
L 1141.2 26.16 
" style="fill: none; stroke: #000000; stroke-width: 0.8; stroke-linejoin: miter; stroke-linecap: square"/>
   </g>
   <g id="patch_5">
    <path d="M 44.66 246.04 
L 1141.2 246.04 
" style="fill: none; stroke: #000000; stroke-width: 0.8; stroke-linejoin: miter; stroke-linecap: square"/>
   </g>
   <g id="patch_6">
    <path d="M 44.66 26.16 
L 1141.2 26.16 
" style="fill: none; stroke: #000000; stroke-width: 0.8; stroke-linejoin: miter; stroke-linecap: square"/>
   </g>
   <g id="text_15">
    <!-- Disk Usage as a Function of Runtime -->
    <g transform="translate(483.067187 20.16) scale(0.12 -0.12)">
     <defs>
      <path id="DejaVuSans-46" d="M 628 4666 
L 3309 4666 
L 3309 4134 
L 1259 4134 
L 1259 2759 
L 3109 2759 
L 3109 2228 
L 1259 2228 
L 1259 0 
L 628 0 
L 628 4666 
z
" transform="scale(0.015625)"/>
     </defs>
     <use xlink:href="#DejaVuSans-44"/>
     <use xlink:href="#DejaVuSans-69" transform="translate(77.001953 0)"/>
     <use xlink:href="#DejaVuSans-73" transform="translate(104.785156 0)"/>
     <use xlink:href="#DejaVuSans-6b" transform="translate(156.884766 0)"/>
     <use xlink:href="#DejaVuSans-20" transform="translate(214.794922 0)"/>
     <use xlink:href="#DejaVuSans-55" transform="translate(246.582031 0)"/>
     <use xlink:href="#DejaVuSans-73" transform="translate(319.775391 0)"/>
     <use xlink:href="#DejaVuSans-61" transform="translate(371.875 0)"/>
     <use xlink:href="#DejaVuSans-67" transform="translate(433.154297 0)"/>
     <use xlink:href="#DejaVuSans-65" transform="translate(496.630859 0)"/>
     <use xlink:href="#DejaVuSans-20" transform="translate(558.154297 0)"/>
     <use xlink:href="#DejaVuSans-61" transform="translate(589.941406 0)"/>
     <use xlink:href="#DejaVuSans-73" transform="translate(651.220703 0)"/>
     <use xlink:href="#DejaVuSans-20" transform="translate(703.320312 0)"/>
     <use xlink:href="#DejaVuSans-61" transform="translate(735.107422 0)"/>
     <use xlink:href="#DejaVuSans-20" transform="translate(796.386719 0)"/>
     <use xlink:href="#DejaVuSans-46" transform="translate(828.173828 0)"/>
     <use xlink:href="#DejaVuSans-75" transform="translate(880.193359 0)"/>
     <use xlink:href="#DejaVuSans-6e" transform="translate(943.572266 0)"/>
     <use xlink:href="#DejaVuSans-63" transform="translate(1006.951172 0)"/>
     <use xlink:href="#DejaVuSans-74" transform="translate(1061.931641 0)"/>
     <use xlink:href="#DejaVuSans-69" transform="translate(1101.140625 0)"/>
     <use xlink:href="#DejaVuSans-6f" transform="translate(1128.923828 0)"/>
     <use xlink:href="#DejaVuSans-6e" transform="translate(1190.105469 0)"/>
     <use xlink:href="#DejaVuSans-20" transform="translate(1253.484375 0)"/>
     <use xlink:href="#DejaVuSans-6f" transform="translate(1285.271484 0)"/>
     <use xlink:href="#DejaVuSans-66" transform="translate(1346.453125 0)"/>
     <use xlink:href="#DejaVuSans-20" transform="translate(1381.658203 0)"/>
     <use xlink:href="#DejaVuSans-52" transform="translate(1413.445312 0)"/>
     <use xlink:href="#DejaVuSans-75" transform="translate(1478.427734 0)"/>
     <use xlink:href="#DejaVuSans-6e" transform="translate(1541.806641 0)"/>
     <use xlink:href="#DejaVuSans-74" transform="translate(1605.185547 0)"/>
     <use xlink:href="#DejaVuSans-69" transform="translate(1644.394531 0)"/>
     <use xlink:href="#DejaVuSans-6d" transform="translate(1672.177734 0)"/>
     <use xlink:href="#DejaVuSans-65" transform="translate(1769.589844 0)"/>
    </g>
   </g>
   <g id="legend_1">
    <g id="patch_7">
     <path d="M 51.66 122.22875 
L 228.206875 122.22875 
Q 230.206875 122.22875 230.206875 120.22875 
L 230.206875 33.16 
Q 230.206875 31.16 228.206875 31.16 
L 51.66 31.16 
Q 49.66 31.16 49.66 33.16 
L 49.66 120.22875 
Q 49.66 122.22875 51.66 122.22875 
z
" style="fill: #ffffff; opacity: 0.8; stroke: #cccccc; stroke-linejoin: miter"/>
    </g>
    <g id="line2d_37">
     <path d="M 53.66 39.258437 
L 63.66 39.258437 
L 73.66 39.258437 
" style="fill: none; stroke: #1f77b4; stroke-width: 1.5; stroke-linecap: square"/>
    </g>
    <g id="text_16">
     <!-- fasterq-dump-uncompressed -->
     <g transform="translate(81.66 42.758437) scale(0.1 -0.1)">
      <defs>
       <path id="DejaVuSans-71" d="M 947 1747 
Q 947 1113 1208 752 
Q 1469 391 1925 391 
Q 2381 391 2643 752 
Q 2906 1113 2906 1747 
Q 2906 2381 2643 2742 
Q 2381 3103 1925 3103 
Q 1469 3103 1208 2742 
Q 947 2381 947 1747 
z
M 2906 525 
Q 2725 213 2448 61 
Q 2172 -91 1784 -91 
Q 1150 -91 751 415 
Q 353 922 353 1747 
Q 353 2572 751 3078 
Q 1150 3584 1784 3584 
Q 2172 3584 2448 3432 
Q 2725 3281 2906 2969 
L 2906 3500 
L 3481 3500 
L 3481 -1331 
L 2906 -1331 
L 2906 525 
z
" transform="scale(0.015625)"/>
       <path id="DejaVuSans-2d" d="M 313 2009 
L 1997 2009 
L 1997 1497 
L 313 1497 
L 313 2009 
z
" transform="scale(0.015625)"/>
       <path id="DejaVuSans-64" d="M 2906 2969 
L 2906 4863 
L 3481 4863 
L 3481 0 
L 2906 0 
L 2906 525 
Q 2725 213 2448 61 
Q 2172 -91 1784 -91 
Q 1150 -91 751 415 
Q 353 922 353 1747 
Q 353 2572 751 3078 
Q 1150 3584 1784 3584 
Q 2172 3584 2448 3432 
Q 2725 3281 2906 2969 
z
M 947 1747 
Q 947 1113 1208 752 
Q 1469 391 1925 391 
Q 2381 391 2643 752 
Q 2906 1113 2906 1747 
Q 2906 2381 2643 2742 
Q 2381 3103 1925 3103 
Q 1469 3103 1208 2742 
Q 947 2381 947 1747 
z
" transform="scale(0.015625)"/>
       <path id="DejaVuSans-70" d="M 1159 525 
L 1159 -1331 
L 581 -1331 
L 581 3500 
L 1159 3500 
L 1159 2969 
Q 1341 3281 1617 3432 
Q 1894 3584 2278 3584 
Q 2916 3584 3314 3078 
Q 3713 2572 3713 1747 
Q 3713 922 3314 415 
Q 2916 -91 2278 -91 
Q 1894 -91 1617 61 
Q 1341 213 1159 525 
z
M 3116 1747 
Q 3116 2381 2855 2742 
Q 2594 3103 2138 3103 
Q 1681 3103 1420 2742 
Q 1159 2381 1159 1747 
Q 1159 1113 1420 752 
Q 1681 391 2138 391 
Q 2594 391 2855 752 
Q 3116 1113 3116 1747 
z
" transform="scale(0.015625)"/>
      </defs>
      <use xlink:href="#DejaVuSans-66"/>
      <use xlink:href="#DejaVuSans-61" transform="translate(35.205078 0)"/>
      <use xlink:href="#DejaVuSans-73" transform="translate(96.484375 0)"/>
      <use xlink:href="#DejaVuSans-74" transform="translate(148.583984 0)"/>
      <use xlink:href="#DejaVuSans-65" transform="translate(187.792969 0)"/>
      <use xlink:href="#DejaVuSans-72" transform="translate(249.316406 0)"/>
      <use xlink:href="#DejaVuSans-71" transform="translate(288.679688 0)"/>
      <use xlink:href="#DejaVuSans-2d" transform="translate(352.15625 0)"/>
      <use xlink:href="#DejaVuSans-64" transform="translate(388.240234 0)"/>
      <use xlink:href="#DejaVuSans-75" transform="translate(451.716797 0)"/>
      <use xlink:href="#DejaVuSans-6d" transform="translate(515.095703 0)"/>
      <use xlink:href="#DejaVuSans-70" transform="translate(612.507812 0)"/>
      <use xlink:href="#DejaVuSans-2d" transform="translate(675.984375 0)"/>
      <use xlink:href="#DejaVuSans-75" transform="translate(712.068359 0)"/>
      <use xlink:href="#DejaVuSans-6e" transform="translate(775.447266 0)"/>
      <use xlink:href="#DejaVuSans-63" transform="translate(838.826172 0)"/>
      <use xlink:href="#DejaVuSans-6f" transform="translate(893.806641 0)"/>
      <use xlink:href="#DejaVuSans-6d" transform="translate(954.988281 0)"/>
      <use xlink:href="#DejaVuSans-70" transform="translate(1052.400391 0)"/>
      <use xlink:href="#DejaVuSans-72" transform="translate(1115.876953 0)"/>
      <use xlink:href="#DejaVuSans-65" transform="translate(1154.740234 0)"/>
      <use xlink:href="#DejaVuSans-73" transform="translate(1216.263672 0)"/>
      <use xlink:href="#DejaVuSans-73" transform="translate(1268.363281 0)"/>
      <use xlink:href="#DejaVuSans-65" transform="translate(1320.462891 0)"/>
      <use xlink:href="#DejaVuSans-64" transform="translate(1381.986328 0)"/>
     </g>
    </g>
    <g id="line2d_38">
     <path d="M 53.66 53.936562 
L 63.66 53.936562 
L 73.66 53.936562 
" style="fill: none; stroke: #ff7f0e; stroke-width: 1.5; stroke-linecap: square"/>
    </g>
    <g id="text_17">
     <!-- xsra-dump-gzip -->
     <g transform="translate(81.66 57.436562) scale(0.1 -0.1)">
      <defs>
       <path id="DejaVuSans-78" d="M 3513 3500 
L 2247 1797 
L 3578 0 
L 2900 0 
L 1881 1375 
L 863 0 
L 184 0 
L 1544 1831 
L 300 3500 
L 978 3500 
L 1906 2253 
L 2834 3500 
L 3513 3500 
z
" transform="scale(0.015625)"/>
       <path id="DejaVuSans-7a" d="M 353 3500 
L 3084 3500 
L 3084 2975 
L 922 459 
L 3084 459 
L 3084 0 
L 275 0 
L 275 525 
L 2438 3041 
L 353 3041 
L 353 3500 
z
" transform="scale(0.015625)"/>
      </defs>
      <use xlink:href="#DejaVuSans-78"/>
      <use xlink:href="#DejaVuSans-73" transform="translate(59.179688 0)"/>
      <use xlink:href="#DejaVuSans-72" transform="translate(111.279297 0)"/>
      <use xlink:href="#DejaVuSans-61" transform="translate(152.392578 0)"/>
      <use xlink:href="#DejaVuSans-2d" transform="translate(213.671875 0)"/>
      <use xlink:href="#DejaVuSans-64" transform="translate(249.755859 0)"/>
      <use xlink:href="#DejaVuSans-75" transform="translate(313.232422 0)"/>
      <use xlink:href="#DejaVuSans-6d" transform="translate(376.611328 0)"/>
      <use xlink:href="#DejaVuSans-70" transform="translate(474.023438 0)"/>
      <use xlink:href="#DejaVuSans-2d" transform="translate(537.5 0)"/>
      <use xlink:href="#DejaVuSans-67" transform="translate(573.583984 0)"/>
      <use xlink:href="#DejaVuSans-7a" transform="translate(637.060547 0)"/>
      <use xlink:href="#DejaVuSans-69" transform="translate(689.550781 0)"/>
      <use xlink:href="#DejaVuSans-70" transform="translate(717.333984 0)"/>
     </g>
    </g>
    <g id="line2d_39">
     <path d="M 53.66 68.614687 
L 63.66 68.614687 
L 73.66 68.614687 
" style="fill: none; stroke: #2ca02c; stroke-width: 1.5; stroke-linecap: square"/>
    </g>
    <g id="text_18">
     <!-- xsra-dump-uncompressed -->
     <g transform="translate(81.66 72.114687) scale(0.1 -0.1)">
      <use xlink:href="#DejaVuSans-78"/>
      <use xlink:href="#DejaVuSans-73" transform="translate(59.179688 0)"/>
      <use xlink:href="#DejaVuSans-72" transform="translate(111.279297 0)"/>
      <use xlink:href="#DejaVuSans-61" transform="translate(152.392578 0)"/>
      <use xlink:href="#DejaVuSans-2d" transform="translate(213.671875 0)"/>
      <use xlink:href="#DejaVuSans-64" transform="translate(249.755859 0)"/>
      <use xlink:href="#DejaVuSans-75" transform="translate(313.232422 0)"/>
      <use xlink:href="#DejaVuSans-6d" transform="translate(376.611328 0)"/>
      <use xlink:href="#DejaVuSans-70" transform="translate(474.023438 0)"/>
      <use xlink:href="#DejaVuSans-2d" transform="translate(537.5 0)"/>
      <use xlink:href="#DejaVuSans-75" transform="translate(573.583984 0)"/>
      <use xlink:href="#DejaVuSans-6e" transform="translate(636.962891 0)"/>
      <use xlink:href="#DejaVuSans-63" transform="translate(700.341797 0)"/>
      <use xlink:href="#DejaVuSans-6f" transform="translate(755.322266 0)"/>
      <use xlink:href="#DejaVuSans-6d" transform="translate(816.503906 0)"/>
      <use xlink:href="#DejaVuSans-70" transform="translate(913.916016 0)"/>
      <use xlink:href="#DejaVuSans-72" transform="translate(977.392578 0)"/>
      <use xlink:href="#DejaVuSans-65" transform="translate(1016.255859 0)"/>
      <use xlink:href="#DejaVuSans-73" transform="translate(1077.779297 0)"/>
      <use xlink:href="#DejaVuSans-73" transform="translate(1129.878906 0)"/>
      <use xlink:href="#DejaVuSans-65" transform="translate(1181.978516 0)"/>
      <use xlink:href="#DejaVuSans-64" transform="translate(1243.501953 0)"/>
     </g>
    </g>
    <g id="line2d_40">
     <path d="M 53.66 83.292812 
L 63.66 83.292812 
L 73.66 83.292812 
" style="fill: none; stroke: #d62728; stroke-width: 1.5; stroke-linecap: square"/>
    </g>
    <g id="text_19">
     <!-- xsra-dump-zstd -->
     <g transform="translate(81.66 86.792812) scale(0.1 -0.1)">
      <use xlink:href="#DejaVuSans-78"/>
      <use xlink:href="#DejaVuSans-73" transform="translate(59.179688 0)"/>
      <use xlink:href="#DejaVuSans-72" transform="translate(111.279297 0)"/>
      <use xlink:href="#DejaVuSans-61" transform="translate(152.392578 0)"/>
      <use xlink:href="#DejaVuSans-2d" transform="translate(213.671875 0)"/>
      <use xlink:href="#DejaVuSans-64" transform="translate(249.755859 0)"/>
      <use xlink:href="#DejaVuSans-75" transform="translate(313.232422 0)"/>
      <use xlink:href="#DejaVuSans-6d" transform="translate(376.611328 0)"/>
      <use xlink:href="#DejaVuSans-70" transform="translate(474.023438 0)"/>
      <use xlink:href="#DejaVuSans-2d" transform="translate(537.5 0)"/>
      <use xlink:href="#DejaVuSans-7a" transform="translate(573.583984 0)"/>
      <use xlink:href="#DejaVuSans-73" transform="translate(626.074219 0)"/>
      <use xlink:href="#DejaVuSans-74" transform="translate(678.173828 0)"/>
      <use xlink:href="#DejaVuSans-64" transform="translate(717.382812 0)"/>
     </g>
    </g>
    <g id="line2d_41">
     <path d="M 53.66 97.970937 
L 63.66 97.970937 
L 73.66 97.970937 
" style="fill: none; stroke: #9467bd; stroke-width: 1.5; stroke-linecap: square"/>
    </g>
    <g id="text_20">
     <!-- xsra-recode-bq -->
     <g transform="translate(81.66 101.470937) scale(0.1 -0.1)">
      <defs>
       <path id="DejaVuSans-62" d="M 3116 1747 
Q 3116 2381 2855 2742 
Q 2594 3103 2138 3103 
Q 1681 3103 1420 2742 
Q 1159 2381 1159 1747 
Q 1159 1113 1420 752 
Q 1681 391 2138 391 
Q 2594 391 2855 752 
Q 3116 1113 3116 1747 
z
M 1159 2969 
Q 1341 3281 1617 3432 
Q 1894 3584 2278 3584 
Q 2916 3584 3314 3078 
Q 3713 2572 3713 1747 
Q 3713 922 3314 415 
Q 2916 -91 2278 -91 
Q 1894 -91 1617 61 
Q 1341 213 1159 525 
L 1159 0 
L 581 0 
L 581 4863 
L 1159 4863 
L 1159 2969 
z
" transform="scale(0.015625)"/>
      </defs>
      <use xlink:href="#DejaVuSans-78"/>
      <use xlink:href="#DejaVuSans-73" transform="translate(59.179688 0)"/>
      <use xlink:href="#DejaVuSans-72" transform="translate(111.279297 0)"/>
      <use xlink:href="#DejaVuSans-61" transform="translate(152.392578 0)"/>
      <use xlink:href="#DejaVuSans-2d" transform="translate(213.671875 0)"/>
      <use xlink:href="#DejaVuSans-72" transform="translate(249.755859 0)"/>
      <use xlink:href="#DejaVuSans-65" transform="translate(288.619141 0)"/>
      <use xlink:href="#DejaVuSans-63" transform="translate(350.142578 0)"/>
      <use xlink:href="#DejaVuSans-6f" transform="translate(405.123047 0)"/>
      <use xlink:href="#DejaVuSans-64" transform="translate(466.304688 0)"/>
      <use xlink:href="#DejaVuSans-65" transform="translate(529.78125 0)"/>
      <use xlink:href="#DejaVuSans-2d" transform="translate(591.304688 0)"/>
      <use xlink:href="#DejaVuSans-62" transform="translate(627.388672 0)"/>
      <use xlink:href="#DejaVuSans-71" transform="translate(690.865234 0)"/>
     </g>
    </g>
    <g id="line2d_42">
     <path d="M 53.66 112.649062 
L 63.66 112.649062 
L 73.66 112.649062 
" style="fill: none; stroke: #8c564b; stroke-width: 1.5; stroke-linecap: square"/>
    </g>
    <g id="text_21">
     <!-- xsra-recode-vbq -->
     <g transform="translate(81.66 116.149062) scale(0.1 -0.1)">
      <defs>
       <path id="DejaVuSans-76" d="M 191 3500 
L 800 3500 
L 1894 563 
L 2988 3500 
L 3597 3500 
L 2284 0 
L 1503 0 
L 191 3500 
z
" transform="scale(0.015625)"/>
      </defs>
      <use xlink:href="#DejaVuSans-78"/>
      <use xlink:href="#DejaVuSans-73" transform="translate(59.179688 0)"/>
      <use xlink:href="#DejaVuSans-72" transform="translate(111.279297 0)"/>
      <use xlink:href="#DejaVuSans-61" transform="translate(152.392578 0)"/>
      <use xlink:href="#DejaVuSans-2d" transform="translate(213.671875 0)"/>
      <use xlink:href="#DejaVuSans-72" transform="translate(249.755859 0)"/>
      <use xlink:href="#DejaVuSans-65" transform="translate(288.619141 0)"/>
      <use xlink:href="#DejaVuSans-63" transform="translate(350.142578 0)"/>
      <use xlink:href="#DejaVuSans-6f" transform="translate(405.123047 0)"/>
      <use xlink:href="#DejaVuSans-64" transform="translate(466.304688 0)"/>
      <use xlink:href="#DejaVuSans-65" transform="translate(529.78125 0)"/>
      <use xlink:href="#DejaVuSans-2d" transform="translate(591.304688 0)"/>
      <use xlink:href="#DejaVuSans-76" transform="translate(624.763672 0)"/>
      <use xlink:href="#DejaVuSans-62" transform="translate(683.943359 0)"/>
      <use xlink:href="#DejaVuSans-71" transform="translate(747.419922 0)"/>
     </g>
    </g>
   </g>
  </g>
 </g>
 <defs>
  <clipPath id="pc19ddff204">
   <rect x="44.66" y="26.16" width="1096.54" height="219.88"/>
  </clipPath>
 </defs>
</svg>
