<?xml version="1.0" encoding="utf-8" standalone="no"?>
<!DOCTYPE svg PUBLIC "-//W3C//DTD SVG 1.1//EN"
  "http://www.w3.org/Graphics/SVG/1.1/DTD/svg11.dtd">
<svg xmlns:xlink="http://www.w3.org/1999/xlink" width="720pt" height="288pt" viewBox="0 0 720 288" xmlns="http://www.w3.org/2000/svg" version="1.1">
 <metadata>
  <rdf:RDF xmlns:dc="http://purl.org/dc/elements/1.1/" xmlns:cc="http://creativecommons.org/ns#" xmlns:rdf="http://www.w3.org/1999/02/22-rdf-syntax-ns#">
   <cc:Work>
    <dc:type rdf:resource="http://purl.org/dc/dcmitype/StillImage"/>
    <dc:date>2025-04-29T13:48:12.780219</dc:date>
    <dc:format>image/svg+xml</dc:format>
    <dc:creator>
     <cc:Agent>
      <dc:title>Matplotlib v3.10.0, https://matplotlib.org/</dc:title>
     </cc:Agent>
    </dc:creator>
   </cc:Work>
  </rdf:RDF>
 </metadata>
 <defs>
  <style type="text/css">*{stroke-linejoin: round; stroke-linecap: butt}</style>
 </defs>
 <g id="figure_1">
  <g id="patch_1">
   <path d="M 0 288 
L 720 288 
L 720 0 
L 0 0 
z
" style="fill: #ffffff"/>
  </g>
  <g id="axes_1">
   <g id="patch_2">
    <path d="M 179.48 247 
L 709.2 247 
L 709.2 25.92 
L 179.48 25.92 
z
" style="fill: #ffffff"/>
   </g>
   <g id="patch_3">
    <path d="M 179.48 27.992625 
L 198.927844 27.992625 
L 198.927844 51.482375 
L 179.48 51.482375 
z
" clip-path="url(#p3d5d126e64)" style="fill: #808080"/>
   </g>
   <g id="patch_4">
    <path d="M 179.48 55.627625 
L 237.233957 55.627625 
L 237.233957 79.117375 
L 179.48 79.117375 
z
" clip-path="url(#p3d5d126e64)"/>
   </g>
   <g id="patch_5">
    <path d="M 179.48 83.262625 
L 266.899069 83.262625 
L 266.899069 106.752375 
L 179.48 106.752375 
z
" clip-path="url(#p3d5d126e64)" style="fill: #107010"/>
   </g>
   <g id="patch_6">
    <path d="M 179.48 110.897625 
L 268.004079 110.897625 
L 268.004079 134.387375 
L 179.48 134.387375 
z
" clip-path="url(#p3d5d126e64)" style="fill: #107010"/>
   </g>
   <g id="patch_7">
    <path d="M 179.48 138.532625 
L 343.639433 138.532625 
L 343.639433 162.022375 
L 179.48 162.022375 
z
" clip-path="url(#p3d5d126e64)" style="fill: #107010"/>
   </g>
   <g id="patch_8">
    <path d="M 179.48 193.802625 
L 510.064155 193.802625 
L 510.064155 217.292375 
L 179.48 217.292375 
z
" clip-path="url(#p3d5d126e64)" style="fill: #107010"/>
   </g>
   <g id="patch_9">
    <path d="M 179.48 166.167625 
L 390.275114 166.167625 
L 390.275114 189.657375 
L 179.48 189.657375 
z
" clip-path="url(#p3d5d126e64)" style="fill: #701070"/>
   </g>
   <g id="patch_10">
    <path d="M 179.48 221.437625 
L 683.975238 221.437625 
L 683.975238 244.927375 
L 179.48 244.927375 
z
" clip-path="url(#p3d5d126e64)" style="fill: #701070"/>
   </g>
   <g id="patch_11">
    <path d="M 179.48 39.7375 
L 179.48 39.7375 
L 179.48 39.7375 
L 179.48 39.7375 
z
" clip-path="url(#p3d5d126e64)" style="fill: #808080"/>
   </g>
   <g id="patch_12">
    <path d="M 179.48 39.7375 
L 179.48 39.7375 
L 179.48 39.7375 
L 179.48 39.7375 
z
" clip-path="url(#p3d5d126e64)"/>
   </g>
   <g id="patch_13">
    <path d="M 179.48 39.7375 
L 179.48 39.7375 
L 179.48 39.7375 
L 179.48 39.7375 
z
" clip-path="url(#p3d5d126e64)" style="fill: #107010"/>
   </g>
   <g id="patch_14">
    <path d="M 179.48 39.7375 
L 179.48 39.7375 
L 179.48 39.7375 
L 179.48 39.7375 
z
" clip-path="url(#p3d5d126e64)" style="fill: #701070"/>
   </g>
   <g id="matplotlib.axis_1">
    <g id="xtick_1">
     <g id="line2d_1">
      <path d="M 179.48 247 
L 179.48 25.92 
" clip-path="url(#p3d5d126e64)" style="fill: none; stroke: #000000; stroke-opacity: 0.2; stroke-width: 0.8; stroke-linecap: square"/>
     </g>
     <g id="line2d_2">
      <defs>
       <path id="m849b714be5" d="M 0 0 
L 0 3.5 
" style="stroke: #000000; stroke-width: 0.8"/>
      </defs>
      <g>
       <use xlink:href="#m849b714be5" x="179.48" y="247" style="stroke: #000000; stroke-width: 0.8"/>
      </g>
     </g>
     <g id="text_1">
      <!-- 0 -->
      <g transform="translate(176.29875 261.598437) scale(0.1 -0.1)">
       <defs>
        <path id="DejaVuSans-30" d="M 2034 4250 
Q 1547 4250 1301 3770 
Q 1056 3291 1056 2328 
Q 1056 1369 1301 889 
Q 1547 409 2034 409 
Q 2525 409 2770 889 
Q 3016 1369 3016 2328 
Q 3016 3291 2770 3770 
Q 2525 4250 2034 4250 
z
M 2034 4750 
Q 2819 4750 3233 4129 
Q 3647 3509 3647 2328 
Q 3647 1150 3233 529 
Q 2819 -91 2034 -91 
Q 1250 -91 836 529 
Q 422 1150 422 2328 
Q 422 3509 836 4129 
Q 1250 4750 2034 4750 
z
" transform="scale(0.015625)"/>
       </defs>
       <use xlink:href="#DejaVuSans-30"/>
      </g>
     </g>
    </g>
    <g id="xtick_2">
     <g id="line2d_3">
      <path d="M 272.82451 247 
L 272.82451 25.92 
" clip-path="url(#p3d5d126e64)" style="fill: none; stroke: #000000; stroke-opacity: 0.2; stroke-width: 0.8; stroke-linecap: square"/>
     </g>
     <g id="line2d_4">
      <g>
       <use xlink:href="#m849b714be5" x="272.82451" y="247" style="stroke: #000000; stroke-width: 0.8"/>
      </g>
     </g>
     <g id="text_2">
      <!-- 100 -->
      <g transform="translate(263.28076 261.598437) scale(0.1 -0.1)">
       <defs>
        <path id="DejaVuSans-31" d="M 794 531 
L 1825 531 
L 1825 4091 
L 703 3866 
L 703 4441 
L 1819 4666 
L 2450 4666 
L 2450 531 
L 3481 531 
L 3481 0 
L 794 0 
L 794 531 
z
" transform="scale(0.015625)"/>
       </defs>
       <use xlink:href="#DejaVuSans-31"/>
       <use xlink:href="#DejaVuSans-30" transform="translate(63.623047 0)"/>
       <use xlink:href="#DejaVuSans-30" transform="translate(127.246094 0)"/>
      </g>
     </g>
    </g>
    <g id="xtick_3">
     <g id="line2d_5">
      <path d="M 366.169021 247 
L 366.169021 25.92 
" clip-path="url(#p3d5d126e64)" style="fill: none; stroke: #000000; stroke-opacity: 0.2; stroke-width: 0.8; stroke-linecap: square"/>
     </g>
     <g id="line2d_6">
      <g>
       <use xlink:href="#m849b714be5" x="366.169021" y="247" style="stroke: #000000; stroke-width: 0.8"/>
      </g>
     </g>
     <g id="text_3">
      <!-- 200 -->
      <g transform="translate(356.625271 261.598437) scale(0.1 -0.1)">
       <defs>
        <path id="DejaVuSans-32" d="M 1228 531 
L 3431 531 
L 3431 0 
L 469 0 
L 469 531 
Q 828 903 1448 1529 
Q 2069 2156 2228 2338 
Q 2531 2678 2651 2914 
Q 2772 3150 2772 3378 
Q 2772 3750 2511 3984 
Q 2250 4219 1831 4219 
Q 1534 4219 1204 4116 
Q 875 4013 500 3803 
L 500 4441 
Q 881 4594 1212 4672 
Q 1544 4750 1819 4750 
Q 2544 4750 2975 4387 
Q 3406 4025 3406 3419 
Q 3406 3131 3298 2873 
Q 3191 2616 2906 2266 
Q 2828 2175 2409 1742 
Q 1991 1309 1228 531 
z
" transform="scale(0.015625)"/>
       </defs>
       <use xlink:href="#DejaVuSans-32"/>
       <use xlink:href="#DejaVuSans-30" transform="translate(63.623047 0)"/>
       <use xlink:href="#DejaVuSans-30" transform="translate(127.246094 0)"/>
      </g>
     </g>
    </g>
    <g id="xtick_4">
     <g id="line2d_7">
      <path d="M 459.513531 247 
L 459.513531 25.92 
" clip-path="url(#p3d5d126e64)" style="fill: none; stroke: #000000; stroke-opacity: 0.2; stroke-width: 0.8; stroke-linecap: square"/>
     </g>
     <g id="line2d_8">
      <g>
       <use xlink:href="#m849b714be5" x="459.513531" y="247" style="stroke: #000000; stroke-width: 0.8"/>
      </g>
     </g>
     <g id="text_4">
      <!-- 300 -->
      <g transform="translate(449.969781 261.598437) scale(0.1 -0.1)">
       <defs>
        <path id="DejaVuSans-33" d="M 2597 2516 
Q 3050 2419 3304 2112 
Q 3559 1806 3559 1356 
Q 3559 666 3084 287 
Q 2609 -91 1734 -91 
Q 1441 -91 1130 -33 
Q 819 25 488 141 
L 488 750 
Q 750 597 1062 519 
Q 1375 441 1716 441 
Q 2309 441 2620 675 
Q 2931 909 2931 1356 
Q 2931 1769 2642 2001 
Q 2353 2234 1838 2234 
L 1294 2234 
L 1294 2753 
L 1863 2753 
Q 2328 2753 2575 2939 
Q 2822 3125 2822 3475 
Q 2822 3834 2567 4026 
Q 2313 4219 1838 4219 
Q 1578 4219 1281 4162 
Q 984 4106 628 3988 
L 628 4550 
Q 988 4650 1302 4700 
Q 1616 4750 1894 4750 
Q 2613 4750 3031 4423 
Q 3450 4097 3450 3541 
Q 3450 3153 3228 2886 
Q 3006 2619 2597 2516 
z
" transform="scale(0.015625)"/>
       </defs>
       <use xlink:href="#DejaVuSans-33"/>
       <use xlink:href="#DejaVuSans-30" transform="translate(63.623047 0)"/>
       <use xlink:href="#DejaVuSans-30" transform="translate(127.246094 0)"/>
      </g>
     </g>
    </g>
    <g id="xtick_5">
     <g id="line2d_9">
      <path d="M 552.858042 247 
L 552.858042 25.92 
" clip-path="url(#p3d5d126e64)" style="fill: none; stroke: #000000; stroke-opacity: 0.2; stroke-width: 0.8; stroke-linecap: square"/>
     </g>
     <g id="line2d_10">
      <g>
       <use xlink:href="#m849b714be5" x="552.858042" y="247" style="stroke: #000000; stroke-width: 0.8"/>
      </g>
     </g>
     <g id="text_5">
      <!-- 400 -->
      <g transform="translate(543.314292 261.598437) scale(0.1 -0.1)">
       <defs>
        <path id="DejaVuSans-34" d="M 2419 4116 
L 825 1625 
L 2419 1625 
L 2419 4116 
z
M 2253 4666 
L 3047 4666 
L 3047 1625 
L 3713 1625 
L 3713 1100 
L 3047 1100 
L 3047 0 
L 2419 0 
L 2419 1100 
L 313 1100 
L 313 1709 
L 2253 4666 
z
" transform="scale(0.015625)"/>
       </defs>
       <use xlink:href="#DejaVuSans-34"/>
       <use xlink:href="#DejaVuSans-30" transform="translate(63.623047 0)"/>
       <use xlink:href="#DejaVuSans-30" transform="translate(127.246094 0)"/>
      </g>
     </g>
    </g>
    <g id="xtick_6">
     <g id="line2d_11">
      <path d="M 646.202552 247 
L 646.202552 25.92 
" clip-path="url(#p3d5d126e64)" style="fill: none; stroke: #000000; stroke-opacity: 0.2; stroke-width: 0.8; stroke-linecap: square"/>
     </g>
     <g id="line2d_12">
      <g>
       <use xlink:href="#m849b714be5" x="646.202552" y="247" style="stroke: #000000; stroke-width: 0.8"/>
      </g>
     </g>
     <g id="text_6">
      <!-- 500 -->
      <g transform="translate(636.658802 261.598437) scale(0.1 -0.1)">
       <defs>
        <path id="DejaVuSans-35" d="M 691 4666 
L 3169 4666 
L 3169 4134 
L 1269 4134 
L 1269 2991 
Q 1406 3038 1543 3061 
Q 1681 3084 1819 3084 
Q 2600 3084 3056 2656 
Q 3513 2228 3513 1497 
Q 3513 744 3044 326 
Q 2575 -91 1722 -91 
Q 1428 -91 1123 -41 
Q 819 9 494 109 
L 494 744 
Q 775 591 1075 516 
Q 1375 441 1709 441 
Q 2250 441 2565 725 
Q 2881 1009 2881 1497 
Q 2881 1984 2565 2268 
Q 2250 2553 1709 2553 
Q 1456 2553 1204 2497 
Q 953 2441 691 2322 
L 691 4666 
z
" transform="scale(0.015625)"/>
       </defs>
       <use xlink:href="#DejaVuSans-35"/>
       <use xlink:href="#DejaVuSans-30" transform="translate(63.623047 0)"/>
       <use xlink:href="#DejaVuSans-30" transform="translate(127.246094 0)"/>
      </g>
     </g>
    </g>
    <g id="text_7">
     <!-- Extraction Throughput :: MB/s -->
     <g transform="translate(369.605625 275.276563) scale(0.1 -0.1)">
      <defs>
       <path id="DejaVuSans-45" d="M 628 4666 
L 3578 4666 
L 3578 4134 
L 1259 4134 
L 1259 2753 
L 3481 2753 
L 3481 2222 
L 1259 2222 
L 1259 531 
L 3634 531 
L 3634 0 
L 628 0 
L 628 4666 
z
" transform="scale(0.015625)"/>
       <path id="DejaVuSans-78" d="M 3513 3500 
L 2247 1797 
L 3578 0 
L 2900 0 
L 1881 1375 
L 863 0 
L 184 0 
L 1544 1831 
L 300 3500 
L 978 3500 
L 1906 2253 
L 2834 3500 
L 3513 3500 
z
" transform="scale(0.015625)"/>
       <path id="DejaVuSans-74" d="M 1172 4494 
L 1172 3500 
L 2356 3500 
L 2356 3053 
L 1172 3053 
L 1172 1153 
Q 1172 725 1289 603 
Q 1406 481 1766 481 
L 2356 481 
L 2356 0 
L 1766 0 
Q 1100 0 847 248 
Q 594 497 594 1153 
L 594 3053 
L 172 3053 
L 172 3500 
L 594 3500 
L 594 4494 
L 1172 4494 
z
" transform="scale(0.015625)"/>
       <path id="DejaVuSans-72" d="M 2631 2963 
Q 2534 3019 2420 3045 
Q 2306 3072 2169 3072 
Q 1681 3072 1420 2755 
Q 1159 2438 1159 1844 
L 1159 0 
L 581 0 
L 581 3500 
L 1159 3500 
L 1159 2956 
Q 1341 3275 1631 3429 
Q 1922 3584 2338 3584 
Q 2397 3584 2469 3576 
Q 2541 3569 2628 3553 
L 2631 2963 
z
" transform="scale(0.015625)"/>
       <path id="DejaVuSans-61" d="M 2194 1759 
Q 1497 1759 1228 1600 
Q 959 1441 959 1056 
Q 959 750 1161 570 
Q 1363 391 1709 391 
Q 2188 391 2477 730 
Q 2766 1069 2766 1631 
L 2766 1759 
L 2194 1759 
z
M 3341 1997 
L 3341 0 
L 2766 0 
L 2766 531 
Q 2569 213 2275 61 
Q 1981 -91 1556 -91 
Q 1019 -91 701 211 
Q 384 513 384 1019 
Q 384 1609 779 1909 
Q 1175 2209 1959 2209 
L 2766 2209 
L 2766 2266 
Q 2766 2663 2505 2880 
Q 2244 3097 1772 3097 
Q 1472 3097 1187 3025 
Q 903 2953 641 2809 
L 641 3341 
Q 956 3463 1253 3523 
Q 1550 3584 1831 3584 
Q 2591 3584 2966 3190 
Q 3341 2797 3341 1997 
z
" transform="scale(0.015625)"/>
       <path id="DejaVuSans-63" d="M 3122 3366 
L 3122 2828 
Q 2878 2963 2633 3030 
Q 2388 3097 2138 3097 
Q 1578 3097 1268 2742 
Q 959 2388 959 1747 
Q 959 1106 1268 751 
Q 1578 397 2138 397 
Q 2388 397 2633 464 
Q 2878 531 3122 666 
L 3122 134 
Q 2881 22 2623 -34 
Q 2366 -91 2075 -91 
Q 1284 -91 818 406 
Q 353 903 353 1747 
Q 353 2603 823 3093 
Q 1294 3584 2113 3584 
Q 2378 3584 2631 3529 
Q 2884 3475 3122 3366 
z
" transform="scale(0.015625)"/>
       <path id="DejaVuSans-69" d="M 603 3500 
L 1178 3500 
L 1178 0 
L 603 0 
L 603 3500 
z
M 603 4863 
L 1178 4863 
L 1178 4134 
L 603 4134 
L 603 4863 
z
" transform="scale(0.015625)"/>
       <path id="DejaVuSans-6f" d="M 1959 3097 
Q 1497 3097 1228 2736 
Q 959 2375 959 1747 
Q 959 1119 1226 758 
Q 1494 397 1959 397 
Q 2419 397 2687 759 
Q 2956 1122 2956 1747 
Q 2956 2369 2687 2733 
Q 2419 3097 1959 3097 
z
M 1959 3584 
Q 2709 3584 3137 3096 
Q 3566 2609 3566 1747 
Q 3566 888 3137 398 
Q 2709 -91 1959 -91 
Q 1206 -91 779 398 
Q 353 888 353 1747 
Q 353 2609 779 3096 
Q 1206 3584 1959 3584 
z
" transform="scale(0.015625)"/>
       <path id="DejaVuSans-6e" d="M 3513 2113 
L 3513 0 
L 2938 0 
L 2938 2094 
Q 2938 2591 2744 2837 
Q 2550 3084 2163 3084 
Q 1697 3084 1428 2787 
Q 1159 2491 1159 1978 
L 1159 0 
L 581 0 
L 581 3500 
L 1159 3500 
L 1159 2956 
Q 1366 3272 1645 3428 
Q 1925 3584 2291 3584 
Q 2894 3584 3203 3211 
Q 3513 2838 3513 2113 
z
" transform="scale(0.015625)"/>
       <path id="DejaVuSans-20" transform="scale(0.015625)"/>
       <path id="DejaVuSans-54" d="M -19 4666 
L 3928 4666 
L 3928 4134 
L 2272 4134 
L 2272 0 
L 1638 0 
L 1638 4134 
L -19 4134 
L -19 4666 
z
" transform="scale(0.015625)"/>
       <path id="DejaVuSans-68" d="M 3513 2113 
L 3513 0 
L 2938 0 
L 2938 2094 
Q 2938 2591 2744 2837 
Q 2550 3084 2163 3084 
Q 1697 3084 1428 2787 
Q 1159 2491 1159 1978 
L 1159 0 
L 581 0 
L 581 4863 
L 1159 4863 
L 1159 2956 
Q 1366 3272 1645 3428 
Q 1925 3584 2291 3584 
Q 2894 3584 3203 3211 
Q 3513 2838 3513 2113 
z
" transform="scale(0.015625)"/>
       <path id="DejaVuSans-75" d="M 544 1381 
L 544 3500 
L 1119 3500 
L 1119 1403 
Q 1119 906 1312 657 
Q 1506 409 1894 409 
Q 2359 409 2629 706 
Q 2900 1003 2900 1516 
L 2900 3500 
L 3475 3500 
L 3475 0 
L 2900 0 
L 2900 538 
Q 2691 219 2414 64 
Q 2138 -91 1772 -91 
Q 1169 -91 856 284 
Q 544 659 544 1381 
z
M 1991 3584 
L 1991 3584 
z
" transform="scale(0.015625)"/>
       <path id="DejaVuSans-67" d="M 2906 1791 
Q 2906 2416 2648 2759 
Q 2391 3103 1925 3103 
Q 1463 3103 1205 2759 
Q 947 2416 947 1791 
Q 947 1169 1205 825 
Q 1463 481 1925 481 
Q 2391 481 2648 825 
Q 2906 1169 2906 1791 
z
M 3481 434 
Q 3481 -459 3084 -895 
Q 2688 -1331 1869 -1331 
Q 1566 -1331 1297 -1286 
Q 1028 -1241 775 -1147 
L 775 -588 
Q 1028 -725 1275 -790 
Q 1522 -856 1778 -856 
Q 2344 -856 2625 -561 
Q 2906 -266 2906 331 
L 2906 616 
Q 2728 306 2450 153 
Q 2172 0 1784 0 
Q 1141 0 747 490 
Q 353 981 353 1791 
Q 353 2603 747 3093 
Q 1141 3584 1784 3584 
Q 2172 3584 2450 3431 
Q 2728 3278 2906 2969 
L 2906 3500 
L 3481 3500 
L 3481 434 
z
" transform="scale(0.015625)"/>
       <path id="DejaVuSans-70" d="M 1159 525 
L 1159 -1331 
L 581 -1331 
L 581 3500 
L 1159 3500 
L 1159 2969 
Q 1341 3281 1617 3432 
Q 1894 3584 2278 3584 
Q 2916 3584 3314 3078 
Q 3713 2572 3713 1747 
Q 3713 922 3314 415 
Q 2916 -91 2278 -91 
Q 1894 -91 1617 61 
Q 1341 213 1159 525 
z
M 3116 1747 
Q 3116 2381 2855 2742 
Q 2594 3103 2138 3103 
Q 1681 3103 1420 2742 
Q 1159 2381 1159 1747 
Q 1159 1113 1420 752 
Q 1681 391 2138 391 
Q 2594 391 2855 752 
Q 3116 1113 3116 1747 
z
" transform="scale(0.015625)"/>
       <path id="DejaVuSans-3a" d="M 750 794 
L 1409 794 
L 1409 0 
L 750 0 
L 750 794 
z
M 750 3309 
L 1409 3309 
L 1409 2516 
L 750 2516 
L 750 3309 
z
" transform="scale(0.015625)"/>
       <path id="DejaVuSans-4d" d="M 628 4666 
L 1569 4666 
L 2759 1491 
L 3956 4666 
L 4897 4666 
L 4897 0 
L 4281 0 
L 4281 4097 
L 3078 897 
L 2444 897 
L 1241 4097 
L 1241 0 
L 628 0 
L 628 4666 
z
" transform="scale(0.015625)"/>
       <path id="DejaVuSans-42" d="M 1259 2228 
L 1259 519 
L 2272 519 
Q 2781 519 3026 730 
Q 3272 941 3272 1375 
Q 3272 1813 3026 2020 
Q 2781 2228 2272 2228 
L 1259 2228 
z
M 1259 4147 
L 1259 2741 
L 2194 2741 
Q 2656 2741 2882 2914 
Q 3109 3088 3109 3444 
Q 3109 3797 2882 3972 
Q 2656 4147 2194 4147 
L 1259 4147 
z
M 628 4666 
L 2241 4666 
Q 2963 4666 3353 4366 
Q 3744 4066 3744 3513 
Q 3744 3084 3544 2831 
Q 3344 2578 2956 2516 
Q 3422 2416 3680 2098 
Q 3938 1781 3938 1306 
Q 3938 681 3513 340 
Q 3088 0 2303 0 
L 628 0 
L 628 4666 
z
" transform="scale(0.015625)"/>
       <path id="DejaVuSans-2f" d="M 1625 4666 
L 2156 4666 
L 531 -594 
L 0 -594 
L 1625 4666 
z
" transform="scale(0.015625)"/>
       <path id="DejaVuSans-73" d="M 2834 3397 
L 2834 2853 
Q 2591 2978 2328 3040 
Q 2066 3103 1784 3103 
Q 1356 3103 1142 2972 
Q 928 2841 928 2578 
Q 928 2378 1081 2264 
Q 1234 2150 1697 2047 
L 1894 2003 
Q 2506 1872 2764 1633 
Q 3022 1394 3022 966 
Q 3022 478 2636 193 
Q 2250 -91 1575 -91 
Q 1294 -91 989 -36 
Q 684 19 347 128 
L 347 722 
Q 666 556 975 473 
Q 1284 391 1588 391 
Q 1994 391 2212 530 
Q 2431 669 2431 922 
Q 2431 1156 2273 1281 
Q 2116 1406 1581 1522 
L 1381 1569 
Q 847 1681 609 1914 
Q 372 2147 372 2553 
Q 372 3047 722 3315 
Q 1072 3584 1716 3584 
Q 2034 3584 2315 3537 
Q 2597 3491 2834 3397 
z
" transform="scale(0.015625)"/>
      </defs>
      <use xlink:href="#DejaVuSans-45"/>
      <use xlink:href="#DejaVuSans-78" transform="translate(63.183594 0)"/>
      <use xlink:href="#DejaVuSans-74" transform="translate(122.363281 0)"/>
      <use xlink:href="#DejaVuSans-72" transform="translate(161.572266 0)"/>
      <use xlink:href="#DejaVuSans-61" transform="translate(202.685547 0)"/>
      <use xlink:href="#DejaVuSans-63" transform="translate(263.964844 0)"/>
      <use xlink:href="#DejaVuSans-74" transform="translate(318.945312 0)"/>
      <use xlink:href="#DejaVuSans-69" transform="translate(358.154297 0)"/>
      <use xlink:href="#DejaVuSans-6f" transform="translate(385.9375 0)"/>
      <use xlink:href="#DejaVuSans-6e" transform="translate(447.119141 0)"/>
      <use xlink:href="#DejaVuSans-20" transform="translate(510.498047 0)"/>
      <use xlink:href="#DejaVuSans-54" transform="translate(542.285156 0)"/>
      <use xlink:href="#DejaVuSans-68" transform="translate(603.369141 0)"/>
      <use xlink:href="#DejaVuSans-72" transform="translate(666.748047 0)"/>
      <use xlink:href="#DejaVuSans-6f" transform="translate(705.611328 0)"/>
      <use xlink:href="#DejaVuSans-75" transform="translate(766.792969 0)"/>
      <use xlink:href="#DejaVuSans-67" transform="translate(830.171875 0)"/>
      <use xlink:href="#DejaVuSans-68" transform="translate(893.648438 0)"/>
      <use xlink:href="#DejaVuSans-70" transform="translate(957.027344 0)"/>
      <use xlink:href="#DejaVuSans-75" transform="translate(1020.503906 0)"/>
      <use xlink:href="#DejaVuSans-74" transform="translate(1083.882812 0)"/>
      <use xlink:href="#DejaVuSans-20" transform="translate(1123.091797 0)"/>
      <use xlink:href="#DejaVuSans-3a" transform="translate(1154.878906 0)"/>
      <use xlink:href="#DejaVuSans-3a" transform="translate(1188.570312 0)"/>
      <use xlink:href="#DejaVuSans-20" transform="translate(1222.261719 0)"/>
      <use xlink:href="#DejaVuSans-4d" transform="translate(1254.048828 0)"/>
      <use xlink:href="#DejaVuSans-42" transform="translate(1340.328125 0)"/>
      <use xlink:href="#DejaVuSans-2f" transform="translate(1408.931641 0)"/>
      <use xlink:href="#DejaVuSans-73" transform="translate(1442.623047 0)"/>
     </g>
    </g>
   </g>
   <g id="matplotlib.axis_2">
    <g id="ytick_1">
     <g id="line2d_13">
      <defs>
       <path id="m733fa23ccf" d="M 0 0 
L -3.5 0 
" style="stroke: #000000; stroke-width: 0.8"/>
      </defs>
      <g>
       <use xlink:href="#m733fa23ccf" x="179.48" y="39.7375" style="stroke: #000000; stroke-width: 0.8"/>
      </g>
     </g>
     <g id="text_8">
      <!-- ** fastq-dump-uncompressed -->
      <g transform="translate(24.844063 43.536719) scale(0.1 -0.1)">
       <defs>
        <path id="DejaVuSans-2a" d="M 3009 3897 
L 1888 3291 
L 3009 2681 
L 2828 2375 
L 1778 3009 
L 1778 1831 
L 1422 1831 
L 1422 3009 
L 372 2375 
L 191 2681 
L 1313 3291 
L 191 3897 
L 372 4206 
L 1422 3572 
L 1422 4750 
L 1778 4750 
L 1778 3572 
L 2828 4206 
L 3009 3897 
z
" transform="scale(0.015625)"/>
        <path id="DejaVuSans-66" d="M 2375 4863 
L 2375 4384 
L 1825 4384 
Q 1516 4384 1395 4259 
Q 1275 4134 1275 3809 
L 1275 3500 
L 2222 3500 
L 2222 3053 
L 1275 3053 
L 1275 0 
L 697 0 
L 697 3053 
L 147 3053 
L 147 3500 
L 697 3500 
L 697 3744 
Q 697 4328 969 4595 
Q 1241 4863 1831 4863 
L 2375 4863 
z
" transform="scale(0.015625)"/>
        <path id="DejaVuSans-71" d="M 947 1747 
Q 947 1113 1208 752 
Q 1469 391 1925 391 
Q 2381 391 2643 752 
Q 2906 1113 2906 1747 
Q 2906 2381 2643 2742 
Q 2381 3103 1925 3103 
Q 1469 3103 1208 2742 
Q 947 2381 947 1747 
z
M 2906 525 
Q 2725 213 2448 61 
Q 2172 -91 1784 -91 
Q 1150 -91 751 415 
Q 353 922 353 1747 
Q 353 2572 751 3078 
Q 1150 3584 1784 3584 
Q 2172 3584 2448 3432 
Q 2725 3281 2906 2969 
L 2906 3500 
L 3481 3500 
L 3481 -1331 
L 2906 -1331 
L 2906 525 
z
" transform="scale(0.015625)"/>
        <path id="DejaVuSans-2d" d="M 313 2009 
L 1997 2009 
L 1997 1497 
L 313 1497 
L 313 2009 
z
" transform="scale(0.015625)"/>
        <path id="DejaVuSans-64" d="M 2906 2969 
L 2906 4863 
L 3481 4863 
L 3481 0 
L 2906 0 
L 2906 525 
Q 2725 213 2448 61 
Q 2172 -91 1784 -91 
Q 1150 -91 751 415 
Q 353 922 353 1747 
Q 353 2572 751 3078 
Q 1150 3584 1784 3584 
Q 2172 3584 2448 3432 
Q 2725 3281 2906 2969 
z
M 947 1747 
Q 947 1113 1208 752 
Q 1469 391 1925 391 
Q 2381 391 2643 752 
Q 2906 1113 2906 1747 
Q 2906 2381 2643 2742 
Q 2381 3103 1925 3103 
Q 1469 3103 1208 2742 
Q 947 2381 947 1747 
z
" transform="scale(0.015625)"/>
        <path id="DejaVuSans-6d" d="M 3328 2828 
Q 3544 3216 3844 3400 
Q 4144 3584 4550 3584 
Q 5097 3584 5394 3201 
Q 5691 2819 5691 2113 
L 5691 0 
L 5113 0 
L 5113 2094 
Q 5113 2597 4934 2840 
Q 4756 3084 4391 3084 
Q 3944 3084 3684 2787 
Q 3425 2491 3425 1978 
L 3425 0 
L 2847 0 
L 2847 2094 
Q 2847 2600 2669 2842 
Q 2491 3084 2119 3084 
Q 1678 3084 1418 2786 
Q 1159 2488 1159 1978 
L 1159 0 
L 581 0 
L 581 3500 
L 1159 3500 
L 1159 2956 
Q 1356 3278 1631 3431 
Q 1906 3584 2284 3584 
Q 2666 3584 2933 3390 
Q 3200 3197 3328 2828 
z
" transform="scale(0.015625)"/>
        <path id="DejaVuSans-65" d="M 3597 1894 
L 3597 1613 
L 953 1613 
Q 991 1019 1311 708 
Q 1631 397 2203 397 
Q 2534 397 2845 478 
Q 3156 559 3463 722 
L 3463 178 
Q 3153 47 2828 -22 
Q 2503 -91 2169 -91 
Q 1331 -91 842 396 
Q 353 884 353 1716 
Q 353 2575 817 3079 
Q 1281 3584 2069 3584 
Q 2775 3584 3186 3129 
Q 3597 2675 3597 1894 
z
M 3022 2063 
Q 3016 2534 2758 2815 
Q 2500 3097 2075 3097 
Q 1594 3097 1305 2825 
Q 1016 2553 972 2059 
L 3022 2063 
z
" transform="scale(0.015625)"/>
       </defs>
       <use xlink:href="#DejaVuSans-2a"/>
       <use xlink:href="#DejaVuSans-2a" transform="translate(50 0)"/>
       <use xlink:href="#DejaVuSans-20" transform="translate(100 0)"/>
       <use xlink:href="#DejaVuSans-66" transform="translate(131.787109 0)"/>
       <use xlink:href="#DejaVuSans-61" transform="translate(166.992188 0)"/>
       <use xlink:href="#DejaVuSans-73" transform="translate(228.271484 0)"/>
       <use xlink:href="#DejaVuSans-74" transform="translate(280.371094 0)"/>
       <use xlink:href="#DejaVuSans-71" transform="translate(319.580078 0)"/>
       <use xlink:href="#DejaVuSans-2d" transform="translate(383.056641 0)"/>
       <use xlink:href="#DejaVuSans-64" transform="translate(419.140625 0)"/>
       <use xlink:href="#DejaVuSans-75" transform="translate(482.617188 0)"/>
       <use xlink:href="#DejaVuSans-6d" transform="translate(545.996094 0)"/>
       <use xlink:href="#DejaVuSans-70" transform="translate(643.408203 0)"/>
       <use xlink:href="#DejaVuSans-2d" transform="translate(706.884766 0)"/>
       <use xlink:href="#DejaVuSans-75" transform="translate(742.96875 0)"/>
       <use xlink:href="#DejaVuSans-6e" transform="translate(806.347656 0)"/>
       <use xlink:href="#DejaVuSans-63" transform="translate(869.726562 0)"/>
       <use xlink:href="#DejaVuSans-6f" transform="translate(924.707031 0)"/>
       <use xlink:href="#DejaVuSans-6d" transform="translate(985.888672 0)"/>
       <use xlink:href="#DejaVuSans-70" transform="translate(1083.300781 0)"/>
       <use xlink:href="#DejaVuSans-72" transform="translate(1146.777344 0)"/>
       <use xlink:href="#DejaVuSans-65" transform="translate(1185.640625 0)"/>
       <use xlink:href="#DejaVuSans-73" transform="translate(1247.164062 0)"/>
       <use xlink:href="#DejaVuSans-73" transform="translate(1299.263672 0)"/>
       <use xlink:href="#DejaVuSans-65" transform="translate(1351.363281 0)"/>
       <use xlink:href="#DejaVuSans-64" transform="translate(1412.886719 0)"/>
      </g>
     </g>
    </g>
    <g id="ytick_2">
     <g id="line2d_14">
      <g>
       <use xlink:href="#m733fa23ccf" x="179.48" y="67.3725" style="stroke: #000000; stroke-width: 0.8"/>
      </g>
     </g>
     <g id="text_9">
      <!-- fasterq-dump-uncompressed -->
      <g transform="translate(27.933125 71.171719) scale(0.1 -0.1)">
       <use xlink:href="#DejaVuSans-66"/>
       <use xlink:href="#DejaVuSans-61" transform="translate(35.205078 0)"/>
       <use xlink:href="#DejaVuSans-73" transform="translate(96.484375 0)"/>
       <use xlink:href="#DejaVuSans-74" transform="translate(148.583984 0)"/>
       <use xlink:href="#DejaVuSans-65" transform="translate(187.792969 0)"/>
       <use xlink:href="#DejaVuSans-72" transform="translate(249.316406 0)"/>
       <use xlink:href="#DejaVuSans-71" transform="translate(288.679688 0)"/>
       <use xlink:href="#DejaVuSans-2d" transform="translate(352.15625 0)"/>
       <use xlink:href="#DejaVuSans-64" transform="translate(388.240234 0)"/>
       <use xlink:href="#DejaVuSans-75" transform="translate(451.716797 0)"/>
       <use xlink:href="#DejaVuSans-6d" transform="translate(515.095703 0)"/>
       <use xlink:href="#DejaVuSans-70" transform="translate(612.507812 0)"/>
       <use xlink:href="#DejaVuSans-2d" transform="translate(675.984375 0)"/>
       <use xlink:href="#DejaVuSans-75" transform="translate(712.068359 0)"/>
       <use xlink:href="#DejaVuSans-6e" transform="translate(775.447266 0)"/>
       <use xlink:href="#DejaVuSans-63" transform="translate(838.826172 0)"/>
       <use xlink:href="#DejaVuSans-6f" transform="translate(893.806641 0)"/>
       <use xlink:href="#DejaVuSans-6d" transform="translate(954.988281 0)"/>
       <use xlink:href="#DejaVuSans-70" transform="translate(1052.400391 0)"/>
       <use xlink:href="#DejaVuSans-72" transform="translate(1115.876953 0)"/>
       <use xlink:href="#DejaVuSans-65" transform="translate(1154.740234 0)"/>
       <use xlink:href="#DejaVuSans-73" transform="translate(1216.263672 0)"/>
       <use xlink:href="#DejaVuSans-73" transform="translate(1268.363281 0)"/>
       <use xlink:href="#DejaVuSans-65" transform="translate(1320.462891 0)"/>
       <use xlink:href="#DejaVuSans-64" transform="translate(1381.986328 0)"/>
      </g>
     </g>
    </g>
    <g id="ytick_3">
     <g id="line2d_15">
      <g>
       <use xlink:href="#m733fa23ccf" x="179.48" y="95.0075" style="stroke: #000000; stroke-width: 0.8"/>
      </g>
     </g>
     <g id="text_10">
      <!-- xsra-gzip -->
      <g transform="translate(126.781563 98.806719) scale(0.1 -0.1)">
       <defs>
        <path id="DejaVuSans-7a" d="M 353 3500 
L 3084 3500 
L 3084 2975 
L 922 459 
L 3084 459 
L 3084 0 
L 275 0 
L 275 525 
L 2438 3041 
L 353 3041 
L 353 3500 
z
" transform="scale(0.015625)"/>
       </defs>
       <use xlink:href="#DejaVuSans-78"/>
       <use xlink:href="#DejaVuSans-73" transform="translate(59.179688 0)"/>
       <use xlink:href="#DejaVuSans-72" transform="translate(111.279297 0)"/>
       <use xlink:href="#DejaVuSans-61" transform="translate(152.392578 0)"/>
       <use xlink:href="#DejaVuSans-2d" transform="translate(213.671875 0)"/>
       <use xlink:href="#DejaVuSans-67" transform="translate(249.755859 0)"/>
       <use xlink:href="#DejaVuSans-7a" transform="translate(313.232422 0)"/>
       <use xlink:href="#DejaVuSans-69" transform="translate(365.722656 0)"/>
       <use xlink:href="#DejaVuSans-70" transform="translate(393.505859 0)"/>
      </g>
     </g>
    </g>
    <g id="ytick_4">
     <g id="line2d_16">
      <g>
       <use xlink:href="#m733fa23ccf" x="179.48" y="122.6425" style="stroke: #000000; stroke-width: 0.8"/>
      </g>
     </g>
     <g id="text_11">
      <!-- xsra-bgzip -->
      <g transform="translate(120.433125 126.441719) scale(0.1 -0.1)">
       <defs>
        <path id="DejaVuSans-62" d="M 3116 1747 
Q 3116 2381 2855 2742 
Q 2594 3103 2138 3103 
Q 1681 3103 1420 2742 
Q 1159 2381 1159 1747 
Q 1159 1113 1420 752 
Q 1681 391 2138 391 
Q 2594 391 2855 752 
Q 3116 1113 3116 1747 
z
M 1159 2969 
Q 1341 3281 1617 3432 
Q 1894 3584 2278 3584 
Q 2916 3584 3314 3078 
Q 3713 2572 3713 1747 
Q 3713 922 3314 415 
Q 2916 -91 2278 -91 
Q 1894 -91 1617 61 
Q 1341 213 1159 525 
L 1159 0 
L 581 0 
L 581 4863 
L 1159 4863 
L 1159 2969 
z
" transform="scale(0.015625)"/>
       </defs>
       <use xlink:href="#DejaVuSans-78"/>
       <use xlink:href="#DejaVuSans-73" transform="translate(59.179688 0)"/>
       <use xlink:href="#DejaVuSans-72" transform="translate(111.279297 0)"/>
       <use xlink:href="#DejaVuSans-61" transform="translate(152.392578 0)"/>
       <use xlink:href="#DejaVuSans-2d" transform="translate(213.671875 0)"/>
       <use xlink:href="#DejaVuSans-62" transform="translate(249.755859 0)"/>
       <use xlink:href="#DejaVuSans-67" transform="translate(313.232422 0)"/>
       <use xlink:href="#DejaVuSans-7a" transform="translate(376.708984 0)"/>
       <use xlink:href="#DejaVuSans-69" transform="translate(429.199219 0)"/>
       <use xlink:href="#DejaVuSans-70" transform="translate(456.982422 0)"/>
      </g>
     </g>
    </g>
    <g id="ytick_5">
     <g id="line2d_17">
      <g>
       <use xlink:href="#m733fa23ccf" x="179.48" y="150.2775" style="stroke: #000000; stroke-width: 0.8"/>
      </g>
     </g>
     <g id="text_12">
      <!-- xsra-zstd -->
      <g transform="translate(126.778438 154.076719) scale(0.1 -0.1)">
       <use xlink:href="#DejaVuSans-78"/>
       <use xlink:href="#DejaVuSans-73" transform="translate(59.179688 0)"/>
       <use xlink:href="#DejaVuSans-72" transform="translate(111.279297 0)"/>
       <use xlink:href="#DejaVuSans-61" transform="translate(152.392578 0)"/>
       <use xlink:href="#DejaVuSans-2d" transform="translate(213.671875 0)"/>
       <use xlink:href="#DejaVuSans-7a" transform="translate(249.755859 0)"/>
       <use xlink:href="#DejaVuSans-73" transform="translate(302.246094 0)"/>
       <use xlink:href="#DejaVuSans-74" transform="translate(354.345703 0)"/>
       <use xlink:href="#DejaVuSans-64" transform="translate(393.554688 0)"/>
      </g>
     </g>
    </g>
    <g id="ytick_6">
     <g id="line2d_18">
      <g>
       <use xlink:href="#m733fa23ccf" x="179.48" y="177.9125" style="stroke: #000000; stroke-width: 0.8"/>
      </g>
     </g>
     <g id="text_13">
      <!-- xsra-vbq -->
      <g transform="translate(129.151875 181.711719) scale(0.1 -0.1)">
       <defs>
        <path id="DejaVuSans-76" d="M 191 3500 
L 800 3500 
L 1894 563 
L 2988 3500 
L 3597 3500 
L 2284 0 
L 1503 0 
L 191 3500 
z
" transform="scale(0.015625)"/>
       </defs>
       <use xlink:href="#DejaVuSans-78"/>
       <use xlink:href="#DejaVuSans-73" transform="translate(59.179688 0)"/>
       <use xlink:href="#DejaVuSans-72" transform="translate(111.279297 0)"/>
       <use xlink:href="#DejaVuSans-61" transform="translate(152.392578 0)"/>
       <use xlink:href="#DejaVuSans-2d" transform="translate(213.671875 0)"/>
       <use xlink:href="#DejaVuSans-76" transform="translate(247.130859 0)"/>
       <use xlink:href="#DejaVuSans-62" transform="translate(306.310547 0)"/>
       <use xlink:href="#DejaVuSans-71" transform="translate(369.787109 0)"/>
      </g>
     </g>
    </g>
    <g id="ytick_7">
     <g id="line2d_19">
      <g>
       <use xlink:href="#m733fa23ccf" x="179.48" y="205.5475" style="stroke: #000000; stroke-width: 0.8"/>
      </g>
     </g>
     <g id="text_14">
      <!-- xsra-uncompressed -->
      <g transform="translate(74.164375 209.346719) scale(0.1 -0.1)">
       <use xlink:href="#DejaVuSans-78"/>
       <use xlink:href="#DejaVuSans-73" transform="translate(59.179688 0)"/>
       <use xlink:href="#DejaVuSans-72" transform="translate(111.279297 0)"/>
       <use xlink:href="#DejaVuSans-61" transform="translate(152.392578 0)"/>
       <use xlink:href="#DejaVuSans-2d" transform="translate(213.671875 0)"/>
       <use xlink:href="#DejaVuSans-75" transform="translate(249.755859 0)"/>
       <use xlink:href="#DejaVuSans-6e" transform="translate(313.134766 0)"/>
       <use xlink:href="#DejaVuSans-63" transform="translate(376.513672 0)"/>
       <use xlink:href="#DejaVuSans-6f" transform="translate(431.494141 0)"/>
       <use xlink:href="#DejaVuSans-6d" transform="translate(492.675781 0)"/>
       <use xlink:href="#DejaVuSans-70" transform="translate(590.087891 0)"/>
       <use xlink:href="#DejaVuSans-72" transform="translate(653.564453 0)"/>
       <use xlink:href="#DejaVuSans-65" transform="translate(692.427734 0)"/>
       <use xlink:href="#DejaVuSans-73" transform="translate(753.951172 0)"/>
       <use xlink:href="#DejaVuSans-73" transform="translate(806.050781 0)"/>
       <use xlink:href="#DejaVuSans-65" transform="translate(858.150391 0)"/>
       <use xlink:href="#DejaVuSans-64" transform="translate(919.673828 0)"/>
      </g>
     </g>
    </g>
    <g id="ytick_8">
     <g id="line2d_20">
      <g>
       <use xlink:href="#m733fa23ccf" x="179.48" y="233.1825" style="stroke: #000000; stroke-width: 0.8"/>
      </g>
     </g>
     <g id="text_15">
      <!-- xsra-bq -->
      <g transform="translate(134.808125 236.981719) scale(0.1 -0.1)">
       <use xlink:href="#DejaVuSans-78"/>
       <use xlink:href="#DejaVuSans-73" transform="translate(59.179688 0)"/>
       <use xlink:href="#DejaVuSans-72" transform="translate(111.279297 0)"/>
       <use xlink:href="#DejaVuSans-61" transform="translate(152.392578 0)"/>
       <use xlink:href="#DejaVuSans-2d" transform="translate(213.671875 0)"/>
       <use xlink:href="#DejaVuSans-62" transform="translate(249.755859 0)"/>
       <use xlink:href="#DejaVuSans-71" transform="translate(313.232422 0)"/>
      </g>
     </g>
    </g>
    <g id="text_16">
     <!-- command_name -->
     <g transform="translate(18.48625 178.095937) rotate(-90) scale(0.1 -0.1)">
      <defs>
       <path id="DejaVuSans-5f" d="M 3263 -1063 
L 3263 -1509 
L -63 -1509 
L -63 -1063 
L 3263 -1063 
z
" transform="scale(0.015625)"/>
      </defs>
      <use xlink:href="#DejaVuSans-63"/>
      <use xlink:href="#DejaVuSans-6f" transform="translate(54.980469 0)"/>
      <use xlink:href="#DejaVuSans-6d" transform="translate(116.162109 0)"/>
      <use xlink:href="#DejaVuSans-6d" transform="translate(213.574219 0)"/>
      <use xlink:href="#DejaVuSans-61" transform="translate(310.986328 0)"/>
      <use xlink:href="#DejaVuSans-6e" transform="translate(372.265625 0)"/>
      <use xlink:href="#DejaVuSans-64" transform="translate(435.644531 0)"/>
      <use xlink:href="#DejaVuSans-5f" transform="translate(499.121094 0)"/>
      <use xlink:href="#DejaVuSans-6e" transform="translate(549.121094 0)"/>
      <use xlink:href="#DejaVuSans-61" transform="translate(612.5 0)"/>
      <use xlink:href="#DejaVuSans-6d" transform="translate(673.779297 0)"/>
      <use xlink:href="#DejaVuSans-65" transform="translate(771.191406 0)"/>
     </g>
    </g>
   </g>
   <g id="line2d_21">
    <path clip-path="url(#p3d5d126e64)" style="fill: none; stroke: #424242; stroke-width: 2.25; stroke-linecap: square"/>
   </g>
   <g id="line2d_22">
    <path clip-path="url(#p3d5d126e64)" style="fill: none; stroke: #424242; stroke-width: 2.25; stroke-linecap: square"/>
   </g>
   <g id="line2d_23">
    <path clip-path="url(#p3d5d126e64)" style="fill: none; stroke: #424242; stroke-width: 2.25; stroke-linecap: square"/>
   </g>
   <g id="line2d_24">
    <path clip-path="url(#p3d5d126e64)" style="fill: none; stroke: #424242; stroke-width: 2.25; stroke-linecap: square"/>
   </g>
   <g id="line2d_25">
    <path clip-path="url(#p3d5d126e64)" style="fill: none; stroke: #424242; stroke-width: 2.25; stroke-linecap: square"/>
   </g>
   <g id="line2d_26">
    <path clip-path="url(#p3d5d126e64)" style="fill: none; stroke: #424242; stroke-width: 2.25; stroke-linecap: square"/>
   </g>
   <g id="line2d_27">
    <path clip-path="url(#p3d5d126e64)" style="fill: none; stroke: #424242; stroke-width: 2.25; stroke-linecap: square"/>
   </g>
   <g id="line2d_28">
    <path clip-path="url(#p3d5d126e64)" style="fill: none; stroke: #424242; stroke-width: 2.25; stroke-linecap: square"/>
   </g>
   <g id="patch_15">
    <path d="M 179.48 247 
L 179.48 25.92 
" style="fill: none; stroke: #000000; stroke-width: 0.8; stroke-linejoin: miter; stroke-linecap: square"/>
   </g>
   <g id="patch_16">
    <path d="M 709.2 247 
L 709.2 25.92 
" style="fill: none; stroke: #000000; stroke-width: 0.8; stroke-linejoin: miter; stroke-linecap: square"/>
   </g>
   <g id="patch_17">
    <path d="M 179.48 247 
L 709.2 247 
" style="fill: none; stroke: #000000; stroke-width: 0.8; stroke-linejoin: miter; stroke-linecap: square"/>
   </g>
   <g id="patch_18">
    <path d="M 179.48 25.92 
L 709.2 25.92 
" style="fill: none; stroke: #000000; stroke-width: 0.8; stroke-linejoin: miter; stroke-linecap: square"/>
   </g>
   <g id="text_17">
    <!-- Extraction Throughput :: 12 threads -->
    <g transform="translate(336.7675 19.92) scale(0.12 -0.12)">
     <use xlink:href="#DejaVuSans-45"/>
     <use xlink:href="#DejaVuSans-78" transform="translate(63.183594 0)"/>
     <use xlink:href="#DejaVuSans-74" transform="translate(122.363281 0)"/>
     <use xlink:href="#DejaVuSans-72" transform="translate(161.572266 0)"/>
     <use xlink:href="#DejaVuSans-61" transform="translate(202.685547 0)"/>
     <use xlink:href="#DejaVuSans-63" transform="translate(263.964844 0)"/>
     <use xlink:href="#DejaVuSans-74" transform="translate(318.945312 0)"/>
     <use xlink:href="#DejaVuSans-69" transform="translate(358.154297 0)"/>
     <use xlink:href="#DejaVuSans-6f" transform="translate(385.9375 0)"/>
     <use xlink:href="#DejaVuSans-6e" transform="translate(447.119141 0)"/>
     <use xlink:href="#DejaVuSans-20" transform="translate(510.498047 0)"/>
     <use xlink:href="#DejaVuSans-54" transform="translate(542.285156 0)"/>
     <use xlink:href="#DejaVuSans-68" transform="translate(603.369141 0)"/>
     <use xlink:href="#DejaVuSans-72" transform="translate(666.748047 0)"/>
     <use xlink:href="#DejaVuSans-6f" transform="translate(705.611328 0)"/>
     <use xlink:href="#DejaVuSans-75" transform="translate(766.792969 0)"/>
     <use xlink:href="#DejaVuSans-67" transform="translate(830.171875 0)"/>
     <use xlink:href="#DejaVuSans-68" transform="translate(893.648438 0)"/>
     <use xlink:href="#DejaVuSans-70" transform="translate(957.027344 0)"/>
     <use xlink:href="#DejaVuSans-75" transform="translate(1020.503906 0)"/>
     <use xlink:href="#DejaVuSans-74" transform="translate(1083.882812 0)"/>
     <use xlink:href="#DejaVuSans-20" transform="translate(1123.091797 0)"/>
     <use xlink:href="#DejaVuSans-3a" transform="translate(1154.878906 0)"/>
     <use xlink:href="#DejaVuSans-3a" transform="translate(1188.570312 0)"/>
     <use xlink:href="#DejaVuSans-20" transform="translate(1222.261719 0)"/>
     <use xlink:href="#DejaVuSans-31" transform="translate(1254.048828 0)"/>
     <use xlink:href="#DejaVuSans-32" transform="translate(1317.671875 0)"/>
     <use xlink:href="#DejaVuSans-20" transform="translate(1381.294922 0)"/>
     <use xlink:href="#DejaVuSans-74" transform="translate(1413.082031 0)"/>
     <use xlink:href="#DejaVuSans-68" transform="translate(1452.291016 0)"/>
     <use xlink:href="#DejaVuSans-72" transform="translate(1515.669922 0)"/>
     <use xlink:href="#DejaVuSans-65" transform="translate(1554.533203 0)"/>
     <use xlink:href="#DejaVuSans-61" transform="translate(1616.056641 0)"/>
     <use xlink:href="#DejaVuSans-64" transform="translate(1677.335938 0)"/>
     <use xlink:href="#DejaVuSans-73" transform="translate(1740.8125 0)"/>
    </g>
   </g>
   <g id="legend_1">
    <g id="patch_19">
     <path d="M 570.7375 107.310625 
L 702.2 107.310625 
Q 704.2 107.310625 704.2 105.310625 
L 704.2 32.92 
Q 704.2 30.92 702.2 30.92 
L 570.7375 30.92 
Q 568.7375 30.92 568.7375 32.92 
L 568.7375 105.310625 
Q 568.7375 107.310625 570.7375 107.310625 
z
" style="fill: #ffffff; opacity: 0.8; stroke: #cccccc; stroke-linejoin: miter"/>
    </g>
    <g id="text_18">
     <!-- tool-format -->
     <g transform="translate(608.514844 42.518438) scale(0.1 -0.1)">
      <defs>
       <path id="DejaVuSans-6c" d="M 603 4863 
L 1178 4863 
L 1178 0 
L 603 0 
L 603 4863 
z
" transform="scale(0.015625)"/>
      </defs>
      <use xlink:href="#DejaVuSans-74"/>
      <use xlink:href="#DejaVuSans-6f" transform="translate(39.208984 0)"/>
      <use xlink:href="#DejaVuSans-6f" transform="translate(100.390625 0)"/>
      <use xlink:href="#DejaVuSans-6c" transform="translate(161.572266 0)"/>
      <use xlink:href="#DejaVuSans-2d" transform="translate(189.355469 0)"/>
      <use xlink:href="#DejaVuSans-66" transform="translate(225.439453 0)"/>
      <use xlink:href="#DejaVuSans-6f" transform="translate(260.644531 0)"/>
      <use xlink:href="#DejaVuSans-72" transform="translate(321.826172 0)"/>
      <use xlink:href="#DejaVuSans-6d" transform="translate(361.189453 0)"/>
      <use xlink:href="#DejaVuSans-61" transform="translate(458.601562 0)"/>
      <use xlink:href="#DejaVuSans-74" transform="translate(519.880859 0)"/>
     </g>
    </g>
    <g id="patch_20">
     <path d="M 572.7375 57.196562 
L 592.7375 57.196562 
L 592.7375 50.196562 
L 572.7375 50.196562 
z
" style="fill: #808080"/>
    </g>
    <g id="text_19">
     <!-- fastq-dump::fastq -->
     <g transform="translate(600.7375 57.196562) scale(0.1 -0.1)">
      <use xlink:href="#DejaVuSans-66"/>
      <use xlink:href="#DejaVuSans-61" transform="translate(35.205078 0)"/>
      <use xlink:href="#DejaVuSans-73" transform="translate(96.484375 0)"/>
      <use xlink:href="#DejaVuSans-74" transform="translate(148.583984 0)"/>
      <use xlink:href="#DejaVuSans-71" transform="translate(187.792969 0)"/>
      <use xlink:href="#DejaVuSans-2d" transform="translate(251.269531 0)"/>
      <use xlink:href="#DejaVuSans-64" transform="translate(287.353516 0)"/>
      <use xlink:href="#DejaVuSans-75" transform="translate(350.830078 0)"/>
      <use xlink:href="#DejaVuSans-6d" transform="translate(414.208984 0)"/>
      <use xlink:href="#DejaVuSans-70" transform="translate(511.621094 0)"/>
      <use xlink:href="#DejaVuSans-3a" transform="translate(575.097656 0)"/>
      <use xlink:href="#DejaVuSans-3a" transform="translate(608.789062 0)"/>
      <use xlink:href="#DejaVuSans-66" transform="translate(642.480469 0)"/>
      <use xlink:href="#DejaVuSans-61" transform="translate(677.685547 0)"/>
      <use xlink:href="#DejaVuSans-73" transform="translate(738.964844 0)"/>
      <use xlink:href="#DejaVuSans-74" transform="translate(791.064453 0)"/>
      <use xlink:href="#DejaVuSans-71" transform="translate(830.273438 0)"/>
     </g>
    </g>
    <g id="patch_21">
     <path d="M 572.7375 71.874687 
L 592.7375 71.874687 
L 592.7375 64.874687 
L 572.7375 64.874687 
z
"/>
    </g>
    <g id="text_20">
     <!-- fasterq-dump::fastq -->
     <g transform="translate(600.7375 71.874687) scale(0.1 -0.1)">
      <use xlink:href="#DejaVuSans-66"/>
      <use xlink:href="#DejaVuSans-61" transform="translate(35.205078 0)"/>
      <use xlink:href="#DejaVuSans-73" transform="translate(96.484375 0)"/>
      <use xlink:href="#DejaVuSans-74" transform="translate(148.583984 0)"/>
      <use xlink:href="#DejaVuSans-65" transform="translate(187.792969 0)"/>
      <use xlink:href="#DejaVuSans-72" transform="translate(249.316406 0)"/>
      <use xlink:href="#DejaVuSans-71" transform="translate(288.679688 0)"/>
      <use xlink:href="#DejaVuSans-2d" transform="translate(352.15625 0)"/>
      <use xlink:href="#DejaVuSans-64" transform="translate(388.240234 0)"/>
      <use xlink:href="#DejaVuSans-75" transform="translate(451.716797 0)"/>
      <use xlink:href="#DejaVuSans-6d" transform="translate(515.095703 0)"/>
      <use xlink:href="#DejaVuSans-70" transform="translate(612.507812 0)"/>
      <use xlink:href="#DejaVuSans-3a" transform="translate(675.984375 0)"/>
      <use xlink:href="#DejaVuSans-3a" transform="translate(709.675781 0)"/>
      <use xlink:href="#DejaVuSans-66" transform="translate(743.367188 0)"/>
      <use xlink:href="#DejaVuSans-61" transform="translate(778.572266 0)"/>
      <use xlink:href="#DejaVuSans-73" transform="translate(839.851562 0)"/>
      <use xlink:href="#DejaVuSans-74" transform="translate(891.951172 0)"/>
      <use xlink:href="#DejaVuSans-71" transform="translate(931.160156 0)"/>
     </g>
    </g>
    <g id="patch_22">
     <path d="M 572.7375 86.552813 
L 592.7375 86.552813 
L 592.7375 79.552813 
L 572.7375 79.552813 
z
" style="fill: #107010"/>
    </g>
    <g id="text_21">
     <!-- xsra::fastq -->
     <g transform="translate(600.7375 86.552813) scale(0.1 -0.1)">
      <use xlink:href="#DejaVuSans-78"/>
      <use xlink:href="#DejaVuSans-73" transform="translate(59.179688 0)"/>
      <use xlink:href="#DejaVuSans-72" transform="translate(111.279297 0)"/>
      <use xlink:href="#DejaVuSans-61" transform="translate(152.392578 0)"/>
      <use xlink:href="#DejaVuSans-3a" transform="translate(213.671875 0)"/>
      <use xlink:href="#DejaVuSans-3a" transform="translate(247.363281 0)"/>
      <use xlink:href="#DejaVuSans-66" transform="translate(281.054688 0)"/>
      <use xlink:href="#DejaVuSans-61" transform="translate(316.259766 0)"/>
      <use xlink:href="#DejaVuSans-73" transform="translate(377.539062 0)"/>
      <use xlink:href="#DejaVuSans-74" transform="translate(429.638672 0)"/>
      <use xlink:href="#DejaVuSans-71" transform="translate(468.847656 0)"/>
     </g>
    </g>
    <g id="patch_23">
     <path d="M 572.7375 101.230938 
L 592.7375 101.230938 
L 592.7375 94.230938 
L 572.7375 94.230938 
z
" style="fill: #701070"/>
    </g>
    <g id="text_22">
     <!-- xsra::binseq -->
     <g transform="translate(600.7375 101.230938) scale(0.1 -0.1)">
      <use xlink:href="#DejaVuSans-78"/>
      <use xlink:href="#DejaVuSans-73" transform="translate(59.179688 0)"/>
      <use xlink:href="#DejaVuSans-72" transform="translate(111.279297 0)"/>
      <use xlink:href="#DejaVuSans-61" transform="translate(152.392578 0)"/>
      <use xlink:href="#DejaVuSans-3a" transform="translate(213.671875 0)"/>
      <use xlink:href="#DejaVuSans-3a" transform="translate(247.363281 0)"/>
      <use xlink:href="#DejaVuSans-62" transform="translate(281.054688 0)"/>
      <use xlink:href="#DejaVuSans-69" transform="translate(344.53125 0)"/>
      <use xlink:href="#DejaVuSans-6e" transform="translate(372.314453 0)"/>
      <use xlink:href="#DejaVuSans-73" transform="translate(435.693359 0)"/>
      <use xlink:href="#DejaVuSans-65" transform="translate(487.792969 0)"/>
      <use xlink:href="#DejaVuSans-71" transform="translate(549.316406 0)"/>
     </g>
    </g>
   </g>
  </g>
 </g>
 <defs>
  <clipPath id="p3d5d126e64">
   <rect x="179.48" y="25.92" width="529.72" height="221.08"/>
  </clipPath>
 </defs>
</svg>
