<?xml version="1.0" encoding="utf-8" standalone="no"?>
<!DOCTYPE svg PUBLIC "-//W3C//DTD SVG 1.1//EN"
  "http://www.w3.org/Graphics/SVG/1.1/DTD/svg11.dtd">
<svg xmlns:xlink="http://www.w3.org/1999/xlink" width="1152pt" height="288pt" viewBox="0 0 1152 288" xmlns="http://www.w3.org/2000/svg" version="1.1">
 <metadata>
  <rdf:RDF xmlns:dc="http://purl.org/dc/elements/1.1/" xmlns:cc="http://creativecommons.org/ns#" xmlns:rdf="http://www.w3.org/1999/02/22-rdf-syntax-ns#">
   <cc:Work>
    <dc:type rdf:resource="http://purl.org/dc/dcmitype/StillImage"/>
    <dc:date>2025-04-29T13:38:23.818163</dc:date>
    <dc:format>image/svg+xml</dc:format>
    <dc:creator>
     <cc:Agent>
      <dc:title>Matplotlib v3.10.0, https://matplotlib.org/</dc:title>
     </cc:Agent>
    </dc:creator>
   </cc:Work>
  </rdf:RDF>
 </metadata>
 <defs>
  <style type="text/css">*{stroke-linejoin: round; stroke-linecap: butt}</style>
 </defs>
 <g id="figure_1">
  <g id="patch_1">
   <path d="M 0 288 
L 1152 288 
L 1152 0 
L 0 0 
z
" style="fill: #ffffff"/>
  </g>
  <g id="axes_1">
   <g id="patch_2">
    <path d="M 144 256.32 
L 1036.8 256.32 
L 1036.8 34.56 
L 144 34.56 
z
" style="fill: #ffffff"/>
   </g>
   <g id="FillBetweenPolyCollection_1"/>
   <g id="FillBetweenPolyCollection_2"/>
   <g id="FillBetweenPolyCollection_3"/>
   <g id="FillBetweenPolyCollection_4"/>
   <g id="FillBetweenPolyCollection_5"/>
   <g id="FillBetweenPolyCollection_6"/>
   <g id="matplotlib.axis_1">
    <g id="xtick_1">
     <g id="line2d_1">
      <path d="M 184.458553 256.32 
L 184.458553 34.56 
" clip-path="url(#pe775af45eb)" style="fill: none; stroke: #000000; stroke-opacity: 0.1; stroke-width: 0.8; stroke-linecap: square"/>
     </g>
     <g id="line2d_2">
      <defs>
       <path id="m958b96d1f2" d="M 0 0 
L 0 3.5 
" style="stroke: #000000; stroke-width: 0.8"/>
      </defs>
      <g>
       <use xlink:href="#m958b96d1f2" x="184.458553" y="256.32" style="stroke: #000000; stroke-width: 0.8"/>
      </g>
     </g>
     <g id="text_1">
      <!-- 0 -->
      <g transform="translate(181.277303 270.918437) scale(0.1 -0.1)">
       <defs>
        <path id="DejaVuSans-30" d="M 2034 4250 
Q 1547 4250 1301 3770 
Q 1056 3291 1056 2328 
Q 1056 1369 1301 889 
Q 1547 409 2034 409 
Q 2525 409 2770 889 
Q 3016 1369 3016 2328 
Q 3016 3291 2770 3770 
Q 2525 4250 2034 4250 
z
M 2034 4750 
Q 2819 4750 3233 4129 
Q 3647 3509 3647 2328 
Q 3647 1150 3233 529 
Q 2819 -91 2034 -91 
Q 1250 -91 836 529 
Q 422 1150 422 2328 
Q 422 3509 836 4129 
Q 1250 4750 2034 4750 
z
" transform="scale(0.015625)"/>
       </defs>
       <use xlink:href="#DejaVuSans-30"/>
      </g>
     </g>
    </g>
    <g id="xtick_2">
     <g id="line2d_3">
      <path d="M 346.810479 256.32 
L 346.810479 34.56 
" clip-path="url(#pe775af45eb)" style="fill: none; stroke: #000000; stroke-opacity: 0.1; stroke-width: 0.8; stroke-linecap: square"/>
     </g>
     <g id="line2d_4">
      <g>
       <use xlink:href="#m958b96d1f2" x="346.810479" y="256.32" style="stroke: #000000; stroke-width: 0.8"/>
      </g>
     </g>
     <g id="text_2">
      <!-- 20 -->
      <g transform="translate(340.447979 270.918437) scale(0.1 -0.1)">
       <defs>
        <path id="DejaVuSans-32" d="M 1228 531 
L 3431 531 
L 3431 0 
L 469 0 
L 469 531 
Q 828 903 1448 1529 
Q 2069 2156 2228 2338 
Q 2531 2678 2651 2914 
Q 2772 3150 2772 3378 
Q 2772 3750 2511 3984 
Q 2250 4219 1831 4219 
Q 1534 4219 1204 4116 
Q 875 4013 500 3803 
L 500 4441 
Q 881 4594 1212 4672 
Q 1544 4750 1819 4750 
Q 2544 4750 2975 4387 
Q 3406 4025 3406 3419 
Q 3406 3131 3298 2873 
Q 3191 2616 2906 2266 
Q 2828 2175 2409 1742 
Q 1991 1309 1228 531 
z
" transform="scale(0.015625)"/>
       </defs>
       <use xlink:href="#DejaVuSans-32"/>
       <use xlink:href="#DejaVuSans-30" transform="translate(63.623047 0)"/>
      </g>
     </g>
    </g>
    <g id="xtick_3">
     <g id="line2d_5">
      <path d="M 509.162405 256.32 
L 509.162405 34.56 
" clip-path="url(#pe775af45eb)" style="fill: none; stroke: #000000; stroke-opacity: 0.1; stroke-width: 0.8; stroke-linecap: square"/>
     </g>
     <g id="line2d_6">
      <g>
       <use xlink:href="#m958b96d1f2" x="509.162405" y="256.32" style="stroke: #000000; stroke-width: 0.8"/>
      </g>
     </g>
     <g id="text_3">
      <!-- 40 -->
      <g transform="translate(502.799905 270.918437) scale(0.1 -0.1)">
       <defs>
        <path id="DejaVuSans-34" d="M 2419 4116 
L 825 1625 
L 2419 1625 
L 2419 4116 
z
M 2253 4666 
L 3047 4666 
L 3047 1625 
L 3713 1625 
L 3713 1100 
L 3047 1100 
L 3047 0 
L 2419 0 
L 2419 1100 
L 313 1100 
L 313 1709 
L 2253 4666 
z
" transform="scale(0.015625)"/>
       </defs>
       <use xlink:href="#DejaVuSans-34"/>
       <use xlink:href="#DejaVuSans-30" transform="translate(63.623047 0)"/>
      </g>
     </g>
    </g>
    <g id="xtick_4">
     <g id="line2d_7">
      <path d="M 671.51433 256.32 
L 671.51433 34.56 
" clip-path="url(#pe775af45eb)" style="fill: none; stroke: #000000; stroke-opacity: 0.1; stroke-width: 0.8; stroke-linecap: square"/>
     </g>
     <g id="line2d_8">
      <g>
       <use xlink:href="#m958b96d1f2" x="671.51433" y="256.32" style="stroke: #000000; stroke-width: 0.8"/>
      </g>
     </g>
     <g id="text_4">
      <!-- 60 -->
      <g transform="translate(665.15183 270.918437) scale(0.1 -0.1)">
       <defs>
        <path id="DejaVuSans-36" d="M 2113 2584 
Q 1688 2584 1439 2293 
Q 1191 2003 1191 1497 
Q 1191 994 1439 701 
Q 1688 409 2113 409 
Q 2538 409 2786 701 
Q 3034 994 3034 1497 
Q 3034 2003 2786 2293 
Q 2538 2584 2113 2584 
z
M 3366 4563 
L 3366 3988 
Q 3128 4100 2886 4159 
Q 2644 4219 2406 4219 
Q 1781 4219 1451 3797 
Q 1122 3375 1075 2522 
Q 1259 2794 1537 2939 
Q 1816 3084 2150 3084 
Q 2853 3084 3261 2657 
Q 3669 2231 3669 1497 
Q 3669 778 3244 343 
Q 2819 -91 2113 -91 
Q 1303 -91 875 529 
Q 447 1150 447 2328 
Q 447 3434 972 4092 
Q 1497 4750 2381 4750 
Q 2619 4750 2861 4703 
Q 3103 4656 3366 4563 
z
" transform="scale(0.015625)"/>
       </defs>
       <use xlink:href="#DejaVuSans-36"/>
       <use xlink:href="#DejaVuSans-30" transform="translate(63.623047 0)"/>
      </g>
     </g>
    </g>
    <g id="xtick_5">
     <g id="line2d_9">
      <path d="M 833.866256 256.32 
L 833.866256 34.56 
" clip-path="url(#pe775af45eb)" style="fill: none; stroke: #000000; stroke-opacity: 0.1; stroke-width: 0.8; stroke-linecap: square"/>
     </g>
     <g id="line2d_10">
      <g>
       <use xlink:href="#m958b96d1f2" x="833.866256" y="256.32" style="stroke: #000000; stroke-width: 0.8"/>
      </g>
     </g>
     <g id="text_5">
      <!-- 80 -->
      <g transform="translate(827.503756 270.918437) scale(0.1 -0.1)">
       <defs>
        <path id="DejaVuSans-38" d="M 2034 2216 
Q 1584 2216 1326 1975 
Q 1069 1734 1069 1313 
Q 1069 891 1326 650 
Q 1584 409 2034 409 
Q 2484 409 2743 651 
Q 3003 894 3003 1313 
Q 3003 1734 2745 1975 
Q 2488 2216 2034 2216 
z
M 1403 2484 
Q 997 2584 770 2862 
Q 544 3141 544 3541 
Q 544 4100 942 4425 
Q 1341 4750 2034 4750 
Q 2731 4750 3128 4425 
Q 3525 4100 3525 3541 
Q 3525 3141 3298 2862 
Q 3072 2584 2669 2484 
Q 3125 2378 3379 2068 
Q 3634 1759 3634 1313 
Q 3634 634 3220 271 
Q 2806 -91 2034 -91 
Q 1263 -91 848 271 
Q 434 634 434 1313 
Q 434 1759 690 2068 
Q 947 2378 1403 2484 
z
M 1172 3481 
Q 1172 3119 1398 2916 
Q 1625 2713 2034 2713 
Q 2441 2713 2670 2916 
Q 2900 3119 2900 3481 
Q 2900 3844 2670 4047 
Q 2441 4250 2034 4250 
Q 1625 4250 1398 4047 
Q 1172 3844 1172 3481 
z
" transform="scale(0.015625)"/>
       </defs>
       <use xlink:href="#DejaVuSans-38"/>
       <use xlink:href="#DejaVuSans-30" transform="translate(63.623047 0)"/>
      </g>
     </g>
    </g>
    <g id="xtick_6">
     <g id="line2d_11">
      <path d="M 996.218182 256.32 
L 996.218182 34.56 
" clip-path="url(#pe775af45eb)" style="fill: none; stroke: #000000; stroke-opacity: 0.1; stroke-width: 0.8; stroke-linecap: square"/>
     </g>
     <g id="line2d_12">
      <g>
       <use xlink:href="#m958b96d1f2" x="996.218182" y="256.32" style="stroke: #000000; stroke-width: 0.8"/>
      </g>
     </g>
     <g id="text_6">
      <!-- 100 -->
      <g transform="translate(986.674432 270.918437) scale(0.1 -0.1)">
       <defs>
        <path id="DejaVuSans-31" d="M 794 531 
L 1825 531 
L 1825 4091 
L 703 3866 
L 703 4441 
L 1819 4666 
L 2450 4666 
L 2450 531 
L 3481 531 
L 3481 0 
L 794 0 
L 794 531 
z
" transform="scale(0.015625)"/>
       </defs>
       <use xlink:href="#DejaVuSans-31"/>
       <use xlink:href="#DejaVuSans-30" transform="translate(63.623047 0)"/>
       <use xlink:href="#DejaVuSans-30" transform="translate(127.246094 0)"/>
      </g>
     </g>
    </g>
    <g id="text_7">
     <!-- Percentage of Runtime -->
     <g transform="translate(533.396875 284.596563) scale(0.1 -0.1)">
      <defs>
       <path id="DejaVuSans-50" d="M 1259 4147 
L 1259 2394 
L 2053 2394 
Q 2494 2394 2734 2622 
Q 2975 2850 2975 3272 
Q 2975 3691 2734 3919 
Q 2494 4147 2053 4147 
L 1259 4147 
z
M 628 4666 
L 2053 4666 
Q 2838 4666 3239 4311 
Q 3641 3956 3641 3272 
Q 3641 2581 3239 2228 
Q 2838 1875 2053 1875 
L 1259 1875 
L 1259 0 
L 628 0 
L 628 4666 
z
" transform="scale(0.015625)"/>
       <path id="DejaVuSans-65" d="M 3597 1894 
L 3597 1613 
L 953 1613 
Q 991 1019 1311 708 
Q 1631 397 2203 397 
Q 2534 397 2845 478 
Q 3156 559 3463 722 
L 3463 178 
Q 3153 47 2828 -22 
Q 2503 -91 2169 -91 
Q 1331 -91 842 396 
Q 353 884 353 1716 
Q 353 2575 817 3079 
Q 1281 3584 2069 3584 
Q 2775 3584 3186 3129 
Q 3597 2675 3597 1894 
z
M 3022 2063 
Q 3016 2534 2758 2815 
Q 2500 3097 2075 3097 
Q 1594 3097 1305 2825 
Q 1016 2553 972 2059 
L 3022 2063 
z
" transform="scale(0.015625)"/>
       <path id="DejaVuSans-72" d="M 2631 2963 
Q 2534 3019 2420 3045 
Q 2306 3072 2169 3072 
Q 1681 3072 1420 2755 
Q 1159 2438 1159 1844 
L 1159 0 
L 581 0 
L 581 3500 
L 1159 3500 
L 1159 2956 
Q 1341 3275 1631 3429 
Q 1922 3584 2338 3584 
Q 2397 3584 2469 3576 
Q 2541 3569 2628 3553 
L 2631 2963 
z
" transform="scale(0.015625)"/>
       <path id="DejaVuSans-63" d="M 3122 3366 
L 3122 2828 
Q 2878 2963 2633 3030 
Q 2388 3097 2138 3097 
Q 1578 3097 1268 2742 
Q 959 2388 959 1747 
Q 959 1106 1268 751 
Q 1578 397 2138 397 
Q 2388 397 2633 464 
Q 2878 531 3122 666 
L 3122 134 
Q 2881 22 2623 -34 
Q 2366 -91 2075 -91 
Q 1284 -91 818 406 
Q 353 903 353 1747 
Q 353 2603 823 3093 
Q 1294 3584 2113 3584 
Q 2378 3584 2631 3529 
Q 2884 3475 3122 3366 
z
" transform="scale(0.015625)"/>
       <path id="DejaVuSans-6e" d="M 3513 2113 
L 3513 0 
L 2938 0 
L 2938 2094 
Q 2938 2591 2744 2837 
Q 2550 3084 2163 3084 
Q 1697 3084 1428 2787 
Q 1159 2491 1159 1978 
L 1159 0 
L 581 0 
L 581 3500 
L 1159 3500 
L 1159 2956 
Q 1366 3272 1645 3428 
Q 1925 3584 2291 3584 
Q 2894 3584 3203 3211 
Q 3513 2838 3513 2113 
z
" transform="scale(0.015625)"/>
       <path id="DejaVuSans-74" d="M 1172 4494 
L 1172 3500 
L 2356 3500 
L 2356 3053 
L 1172 3053 
L 1172 1153 
Q 1172 725 1289 603 
Q 1406 481 1766 481 
L 2356 481 
L 2356 0 
L 1766 0 
Q 1100 0 847 248 
Q 594 497 594 1153 
L 594 3053 
L 172 3053 
L 172 3500 
L 594 3500 
L 594 4494 
L 1172 4494 
z
" transform="scale(0.015625)"/>
       <path id="DejaVuSans-61" d="M 2194 1759 
Q 1497 1759 1228 1600 
Q 959 1441 959 1056 
Q 959 750 1161 570 
Q 1363 391 1709 391 
Q 2188 391 2477 730 
Q 2766 1069 2766 1631 
L 2766 1759 
L 2194 1759 
z
M 3341 1997 
L 3341 0 
L 2766 0 
L 2766 531 
Q 2569 213 2275 61 
Q 1981 -91 1556 -91 
Q 1019 -91 701 211 
Q 384 513 384 1019 
Q 384 1609 779 1909 
Q 1175 2209 1959 2209 
L 2766 2209 
L 2766 2266 
Q 2766 2663 2505 2880 
Q 2244 3097 1772 3097 
Q 1472 3097 1187 3025 
Q 903 2953 641 2809 
L 641 3341 
Q 956 3463 1253 3523 
Q 1550 3584 1831 3584 
Q 2591 3584 2966 3190 
Q 3341 2797 3341 1997 
z
" transform="scale(0.015625)"/>
       <path id="DejaVuSans-67" d="M 2906 1791 
Q 2906 2416 2648 2759 
Q 2391 3103 1925 3103 
Q 1463 3103 1205 2759 
Q 947 2416 947 1791 
Q 947 1169 1205 825 
Q 1463 481 1925 481 
Q 2391 481 2648 825 
Q 2906 1169 2906 1791 
z
M 3481 434 
Q 3481 -459 3084 -895 
Q 2688 -1331 1869 -1331 
Q 1566 -1331 1297 -1286 
Q 1028 -1241 775 -1147 
L 775 -588 
Q 1028 -725 1275 -790 
Q 1522 -856 1778 -856 
Q 2344 -856 2625 -561 
Q 2906 -266 2906 331 
L 2906 616 
Q 2728 306 2450 153 
Q 2172 0 1784 0 
Q 1141 0 747 490 
Q 353 981 353 1791 
Q 353 2603 747 3093 
Q 1141 3584 1784 3584 
Q 2172 3584 2450 3431 
Q 2728 3278 2906 2969 
L 2906 3500 
L 3481 3500 
L 3481 434 
z
" transform="scale(0.015625)"/>
       <path id="DejaVuSans-20" transform="scale(0.015625)"/>
       <path id="DejaVuSans-6f" d="M 1959 3097 
Q 1497 3097 1228 2736 
Q 959 2375 959 1747 
Q 959 1119 1226 758 
Q 1494 397 1959 397 
Q 2419 397 2687 759 
Q 2956 1122 2956 1747 
Q 2956 2369 2687 2733 
Q 2419 3097 1959 3097 
z
M 1959 3584 
Q 2709 3584 3137 3096 
Q 3566 2609 3566 1747 
Q 3566 888 3137 398 
Q 2709 -91 1959 -91 
Q 1206 -91 779 398 
Q 353 888 353 1747 
Q 353 2609 779 3096 
Q 1206 3584 1959 3584 
z
" transform="scale(0.015625)"/>
       <path id="DejaVuSans-66" d="M 2375 4863 
L 2375 4384 
L 1825 4384 
Q 1516 4384 1395 4259 
Q 1275 4134 1275 3809 
L 1275 3500 
L 2222 3500 
L 2222 3053 
L 1275 3053 
L 1275 0 
L 697 0 
L 697 3053 
L 147 3053 
L 147 3500 
L 697 3500 
L 697 3744 
Q 697 4328 969 4595 
Q 1241 4863 1831 4863 
L 2375 4863 
z
" transform="scale(0.015625)"/>
       <path id="DejaVuSans-52" d="M 2841 2188 
Q 3044 2119 3236 1894 
Q 3428 1669 3622 1275 
L 4263 0 
L 3584 0 
L 2988 1197 
Q 2756 1666 2539 1819 
Q 2322 1972 1947 1972 
L 1259 1972 
L 1259 0 
L 628 0 
L 628 4666 
L 2053 4666 
Q 2853 4666 3247 4331 
Q 3641 3997 3641 3322 
Q 3641 2881 3436 2590 
Q 3231 2300 2841 2188 
z
M 1259 4147 
L 1259 2491 
L 2053 2491 
Q 2509 2491 2742 2702 
Q 2975 2913 2975 3322 
Q 2975 3731 2742 3939 
Q 2509 4147 2053 4147 
L 1259 4147 
z
" transform="scale(0.015625)"/>
       <path id="DejaVuSans-75" d="M 544 1381 
L 544 3500 
L 1119 3500 
L 1119 1403 
Q 1119 906 1312 657 
Q 1506 409 1894 409 
Q 2359 409 2629 706 
Q 2900 1003 2900 1516 
L 2900 3500 
L 3475 3500 
L 3475 0 
L 2900 0 
L 2900 538 
Q 2691 219 2414 64 
Q 2138 -91 1772 -91 
Q 1169 -91 856 284 
Q 544 659 544 1381 
z
M 1991 3584 
L 1991 3584 
z
" transform="scale(0.015625)"/>
       <path id="DejaVuSans-69" d="M 603 3500 
L 1178 3500 
L 1178 0 
L 603 0 
L 603 3500 
z
M 603 4863 
L 1178 4863 
L 1178 4134 
L 603 4134 
L 603 4863 
z
" transform="scale(0.015625)"/>
       <path id="DejaVuSans-6d" d="M 3328 2828 
Q 3544 3216 3844 3400 
Q 4144 3584 4550 3584 
Q 5097 3584 5394 3201 
Q 5691 2819 5691 2113 
L 5691 0 
L 5113 0 
L 5113 2094 
Q 5113 2597 4934 2840 
Q 4756 3084 4391 3084 
Q 3944 3084 3684 2787 
Q 3425 2491 3425 1978 
L 3425 0 
L 2847 0 
L 2847 2094 
Q 2847 2600 2669 2842 
Q 2491 3084 2119 3084 
Q 1678 3084 1418 2786 
Q 1159 2488 1159 1978 
L 1159 0 
L 581 0 
L 581 3500 
L 1159 3500 
L 1159 2956 
Q 1356 3278 1631 3431 
Q 1906 3584 2284 3584 
Q 2666 3584 2933 3390 
Q 3200 3197 3328 2828 
z
" transform="scale(0.015625)"/>
      </defs>
      <use xlink:href="#DejaVuSans-50"/>
      <use xlink:href="#DejaVuSans-65" transform="translate(56.677734 0)"/>
      <use xlink:href="#DejaVuSans-72" transform="translate(118.201172 0)"/>
      <use xlink:href="#DejaVuSans-63" transform="translate(157.064453 0)"/>
      <use xlink:href="#DejaVuSans-65" transform="translate(212.044922 0)"/>
      <use xlink:href="#DejaVuSans-6e" transform="translate(273.568359 0)"/>
      <use xlink:href="#DejaVuSans-74" transform="translate(336.947266 0)"/>
      <use xlink:href="#DejaVuSans-61" transform="translate(376.15625 0)"/>
      <use xlink:href="#DejaVuSans-67" transform="translate(437.435547 0)"/>
      <use xlink:href="#DejaVuSans-65" transform="translate(500.912109 0)"/>
      <use xlink:href="#DejaVuSans-20" transform="translate(562.435547 0)"/>
      <use xlink:href="#DejaVuSans-6f" transform="translate(594.222656 0)"/>
      <use xlink:href="#DejaVuSans-66" transform="translate(655.404297 0)"/>
      <use xlink:href="#DejaVuSans-20" transform="translate(690.609375 0)"/>
      <use xlink:href="#DejaVuSans-52" transform="translate(722.396484 0)"/>
      <use xlink:href="#DejaVuSans-75" transform="translate(787.378906 0)"/>
      <use xlink:href="#DejaVuSans-6e" transform="translate(850.757812 0)"/>
      <use xlink:href="#DejaVuSans-74" transform="translate(914.136719 0)"/>
      <use xlink:href="#DejaVuSans-69" transform="translate(953.345703 0)"/>
      <use xlink:href="#DejaVuSans-6d" transform="translate(981.128906 0)"/>
      <use xlink:href="#DejaVuSans-65" transform="translate(1078.541016 0)"/>
     </g>
    </g>
   </g>
   <g id="matplotlib.axis_2">
    <g id="ytick_1">
     <g id="line2d_13">
      <path d="M 144 246.24 
L 1036.8 246.24 
" clip-path="url(#pe775af45eb)" style="fill: none; stroke: #000000; stroke-opacity: 0.1; stroke-width: 0.8; stroke-linecap: square"/>
     </g>
     <g id="line2d_14">
      <defs>
       <path id="mbca2f2ed4a" d="M 0 0 
L -3.5 0 
" style="stroke: #000000; stroke-width: 0.8"/>
      </defs>
      <g>
       <use xlink:href="#mbca2f2ed4a" x="144" y="246.24" style="stroke: #000000; stroke-width: 0.8"/>
      </g>
     </g>
     <g id="text_8">
      <!-- 0 -->
      <g transform="translate(130.6375 250.039219) scale(0.1 -0.1)">
       <use xlink:href="#DejaVuSans-30"/>
      </g>
     </g>
    </g>
    <g id="ytick_2">
     <g id="line2d_15">
      <path d="M 144 209.664694 
L 1036.8 209.664694 
" clip-path="url(#pe775af45eb)" style="fill: none; stroke: #000000; stroke-opacity: 0.1; stroke-width: 0.8; stroke-linecap: square"/>
     </g>
     <g id="line2d_16">
      <g>
       <use xlink:href="#mbca2f2ed4a" x="144" y="209.664694" style="stroke: #000000; stroke-width: 0.8"/>
      </g>
     </g>
     <g id="text_9">
      <!-- 10 -->
      <g transform="translate(124.275 213.463913) scale(0.1 -0.1)">
       <use xlink:href="#DejaVuSans-31"/>
       <use xlink:href="#DejaVuSans-30" transform="translate(63.623047 0)"/>
      </g>
     </g>
    </g>
    <g id="ytick_3">
     <g id="line2d_17">
      <path d="M 144 173.089388 
L 1036.8 173.089388 
" clip-path="url(#pe775af45eb)" style="fill: none; stroke: #000000; stroke-opacity: 0.1; stroke-width: 0.8; stroke-linecap: square"/>
     </g>
     <g id="line2d_18">
      <g>
       <use xlink:href="#mbca2f2ed4a" x="144" y="173.089388" style="stroke: #000000; stroke-width: 0.8"/>
      </g>
     </g>
     <g id="text_10">
      <!-- 20 -->
      <g transform="translate(124.275 176.888606) scale(0.1 -0.1)">
       <use xlink:href="#DejaVuSans-32"/>
       <use xlink:href="#DejaVuSans-30" transform="translate(63.623047 0)"/>
      </g>
     </g>
    </g>
    <g id="ytick_4">
     <g id="line2d_19">
      <path d="M 144 136.514082 
L 1036.8 136.514082 
" clip-path="url(#pe775af45eb)" style="fill: none; stroke: #000000; stroke-opacity: 0.1; stroke-width: 0.8; stroke-linecap: square"/>
     </g>
     <g id="line2d_20">
      <g>
       <use xlink:href="#mbca2f2ed4a" x="144" y="136.514082" style="stroke: #000000; stroke-width: 0.8"/>
      </g>
     </g>
     <g id="text_11">
      <!-- 30 -->
      <g transform="translate(124.275 140.3133) scale(0.1 -0.1)">
       <defs>
        <path id="DejaVuSans-33" d="M 2597 2516 
Q 3050 2419 3304 2112 
Q 3559 1806 3559 1356 
Q 3559 666 3084 287 
Q 2609 -91 1734 -91 
Q 1441 -91 1130 -33 
Q 819 25 488 141 
L 488 750 
Q 750 597 1062 519 
Q 1375 441 1716 441 
Q 2309 441 2620 675 
Q 2931 909 2931 1356 
Q 2931 1769 2642 2001 
Q 2353 2234 1838 2234 
L 1294 2234 
L 1294 2753 
L 1863 2753 
Q 2328 2753 2575 2939 
Q 2822 3125 2822 3475 
Q 2822 3834 2567 4026 
Q 2313 4219 1838 4219 
Q 1578 4219 1281 4162 
Q 984 4106 628 3988 
L 628 4550 
Q 988 4650 1302 4700 
Q 1616 4750 1894 4750 
Q 2613 4750 3031 4423 
Q 3450 4097 3450 3541 
Q 3450 3153 3228 2886 
Q 3006 2619 2597 2516 
z
" transform="scale(0.015625)"/>
       </defs>
       <use xlink:href="#DejaVuSans-33"/>
       <use xlink:href="#DejaVuSans-30" transform="translate(63.623047 0)"/>
      </g>
     </g>
    </g>
    <g id="ytick_5">
     <g id="line2d_21">
      <path d="M 144 99.938775 
L 1036.8 99.938775 
" clip-path="url(#pe775af45eb)" style="fill: none; stroke: #000000; stroke-opacity: 0.1; stroke-width: 0.8; stroke-linecap: square"/>
     </g>
     <g id="line2d_22">
      <g>
       <use xlink:href="#mbca2f2ed4a" x="144" y="99.938775" style="stroke: #000000; stroke-width: 0.8"/>
      </g>
     </g>
     <g id="text_12">
      <!-- 40 -->
      <g transform="translate(124.275 103.737994) scale(0.1 -0.1)">
       <use xlink:href="#DejaVuSans-34"/>
       <use xlink:href="#DejaVuSans-30" transform="translate(63.623047 0)"/>
      </g>
     </g>
    </g>
    <g id="ytick_6">
     <g id="line2d_23">
      <path d="M 144 63.363469 
L 1036.8 63.363469 
" clip-path="url(#pe775af45eb)" style="fill: none; stroke: #000000; stroke-opacity: 0.1; stroke-width: 0.8; stroke-linecap: square"/>
     </g>
     <g id="line2d_24">
      <g>
       <use xlink:href="#mbca2f2ed4a" x="144" y="63.363469" style="stroke: #000000; stroke-width: 0.8"/>
      </g>
     </g>
     <g id="text_13">
      <!-- 50 -->
      <g transform="translate(124.275 67.162688) scale(0.1 -0.1)">
       <defs>
        <path id="DejaVuSans-35" d="M 691 4666 
L 3169 4666 
L 3169 4134 
L 1269 4134 
L 1269 2991 
Q 1406 3038 1543 3061 
Q 1681 3084 1819 3084 
Q 2600 3084 3056 2656 
Q 3513 2228 3513 1497 
Q 3513 744 3044 326 
Q 2575 -91 1722 -91 
Q 1428 -91 1123 -41 
Q 819 9 494 109 
L 494 744 
Q 775 591 1075 516 
Q 1375 441 1709 441 
Q 2250 441 2565 725 
Q 2881 1009 2881 1497 
Q 2881 1984 2565 2268 
Q 2250 2553 1709 2553 
Q 1456 2553 1204 2497 
Q 953 2441 691 2322 
L 691 4666 
z
" transform="scale(0.015625)"/>
       </defs>
       <use xlink:href="#DejaVuSans-35"/>
       <use xlink:href="#DejaVuSans-30" transform="translate(63.623047 0)"/>
      </g>
     </g>
    </g>
    <g id="text_14">
     <!-- Disk Usage [ GB ] -->
     <g transform="translate(118.195312 189.320469) rotate(-90) scale(0.1 -0.1)">
      <defs>
       <path id="DejaVuSans-44" d="M 1259 4147 
L 1259 519 
L 2022 519 
Q 2988 519 3436 956 
Q 3884 1394 3884 2338 
Q 3884 3275 3436 3711 
Q 2988 4147 2022 4147 
L 1259 4147 
z
M 628 4666 
L 1925 4666 
Q 3281 4666 3915 4102 
Q 4550 3538 4550 2338 
Q 4550 1131 3912 565 
Q 3275 0 1925 0 
L 628 0 
L 628 4666 
z
" transform="scale(0.015625)"/>
       <path id="DejaVuSans-73" d="M 2834 3397 
L 2834 2853 
Q 2591 2978 2328 3040 
Q 2066 3103 1784 3103 
Q 1356 3103 1142 2972 
Q 928 2841 928 2578 
Q 928 2378 1081 2264 
Q 1234 2150 1697 2047 
L 1894 2003 
Q 2506 1872 2764 1633 
Q 3022 1394 3022 966 
Q 3022 478 2636 193 
Q 2250 -91 1575 -91 
Q 1294 -91 989 -36 
Q 684 19 347 128 
L 347 722 
Q 666 556 975 473 
Q 1284 391 1588 391 
Q 1994 391 2212 530 
Q 2431 669 2431 922 
Q 2431 1156 2273 1281 
Q 2116 1406 1581 1522 
L 1381 1569 
Q 847 1681 609 1914 
Q 372 2147 372 2553 
Q 372 3047 722 3315 
Q 1072 3584 1716 3584 
Q 2034 3584 2315 3537 
Q 2597 3491 2834 3397 
z
" transform="scale(0.015625)"/>
       <path id="DejaVuSans-6b" d="M 581 4863 
L 1159 4863 
L 1159 1991 
L 2875 3500 
L 3609 3500 
L 1753 1863 
L 3688 0 
L 2938 0 
L 1159 1709 
L 1159 0 
L 581 0 
L 581 4863 
z
" transform="scale(0.015625)"/>
       <path id="DejaVuSans-55" d="M 556 4666 
L 1191 4666 
L 1191 1831 
Q 1191 1081 1462 751 
Q 1734 422 2344 422 
Q 2950 422 3222 751 
Q 3494 1081 3494 1831 
L 3494 4666 
L 4128 4666 
L 4128 1753 
Q 4128 841 3676 375 
Q 3225 -91 2344 -91 
Q 1459 -91 1007 375 
Q 556 841 556 1753 
L 556 4666 
z
" transform="scale(0.015625)"/>
       <path id="DejaVuSans-5b" d="M 550 4863 
L 1875 4863 
L 1875 4416 
L 1125 4416 
L 1125 -397 
L 1875 -397 
L 1875 -844 
L 550 -844 
L 550 4863 
z
" transform="scale(0.015625)"/>
       <path id="DejaVuSans-47" d="M 3809 666 
L 3809 1919 
L 2778 1919 
L 2778 2438 
L 4434 2438 
L 4434 434 
Q 4069 175 3628 42 
Q 3188 -91 2688 -91 
Q 1594 -91 976 548 
Q 359 1188 359 2328 
Q 359 3472 976 4111 
Q 1594 4750 2688 4750 
Q 3144 4750 3555 4637 
Q 3966 4525 4313 4306 
L 4313 3634 
Q 3963 3931 3569 4081 
Q 3175 4231 2741 4231 
Q 1884 4231 1454 3753 
Q 1025 3275 1025 2328 
Q 1025 1384 1454 906 
Q 1884 428 2741 428 
Q 3075 428 3337 486 
Q 3600 544 3809 666 
z
" transform="scale(0.015625)"/>
       <path id="DejaVuSans-42" d="M 1259 2228 
L 1259 519 
L 2272 519 
Q 2781 519 3026 730 
Q 3272 941 3272 1375 
Q 3272 1813 3026 2020 
Q 2781 2228 2272 2228 
L 1259 2228 
z
M 1259 4147 
L 1259 2741 
L 2194 2741 
Q 2656 2741 2882 2914 
Q 3109 3088 3109 3444 
Q 3109 3797 2882 3972 
Q 2656 4147 2194 4147 
L 1259 4147 
z
M 628 4666 
L 2241 4666 
Q 2963 4666 3353 4366 
Q 3744 4066 3744 3513 
Q 3744 3084 3544 2831 
Q 3344 2578 2956 2516 
Q 3422 2416 3680 2098 
Q 3938 1781 3938 1306 
Q 3938 681 3513 340 
Q 3088 0 2303 0 
L 628 0 
L 628 4666 
z
" transform="scale(0.015625)"/>
       <path id="DejaVuSans-5d" d="M 1947 4863 
L 1947 -844 
L 622 -844 
L 622 -397 
L 1369 -397 
L 1369 4416 
L 622 4416 
L 622 4863 
L 1947 4863 
z
" transform="scale(0.015625)"/>
      </defs>
      <use xlink:href="#DejaVuSans-44"/>
      <use xlink:href="#DejaVuSans-69" transform="translate(77.001953 0)"/>
      <use xlink:href="#DejaVuSans-73" transform="translate(104.785156 0)"/>
      <use xlink:href="#DejaVuSans-6b" transform="translate(156.884766 0)"/>
      <use xlink:href="#DejaVuSans-20" transform="translate(214.794922 0)"/>
      <use xlink:href="#DejaVuSans-55" transform="translate(246.582031 0)"/>
      <use xlink:href="#DejaVuSans-73" transform="translate(319.775391 0)"/>
      <use xlink:href="#DejaVuSans-61" transform="translate(371.875 0)"/>
      <use xlink:href="#DejaVuSans-67" transform="translate(433.154297 0)"/>
      <use xlink:href="#DejaVuSans-65" transform="translate(496.630859 0)"/>
      <use xlink:href="#DejaVuSans-20" transform="translate(558.154297 0)"/>
      <use xlink:href="#DejaVuSans-5b" transform="translate(589.941406 0)"/>
      <use xlink:href="#DejaVuSans-20" transform="translate(628.955078 0)"/>
      <use xlink:href="#DejaVuSans-47" transform="translate(660.742188 0)"/>
      <use xlink:href="#DejaVuSans-42" transform="translate(738.232422 0)"/>
      <use xlink:href="#DejaVuSans-20" transform="translate(806.835938 0)"/>
      <use xlink:href="#DejaVuSans-5d" transform="translate(838.623047 0)"/>
     </g>
    </g>
   </g>
   <g id="line2d_25">
    <path d="M 184.581818 246.24 
L 187.909965 246.239972 
L 191.299744 245.482749 
L 198.048486 241.939516 
L 205.290286 238.267698 
L 212.069844 234.645886 
L 218.880219 231.124084 
L 222.300814 228.438085 
L 225.783041 227.080798 
L 229.17282 224.366225 
L 232.685864 222.316007 
L 236.26054 220.065769 
L 239.742768 218.172711 
L 243.132547 217.129743 
L 250.097002 212.786425 
L 253.794943 211.186256 
L 257.646964 209.243193 
L 261.129192 207.30013 
L 264.642236 205.471364 
L 268.216912 204.214088 
L 271.729955 201.813834 
L 275.088918 200.327962 
L 278.601962 198.613494 
L 285.412336 194.841666 
L 288.832931 193.470092 
L 292.22271 191.412731 
L 295.674122 189.812561 
L 299.341246 187.983796 
L 302.761842 186.497924 
L 306.213253 184.211968 
L 309.69548 182.726096 
L 313.208524 180.89733 
L 316.629119 178.725672 
L 320.018898 177.2398 
L 323.408677 175.296737 
L 330.249868 171.867802 
L 333.578014 169.810441 
L 337.121874 168.210271 
L 344.363675 164.095549 
L 347.753454 162.838273 
L 351.420579 160.552316 
L 355.210968 158.380658 
L 358.693195 157.009084 
L 362.175423 154.608829 
L 365.780915 152.780064 
L 369.20151 151.40849 
L 372.652922 149.122533 
L 376.104333 147.522364 
L 382.883891 143.979131 
L 386.150406 142.378961 
L 389.601817 140.550196 
L 392.899147 138.607133 
L 396.412191 136.892665 
L 403.499911 133.120837 
L 406.920506 131.177774 
L 421.21921 124.091308 
L 424.76307 121.805351 
L 431.511812 118.605012 
L 435.024856 116.776247 
L 438.445451 114.718886 
L 442.112576 112.661525 
L 445.533171 111.175653 
L 449.015398 108.889697 
L 452.744155 107.060931 
L 456.472912 105.803655 
L 459.893507 103.517698 
L 463.406551 101.460337 
L 467.073676 99.74587 
L 470.463455 97.802807 
L 473.822418 96.088339 
L 477.335461 94.030978 
L 480.663608 92.545107 
L 483.991755 90.830639 
L 487.381534 88.887576 
L 490.802129 87.173109 
L 494.50007 84.772854 
L 497.828216 83.629876 
L 501.217995 81.915408 
L 504.823488 79.515154 
L 508.151634 78.257878 
L 511.57223 76.086219 
L 514.992825 74.714645 
L 521.772383 70.485625 
L 525.162162 69.228349 
L 528.613573 67.170988 
L 531.880088 65.685116 
L 535.146602 64.42784 
L 538.505565 62.370479 
L 541.833711 61.456096 
L 545.131042 60.427416 
L 548.736534 60.084522 
L 555.362011 58.941544 
L 558.659342 58.598651 
L 562.54218 56.198396 
L 572.341723 52.083674 
L 578.9672 49.454824 
L 582.295347 51.747924 
L 585.592677 50.262052 
L 589.013272 53.469535 
L 599.090161 49.583409 
L 607.47216 54.905402 
L 610.800307 56.055524 
L 614.097637 54.68395 
L 617.425784 53.08378 
L 620.723114 51.712206 
L 624.390239 50.340632 
L 629.166746 54.233902 
L 632.494892 51.833648 
L 635.792223 54.01245 
L 658.472926 44.64 
L 664.050653 51.147833 
L 667.409616 58.820075 
L 670.706947 56.41982 
L 677.332424 53.676672 
L 680.629754 52.190801 
L 684.019533 50.933524 
L 687.34768 49.56195 
L 690.614194 51.855051 
L 693.911525 50.369179 
L 697.424569 48.997605 
L 704.173311 52.205088 
L 708.086965 49.46194 
L 711.415111 48.090366 
L 714.650809 54.112433 
L 718.009772 54.112433 
L 721.337919 55.148257 
L 727.747683 52.748002 
L 731.045013 51.490726 
L 736.622741 55.041103 
L 739.920071 52.755146 
L 743.217402 51.49787 
L 746.514732 53.676672 
L 766.267899 45.447228 
L 770.212369 52.512263 
L 781.275375 59.270122 
L 784.603522 56.984166 
L 787.900853 55.383996 
L 794.495514 52.640848 
L 804.418321 48.411828 
L 807.715652 50.819227 
L 811.012982 49.333355 
L 815.29643 53.45522 
L 818.593761 51.054966 
L 822.260885 49.683392 
L 828.793914 46.825946 
L 833.262259 53.733821 
L 836.55959 54.998241 
L 843.154251 52.255093 
L 847.59178 56.376959 
L 850.919926 53.862406 
L 857.853565 51.004961 
L 861.150896 53.183763 
L 871.042887 49.069041 
L 874.463482 52.162226 
L 878.068975 52.162226 
L 881.366305 57.60566 
L 884.663636 56.005491 
L 894.432363 51.890769 
L 897.729693 55.098252 
L 911.288809 49.38336 
L 916.0345 55.962629 
L 919.33183 58.141431 
L 925.926491 55.512581 
L 932.521152 52.769433 
L 935.849299 59.563011 
L 940.625806 57.277054 
L 947.559445 54.419608 
L 950.702694 52.933736 
L 954.000025 59.520149 
L 958.899796 57.234192 
L 968.760972 53.11947 
L 972.058302 59.598729 
L 977.297052 57.198474 
L 983.891713 54.569624 
L 987.312308 53.19805 
L 990.609638 59.64159 
L 996.218182 59.64159 
L 996.218182 59.64159 
" clip-path="url(#pe775af45eb)" style="fill: none; stroke: #1f77b4; stroke-width: 1.5; stroke-linecap: square"/>
   </g>
   <g id="line2d_26">
    <path d="M 184.652457 246.24 
L 193.106671 246.176489 
L 259.26671 244.439698 
L 263.416255 244.403979 
L 267.604581 244.153953 
L 271.754126 244.032512 
L 275.942452 244.032512 
L 292.579414 243.546746 
L 296.690178 243.546746 
L 317.360342 242.946682 
L 321.548668 242.939538 
L 325.54309 242.703799 
L 329.537512 242.703799 
L 337.836603 242.460916 
L 342.024929 242.453773 
L 350.3628 242.103736 
L 354.473565 242.096592 
L 358.506767 241.975151 
L 362.656313 241.968007 
L 370.994184 241.61797 
L 374.988606 241.610826 
L 391.470444 241.132204 
L 399.653192 241.010763 
L 403.841518 240.775023 
L 407.991063 240.76788 
L 424.589244 240.289258 
L 432.771992 240.167816 
L 449.21505 239.68205 
L 453.403376 239.68205 
L 461.624905 239.32487 
L 474.03476 239.196285 
L 477.990401 238.960545 
L 482.139946 238.839104 
L 486.289491 238.839104 
L 503.004014 238.353338 
L 507.037217 238.353338 
L 511.186762 238.231897 
L 515.336308 237.996157 
L 523.519056 237.874716 
L 527.668601 237.753274 
L 531.818146 237.746131 
L 536.006472 237.510391 
L 540.156017 237.510391 
L 581.341223 236.36027 
L 585.529549 236.36027 
L 589.717875 236.245972 
L 593.86742 236.017376 
L 597.939404 236.017376 
L 614.653927 235.560185 
L 618.803472 235.560185 
L 660.143801 234.417206 
L 664.293346 234.417206 
L 668.442891 234.188611 
L 672.592437 234.074313 
L 676.741982 234.074313 
L 751.084768 232.13125 
L 755.234314 232.13125 
L 771.910056 231.674058 
L 776.059601 231.674058 
L 780.170366 231.559733 
L 784.319911 231.331137 
L 788.66336 231.331137 
L 792.851686 231.216839 
L 796.96245 231.216839 
L 801.150776 230.988244 
L 850.712634 229.730967 
L 854.90096 229.730967 
L 859.089286 229.502372 
L 863.16127 229.502372 
L 871.499141 229.273776 
L 875.532344 229.273776 
L 879.643108 229.04518 
L 883.831434 228.930883 
L 887.980979 228.930883 
L 892.169305 228.816585 
L 896.357631 228.473691 
L 900.507177 228.473691 
L 904.695503 228.359393 
L 908.845048 228.359393 
L 912.994593 228.245096 
L 917.144138 228.0165 
L 921.332464 228.0165 
L 937.891864 227.559309 
L 942.041409 227.559309 
L 996.218182 226.187735 
L 996.218182 226.187735 
" clip-path="url(#pe775af45eb)" style="fill: none; stroke: #ff7f0e; stroke-width: 1.5; stroke-linecap: square"/>
   </g>
   <g id="line2d_27">
    <path d="M 185.138135 246.24 
L 203.99651 246.239972 
L 222.515095 244.555419 
L 240.863785 242.620141 
L 258.702789 240.747342 
L 276.371898 238.887546 
L 294.550692 236.979894 
L 313.069277 235.079219 
L 331.587862 233.150889 
L 349.596762 231.277867 
L 368.455137 229.090163 
L 386.973722 227.261398 
L 405.492307 225.54693 
L 423.331311 223.603867 
L 441.680001 221.775102 
L 460.198586 219.832039 
L 478.207486 218.003273 
L 496.726071 216.06021 
L 515.07476 214.117147 
L 532.913764 212.288382 
L 551.092559 210.459616 
L 569.101458 208.516553 
L 587.959834 206.57349 
L 606.308524 204.630427 
L 624.997004 202.801662 
L 643.515589 200.972896 
L 662.54386 198.915535 
L 681.062445 196.972472 
L 699.58103 195.258005 
L 718.099615 193.200644 
L 736.6182 191.257581 
L 754.796995 189.314517 
L 773.485475 187.485752 
L 791.66427 185.656987 
L 810.012959 183.828222 
L 829.381021 182.113754 
L 847.38992 180.284989 
L 865.908505 178.227628 
L 884.42709 176.284565 
L 903.115571 174.684395 
L 921.634156 172.741332 
L 940.832322 170.798269 
L 959.181012 168.855206 
L 978.039387 166.797845 
L 996.218182 166.112058 
" clip-path="url(#pe775af45eb)" style="fill: none; stroke: #2ca02c; stroke-width: 1.5; stroke-linecap: square"/>
   </g>
   <g id="line2d_28">
    <path d="M 184.741594 246.24 
L 193.728124 246.239972 
L 201.299452 246.22588 
L 209.083061 246.050471 
L 216.583629 245.867583 
L 224.508758 245.685226 
L 232.080087 245.509817 
L 239.792935 245.326901 
L 247.364264 245.151157 
L 255.147873 244.95454 
L 263.073001 244.726921 
L 270.57357 244.555474 
L 278.286418 244.284017 
L 285.928507 244.162576 
L 293.641356 243.926836 
L 300.929644 243.683953 
L 308.571732 243.569656 
L 316.426101 243.326773 
L 324.06819 243.205331 
L 331.781038 243.091033 
L 339.635407 242.84815 
L 347.206736 242.726709 
L 354.919584 242.49097 
L 362.561673 242.369528 
L 370.133001 242.133789 
L 377.77509 241.89805 
L 385.346418 241.776608 
L 392.988507 241.540869 
L 400.630595 241.419428 
L 408.343444 241.297986 
L 416.127053 241.062247 
L 423.486101 240.940805 
L 431.057429 240.705066 
L 438.628758 240.583625 
L 446.200086 240.462183 
L 454.125215 240.112146 
L 461.696544 239.990705 
L 469.550912 239.754965 
L 477.122241 239.633524 
L 484.97661 239.512082 
L 492.689458 239.276343 
L 500.331547 239.147758 
L 507.902875 238.919162 
L 515.828004 238.797721 
L 523.682373 238.447684 
L 531.395222 238.326242 
L 539.10807 238.204801 
L 546.325598 237.969062 
L 553.967687 237.84762 
L 561.539015 237.726179 
L 569.605664 237.49044 
L 577.106233 237.368998 
L 584.677561 237.133259 
L 592.24889 237.011817 
L 599.961738 236.890376 
L 607.320787 236.654637 
L 614.892115 236.533195 
L 622.675724 236.297456 
L 630.388572 236.176015 
L 638.101421 236.054573 
L 645.95579 235.704536 
L 653.597878 235.583095 
L 661.806048 235.347355 
L 669.377376 235.225914 
L 677.019465 235.104472 
L 684.590793 234.868733 
L 692.162122 234.747292 
L 699.59193 234.404398 
L 707.163258 234.175802 
L 714.876107 233.947207 
L 722.447435 233.832909 
L 729.877244 233.718611 
L 737.660853 233.490015 
L 745.444461 233.375718 
L 753.08655 233.147122 
L 760.728638 233.032824 
L 768.299967 232.918526 
L 776.012815 232.575633 
L 783.654904 232.461335 
L 791.226232 232.232739 
L 798.726801 232.118442 
L 806.085849 232.004144 
L 813.657178 231.775548 
L 821.299266 231.66125 
L 828.870595 231.318357 
L 836.441923 231.204059 
L 843.942491 231.089761 
L 851.51382 230.861165 
L 859.085148 230.746868 
L 866.727237 230.518272 
L 874.440086 230.403974 
L 881.869894 230.289676 
L 889.441222 230.061081 
L 897.295591 229.832485 
L 904.654639 229.603889 
L 912.225968 229.489591 
L 919.938816 229.375294 
L 927.651665 229.146698 
L 935.222994 229.0324 
L 942.865082 228.803804 
L 950.436411 228.575209 
L 958.149259 228.346613 
L 965.791348 228.118017 
L 973.504196 228.00372 
L 981.075525 227.775124 
L 988.646853 227.660826 
L 996.218182 227.660826 
" clip-path="url(#pe775af45eb)" style="fill: none; stroke: #d62728; stroke-width: 1.5; stroke-linecap: square"/>
   </g>
   <g id="line2d_29">
    <path d="M 185.243431 246.24 
L 206.631345 246.239972 
L 228.607917 246.112978 
L 249.995831 245.809095 
L 271.776183 245.496283 
L 293.948975 245.17789 
L 316.121766 244.86731 
L 338.294558 244.557567 
L 361.056007 244.238616 
L 382.64014 243.940314 
L 405.009151 243.581962 
L 427.378162 243.239068 
L 449.354734 242.896175 
L 471.135086 242.667579 
L 492.915439 242.324685 
L 514.892011 241.981792 
L 536.279925 241.753196 
L 558.256497 241.410303 
L 580.625508 241.067409 
L 602.60208 240.724516 
L 625.16731 240.49592 
L 646.947662 240.153027 
L 668.924235 239.810133 
L 690.704587 239.581537 
L 712.28872 239.238644 
L 735.05017 238.89575 
L 756.830523 238.552857 
L 778.807095 238.324261 
L 800.979886 237.981368 
L 822.956458 237.638474 
L 844.93303 237.295581 
L 866.517163 237.066985 
L 887.708858 236.724092 
L 910.470307 236.381198 
L 932.643099 236.152602 
L 955.012109 235.809709 
L 975.222707 235.581113 
L 996.218182 235.581113 
" clip-path="url(#pe775af45eb)" style="fill: none; stroke: #9467bd; stroke-width: 1.5; stroke-linecap: square"/>
   </g>
   <g id="line2d_30">
    <path d="M 184.810803 246.24 
L 194.673797 246.239972 
L 204.096479 246.101118 
L 213.607223 245.922444 
L 223.117967 245.734143 
L 232.364524 245.556083 
L 241.787206 245.373781 
L 251.29795 245.191675 
L 260.808694 245.009094 
L 270.231376 244.823667 
L 279.74212 244.531393 
L 288.900615 244.417095 
L 298.059109 244.188499 
L 307.129541 244.074201 
L 316.640285 243.845606 
L 326.062967 243.731308 
L 335.573711 243.502712 
L 345.084455 243.274116 
L 354.154887 243.159819 
L 363.577569 242.931223 
L 373.088313 242.816925 
L 382.246807 242.588329 
L 391.757552 242.474032 
L 401.268296 242.245436 
L 410.690978 242.01684 
L 420.201722 241.902542 
L 429.712466 241.673947 
L 438.959023 241.559649 
L 448.557829 241.331053 
L 458.068574 241.102458 
L 467.579318 240.98816 
L 476.64975 240.759564 
L 486.160494 240.645266 
L 495.495113 240.416671 
L 505.09392 240.302373 
L 514.516602 240.073777 
L 524.115408 239.959479 
L 533.802277 239.730884 
L 543.313021 239.502288 
L 552.823766 239.38799 
L 562.33451 239.159394 
L 571.845254 239.045097 
L 581.267936 238.816501 
L 590.602555 238.702203 
L 600.201362 238.473607 
L 609.447918 238.35931 
L 618.958663 238.130714 
L 628.381344 237.902118 
L 637.627901 237.78782 
L 647.138645 237.673523 
L 656.561327 237.444927 
L 665.895946 237.216331 
L 675.318628 237.102033 
L 684.829372 236.873438 
L 694.252054 236.75914 
L 703.762798 236.530544 
L 713.18548 236.416246 
L 722.696224 236.187651 
L 732.206968 236.073353 
L 741.717713 235.844757 
L 751.228457 235.616162 
L 760.915326 235.501864 
L 770.338008 235.273268 
L 779.848752 235.15897 
L 789.271433 234.930375 
L 798.606053 234.816077 
L 807.764547 234.587481 
L 817.187229 234.473183 
L 826.609911 234.244588 
L 836.120655 234.015992 
L 845.631399 233.901694 
L 855.054081 233.673099 
L 864.564825 233.558801 
L 874.075569 233.330205 
L 883.586313 233.215907 
L 892.744808 232.987312 
L 902.167489 232.873014 
L 911.414046 232.644418 
L 920.748665 232.53012 
L 930.171347 232.301525 
L 939.682091 232.187227 
L 949.104773 231.958631 
L 958.615517 231.730035 
L 968.126262 231.615738 
L 977.372818 231.387142 
L 986.7955 231.272844 
L 996.218182 231.158546 
" clip-path="url(#pe775af45eb)" style="fill: none; stroke: #8c564b; stroke-width: 1.5; stroke-linecap: square"/>
   </g>
   <g id="line2d_31"/>
   <g id="line2d_32"/>
   <g id="line2d_33"/>
   <g id="line2d_34"/>
   <g id="line2d_35"/>
   <g id="line2d_36"/>
   <g id="patch_3">
    <path d="M 144 256.32 
L 144 34.56 
" style="fill: none; stroke: #000000; stroke-width: 0.8; stroke-linejoin: miter; stroke-linecap: square"/>
   </g>
   <g id="patch_4">
    <path d="M 1036.8 256.32 
L 1036.8 34.56 
" style="fill: none; stroke: #000000; stroke-width: 0.8; stroke-linejoin: miter; stroke-linecap: square"/>
   </g>
   <g id="patch_5">
    <path d="M 144 256.32 
L 1036.8 256.32 
" style="fill: none; stroke: #000000; stroke-width: 0.8; stroke-linejoin: miter; stroke-linecap: square"/>
   </g>
   <g id="patch_6">
    <path d="M 144 34.56 
L 1036.8 34.56 
" style="fill: none; stroke: #000000; stroke-width: 0.8; stroke-linejoin: miter; stroke-linecap: square"/>
   </g>
   <g id="text_15">
    <!-- Disk Usage as a Function of Runtime -->
    <g transform="translate(480.537187 28.56) scale(0.12 -0.12)">
     <defs>
      <path id="DejaVuSans-46" d="M 628 4666 
L 3309 4666 
L 3309 4134 
L 1259 4134 
L 1259 2759 
L 3109 2759 
L 3109 2228 
L 1259 2228 
L 1259 0 
L 628 0 
L 628 4666 
z
" transform="scale(0.015625)"/>
     </defs>
     <use xlink:href="#DejaVuSans-44"/>
     <use xlink:href="#DejaVuSans-69" transform="translate(77.001953 0)"/>
     <use xlink:href="#DejaVuSans-73" transform="translate(104.785156 0)"/>
     <use xlink:href="#DejaVuSans-6b" transform="translate(156.884766 0)"/>
     <use xlink:href="#DejaVuSans-20" transform="translate(214.794922 0)"/>
     <use xlink:href="#DejaVuSans-55" transform="translate(246.582031 0)"/>
     <use xlink:href="#DejaVuSans-73" transform="translate(319.775391 0)"/>
     <use xlink:href="#DejaVuSans-61" transform="translate(371.875 0)"/>
     <use xlink:href="#DejaVuSans-67" transform="translate(433.154297 0)"/>
     <use xlink:href="#DejaVuSans-65" transform="translate(496.630859 0)"/>
     <use xlink:href="#DejaVuSans-20" transform="translate(558.154297 0)"/>
     <use xlink:href="#DejaVuSans-61" transform="translate(589.941406 0)"/>
     <use xlink:href="#DejaVuSans-73" transform="translate(651.220703 0)"/>
     <use xlink:href="#DejaVuSans-20" transform="translate(703.320312 0)"/>
     <use xlink:href="#DejaVuSans-61" transform="translate(735.107422 0)"/>
     <use xlink:href="#DejaVuSans-20" transform="translate(796.386719 0)"/>
     <use xlink:href="#DejaVuSans-46" transform="translate(828.173828 0)"/>
     <use xlink:href="#DejaVuSans-75" transform="translate(880.193359 0)"/>
     <use xlink:href="#DejaVuSans-6e" transform="translate(943.572266 0)"/>
     <use xlink:href="#DejaVuSans-63" transform="translate(1006.951172 0)"/>
     <use xlink:href="#DejaVuSans-74" transform="translate(1061.931641 0)"/>
     <use xlink:href="#DejaVuSans-69" transform="translate(1101.140625 0)"/>
     <use xlink:href="#DejaVuSans-6f" transform="translate(1128.923828 0)"/>
     <use xlink:href="#DejaVuSans-6e" transform="translate(1190.105469 0)"/>
     <use xlink:href="#DejaVuSans-20" transform="translate(1253.484375 0)"/>
     <use xlink:href="#DejaVuSans-6f" transform="translate(1285.271484 0)"/>
     <use xlink:href="#DejaVuSans-66" transform="translate(1346.453125 0)"/>
     <use xlink:href="#DejaVuSans-20" transform="translate(1381.658203 0)"/>
     <use xlink:href="#DejaVuSans-52" transform="translate(1413.445312 0)"/>
     <use xlink:href="#DejaVuSans-75" transform="translate(1478.427734 0)"/>
     <use xlink:href="#DejaVuSans-6e" transform="translate(1541.806641 0)"/>
     <use xlink:href="#DejaVuSans-74" transform="translate(1605.185547 0)"/>
     <use xlink:href="#DejaVuSans-69" transform="translate(1644.394531 0)"/>
     <use xlink:href="#DejaVuSans-6d" transform="translate(1672.177734 0)"/>
     <use xlink:href="#DejaVuSans-65" transform="translate(1769.589844 0)"/>
    </g>
   </g>
   <g id="legend_1">
    <g id="patch_7">
     <path d="M 151 130.62875 
L 327.546875 130.62875 
Q 329.546875 130.62875 329.546875 128.62875 
L 329.546875 41.56 
Q 329.546875 39.56 327.546875 39.56 
L 151 39.56 
Q 149 39.56 149 41.56 
L 149 128.62875 
Q 149 130.62875 151 130.62875 
z
" style="fill: #ffffff; opacity: 0.8; stroke: #cccccc; stroke-linejoin: miter"/>
    </g>
    <g id="line2d_37">
     <path d="M 153 47.658438 
L 163 47.658438 
L 173 47.658438 
" style="fill: none; stroke: #1f77b4; stroke-width: 1.5; stroke-linecap: square"/>
    </g>
    <g id="text_16">
     <!-- fasterq-dump-uncompressed -->
     <g transform="translate(181 51.158438) scale(0.1 -0.1)">
      <defs>
       <path id="DejaVuSans-71" d="M 947 1747 
Q 947 1113 1208 752 
Q 1469 391 1925 391 
Q 2381 391 2643 752 
Q 2906 1113 2906 1747 
Q 2906 2381 2643 2742 
Q 2381 3103 1925 3103 
Q 1469 3103 1208 2742 
Q 947 2381 947 1747 
z
M 2906 525 
Q 2725 213 2448 61 
Q 2172 -91 1784 -91 
Q 1150 -91 751 415 
Q 353 922 353 1747 
Q 353 2572 751 3078 
Q 1150 3584 1784 3584 
Q 2172 3584 2448 3432 
Q 2725 3281 2906 2969 
L 2906 3500 
L 3481 3500 
L 3481 -1331 
L 2906 -1331 
L 2906 525 
z
" transform="scale(0.015625)"/>
       <path id="DejaVuSans-2d" d="M 313 2009 
L 1997 2009 
L 1997 1497 
L 313 1497 
L 313 2009 
z
" transform="scale(0.015625)"/>
       <path id="DejaVuSans-64" d="M 2906 2969 
L 2906 4863 
L 3481 4863 
L 3481 0 
L 2906 0 
L 2906 525 
Q 2725 213 2448 61 
Q 2172 -91 1784 -91 
Q 1150 -91 751 415 
Q 353 922 353 1747 
Q 353 2572 751 3078 
Q 1150 3584 1784 3584 
Q 2172 3584 2448 3432 
Q 2725 3281 2906 2969 
z
M 947 1747 
Q 947 1113 1208 752 
Q 1469 391 1925 391 
Q 2381 391 2643 752 
Q 2906 1113 2906 1747 
Q 2906 2381 2643 2742 
Q 2381 3103 1925 3103 
Q 1469 3103 1208 2742 
Q 947 2381 947 1747 
z
" transform="scale(0.015625)"/>
       <path id="DejaVuSans-70" d="M 1159 525 
L 1159 -1331 
L 581 -1331 
L 581 3500 
L 1159 3500 
L 1159 2969 
Q 1341 3281 1617 3432 
Q 1894 3584 2278 3584 
Q 2916 3584 3314 3078 
Q 3713 2572 3713 1747 
Q 3713 922 3314 415 
Q 2916 -91 2278 -91 
Q 1894 -91 1617 61 
Q 1341 213 1159 525 
z
M 3116 1747 
Q 3116 2381 2855 2742 
Q 2594 3103 2138 3103 
Q 1681 3103 1420 2742 
Q 1159 2381 1159 1747 
Q 1159 1113 1420 752 
Q 1681 391 2138 391 
Q 2594 391 2855 752 
Q 3116 1113 3116 1747 
z
" transform="scale(0.015625)"/>
      </defs>
      <use xlink:href="#DejaVuSans-66"/>
      <use xlink:href="#DejaVuSans-61" transform="translate(35.205078 0)"/>
      <use xlink:href="#DejaVuSans-73" transform="translate(96.484375 0)"/>
      <use xlink:href="#DejaVuSans-74" transform="translate(148.583984 0)"/>
      <use xlink:href="#DejaVuSans-65" transform="translate(187.792969 0)"/>
      <use xlink:href="#DejaVuSans-72" transform="translate(249.316406 0)"/>
      <use xlink:href="#DejaVuSans-71" transform="translate(288.679688 0)"/>
      <use xlink:href="#DejaVuSans-2d" transform="translate(352.15625 0)"/>
      <use xlink:href="#DejaVuSans-64" transform="translate(388.240234 0)"/>
      <use xlink:href="#DejaVuSans-75" transform="translate(451.716797 0)"/>
      <use xlink:href="#DejaVuSans-6d" transform="translate(515.095703 0)"/>
      <use xlink:href="#DejaVuSans-70" transform="translate(612.507812 0)"/>
      <use xlink:href="#DejaVuSans-2d" transform="translate(675.984375 0)"/>
      <use xlink:href="#DejaVuSans-75" transform="translate(712.068359 0)"/>
      <use xlink:href="#DejaVuSans-6e" transform="translate(775.447266 0)"/>
      <use xlink:href="#DejaVuSans-63" transform="translate(838.826172 0)"/>
      <use xlink:href="#DejaVuSans-6f" transform="translate(893.806641 0)"/>
      <use xlink:href="#DejaVuSans-6d" transform="translate(954.988281 0)"/>
      <use xlink:href="#DejaVuSans-70" transform="translate(1052.400391 0)"/>
      <use xlink:href="#DejaVuSans-72" transform="translate(1115.876953 0)"/>
      <use xlink:href="#DejaVuSans-65" transform="translate(1154.740234 0)"/>
      <use xlink:href="#DejaVuSans-73" transform="translate(1216.263672 0)"/>
      <use xlink:href="#DejaVuSans-73" transform="translate(1268.363281 0)"/>
      <use xlink:href="#DejaVuSans-65" transform="translate(1320.462891 0)"/>
      <use xlink:href="#DejaVuSans-64" transform="translate(1381.986328 0)"/>
     </g>
    </g>
    <g id="line2d_38">
     <path d="M 153 62.336563 
L 163 62.336563 
L 173 62.336563 
" style="fill: none; stroke: #ff7f0e; stroke-width: 1.5; stroke-linecap: square"/>
    </g>
    <g id="text_17">
     <!-- xsra-dump-gzip -->
     <g transform="translate(181 65.836563) scale(0.1 -0.1)">
      <defs>
       <path id="DejaVuSans-78" d="M 3513 3500 
L 2247 1797 
L 3578 0 
L 2900 0 
L 1881 1375 
L 863 0 
L 184 0 
L 1544 1831 
L 300 3500 
L 978 3500 
L 1906 2253 
L 2834 3500 
L 3513 3500 
z
" transform="scale(0.015625)"/>
       <path id="DejaVuSans-7a" d="M 353 3500 
L 3084 3500 
L 3084 2975 
L 922 459 
L 3084 459 
L 3084 0 
L 275 0 
L 275 525 
L 2438 3041 
L 353 3041 
L 353 3500 
z
" transform="scale(0.015625)"/>
      </defs>
      <use xlink:href="#DejaVuSans-78"/>
      <use xlink:href="#DejaVuSans-73" transform="translate(59.179688 0)"/>
      <use xlink:href="#DejaVuSans-72" transform="translate(111.279297 0)"/>
      <use xlink:href="#DejaVuSans-61" transform="translate(152.392578 0)"/>
      <use xlink:href="#DejaVuSans-2d" transform="translate(213.671875 0)"/>
      <use xlink:href="#DejaVuSans-64" transform="translate(249.755859 0)"/>
      <use xlink:href="#DejaVuSans-75" transform="translate(313.232422 0)"/>
      <use xlink:href="#DejaVuSans-6d" transform="translate(376.611328 0)"/>
      <use xlink:href="#DejaVuSans-70" transform="translate(474.023438 0)"/>
      <use xlink:href="#DejaVuSans-2d" transform="translate(537.5 0)"/>
      <use xlink:href="#DejaVuSans-67" transform="translate(573.583984 0)"/>
      <use xlink:href="#DejaVuSans-7a" transform="translate(637.060547 0)"/>
      <use xlink:href="#DejaVuSans-69" transform="translate(689.550781 0)"/>
      <use xlink:href="#DejaVuSans-70" transform="translate(717.333984 0)"/>
     </g>
    </g>
    <g id="line2d_39">
     <path d="M 153 77.014688 
L 163 77.014688 
L 173 77.014688 
" style="fill: none; stroke: #2ca02c; stroke-width: 1.5; stroke-linecap: square"/>
    </g>
    <g id="text_18">
     <!-- xsra-dump-uncompressed -->
     <g transform="translate(181 80.514688) scale(0.1 -0.1)">
      <use xlink:href="#DejaVuSans-78"/>
      <use xlink:href="#DejaVuSans-73" transform="translate(59.179688 0)"/>
      <use xlink:href="#DejaVuSans-72" transform="translate(111.279297 0)"/>
      <use xlink:href="#DejaVuSans-61" transform="translate(152.392578 0)"/>
      <use xlink:href="#DejaVuSans-2d" transform="translate(213.671875 0)"/>
      <use xlink:href="#DejaVuSans-64" transform="translate(249.755859 0)"/>
      <use xlink:href="#DejaVuSans-75" transform="translate(313.232422 0)"/>
      <use xlink:href="#DejaVuSans-6d" transform="translate(376.611328 0)"/>
      <use xlink:href="#DejaVuSans-70" transform="translate(474.023438 0)"/>
      <use xlink:href="#DejaVuSans-2d" transform="translate(537.5 0)"/>
      <use xlink:href="#DejaVuSans-75" transform="translate(573.583984 0)"/>
      <use xlink:href="#DejaVuSans-6e" transform="translate(636.962891 0)"/>
      <use xlink:href="#DejaVuSans-63" transform="translate(700.341797 0)"/>
      <use xlink:href="#DejaVuSans-6f" transform="translate(755.322266 0)"/>
      <use xlink:href="#DejaVuSans-6d" transform="translate(816.503906 0)"/>
      <use xlink:href="#DejaVuSans-70" transform="translate(913.916016 0)"/>
      <use xlink:href="#DejaVuSans-72" transform="translate(977.392578 0)"/>
      <use xlink:href="#DejaVuSans-65" transform="translate(1016.255859 0)"/>
      <use xlink:href="#DejaVuSans-73" transform="translate(1077.779297 0)"/>
      <use xlink:href="#DejaVuSans-73" transform="translate(1129.878906 0)"/>
      <use xlink:href="#DejaVuSans-65" transform="translate(1181.978516 0)"/>
      <use xlink:href="#DejaVuSans-64" transform="translate(1243.501953 0)"/>
     </g>
    </g>
    <g id="line2d_40">
     <path d="M 153 91.692813 
L 163 91.692813 
L 173 91.692813 
" style="fill: none; stroke: #d62728; stroke-width: 1.5; stroke-linecap: square"/>
    </g>
    <g id="text_19">
     <!-- xsra-dump-zstd -->
     <g transform="translate(181 95.192813) scale(0.1 -0.1)">
      <use xlink:href="#DejaVuSans-78"/>
      <use xlink:href="#DejaVuSans-73" transform="translate(59.179688 0)"/>
      <use xlink:href="#DejaVuSans-72" transform="translate(111.279297 0)"/>
      <use xlink:href="#DejaVuSans-61" transform="translate(152.392578 0)"/>
      <use xlink:href="#DejaVuSans-2d" transform="translate(213.671875 0)"/>
      <use xlink:href="#DejaVuSans-64" transform="translate(249.755859 0)"/>
      <use xlink:href="#DejaVuSans-75" transform="translate(313.232422 0)"/>
      <use xlink:href="#DejaVuSans-6d" transform="translate(376.611328 0)"/>
      <use xlink:href="#DejaVuSans-70" transform="translate(474.023438 0)"/>
      <use xlink:href="#DejaVuSans-2d" transform="translate(537.5 0)"/>
      <use xlink:href="#DejaVuSans-7a" transform="translate(573.583984 0)"/>
      <use xlink:href="#DejaVuSans-73" transform="translate(626.074219 0)"/>
      <use xlink:href="#DejaVuSans-74" transform="translate(678.173828 0)"/>
      <use xlink:href="#DejaVuSans-64" transform="translate(717.382812 0)"/>
     </g>
    </g>
    <g id="line2d_41">
     <path d="M 153 106.370938 
L 163 106.370938 
L 173 106.370938 
" style="fill: none; stroke: #9467bd; stroke-width: 1.5; stroke-linecap: square"/>
    </g>
    <g id="text_20">
     <!-- xsra-recode-bq -->
     <g transform="translate(181 109.870938) scale(0.1 -0.1)">
      <defs>
       <path id="DejaVuSans-62" d="M 3116 1747 
Q 3116 2381 2855 2742 
Q 2594 3103 2138 3103 
Q 1681 3103 1420 2742 
Q 1159 2381 1159 1747 
Q 1159 1113 1420 752 
Q 1681 391 2138 391 
Q 2594 391 2855 752 
Q 3116 1113 3116 1747 
z
M 1159 2969 
Q 1341 3281 1617 3432 
Q 1894 3584 2278 3584 
Q 2916 3584 3314 3078 
Q 3713 2572 3713 1747 
Q 3713 922 3314 415 
Q 2916 -91 2278 -91 
Q 1894 -91 1617 61 
Q 1341 213 1159 525 
L 1159 0 
L 581 0 
L 581 4863 
L 1159 4863 
L 1159 2969 
z
" transform="scale(0.015625)"/>
      </defs>
      <use xlink:href="#DejaVuSans-78"/>
      <use xlink:href="#DejaVuSans-73" transform="translate(59.179688 0)"/>
      <use xlink:href="#DejaVuSans-72" transform="translate(111.279297 0)"/>
      <use xlink:href="#DejaVuSans-61" transform="translate(152.392578 0)"/>
      <use xlink:href="#DejaVuSans-2d" transform="translate(213.671875 0)"/>
      <use xlink:href="#DejaVuSans-72" transform="translate(249.755859 0)"/>
      <use xlink:href="#DejaVuSans-65" transform="translate(288.619141 0)"/>
      <use xlink:href="#DejaVuSans-63" transform="translate(350.142578 0)"/>
      <use xlink:href="#DejaVuSans-6f" transform="translate(405.123047 0)"/>
      <use xlink:href="#DejaVuSans-64" transform="translate(466.304688 0)"/>
      <use xlink:href="#DejaVuSans-65" transform="translate(529.78125 0)"/>
      <use xlink:href="#DejaVuSans-2d" transform="translate(591.304688 0)"/>
      <use xlink:href="#DejaVuSans-62" transform="translate(627.388672 0)"/>
      <use xlink:href="#DejaVuSans-71" transform="translate(690.865234 0)"/>
     </g>
    </g>
    <g id="line2d_42">
     <path d="M 153 121.049063 
L 163 121.049063 
L 173 121.049063 
" style="fill: none; stroke: #8c564b; stroke-width: 1.5; stroke-linecap: square"/>
    </g>
    <g id="text_21">
     <!-- xsra-recode-vbq -->
     <g transform="translate(181 124.549063) scale(0.1 -0.1)">
      <defs>
       <path id="DejaVuSans-76" d="M 191 3500 
L 800 3500 
L 1894 563 
L 2988 3500 
L 3597 3500 
L 2284 0 
L 1503 0 
L 191 3500 
z
" transform="scale(0.015625)"/>
      </defs>
      <use xlink:href="#DejaVuSans-78"/>
      <use xlink:href="#DejaVuSans-73" transform="translate(59.179688 0)"/>
      <use xlink:href="#DejaVuSans-72" transform="translate(111.279297 0)"/>
      <use xlink:href="#DejaVuSans-61" transform="translate(152.392578 0)"/>
      <use xlink:href="#DejaVuSans-2d" transform="translate(213.671875 0)"/>
      <use xlink:href="#DejaVuSans-72" transform="translate(249.755859 0)"/>
      <use xlink:href="#DejaVuSans-65" transform="translate(288.619141 0)"/>
      <use xlink:href="#DejaVuSans-63" transform="translate(350.142578 0)"/>
      <use xlink:href="#DejaVuSans-6f" transform="translate(405.123047 0)"/>
      <use xlink:href="#DejaVuSans-64" transform="translate(466.304688 0)"/>
      <use xlink:href="#DejaVuSans-65" transform="translate(529.78125 0)"/>
      <use xlink:href="#DejaVuSans-2d" transform="translate(591.304688 0)"/>
      <use xlink:href="#DejaVuSans-76" transform="translate(624.763672 0)"/>
      <use xlink:href="#DejaVuSans-62" transform="translate(683.943359 0)"/>
      <use xlink:href="#DejaVuSans-71" transform="translate(747.419922 0)"/>
     </g>
    </g>
   </g>
  </g>
 </g>
 <defs>
  <clipPath id="pe775af45eb">
   <rect x="144" y="34.56" width="892.8" height="221.76"/>
  </clipPath>
 </defs>
</svg>
